<svg xmlns="http://www.w3.org/2000/svg" viewBox="0 0 43.8 50"><path fill="#8FBDCF" d="M43.8 1.8C43.8.8 43 0 42 0H1.8C.8 0 0 .8 0 1.8v46.4c0 1 .8 1.8 1.8 1.8H42c1 0 1.8-.8 1.8-1.8V1.8zm-5.2 43H5.2V6.2h33.4v38.6zm-7.3-29.7c0 1.2-1 2.2-2.2 2.2H14.7c-1.2 0-2.2-1-2.2-2.2v-.8c0-1.2 1-2.2 2.2-2.2h14.4c1.2 0 2.2 1 2.2 2.2v.8zm0 10.4c0 1.2-1 2.2-2.2 2.2H14.7c-1.2 0-2.2-1-2.2-2.2v-1c0-1.2 1-2.2 2.2-2.2h14.4c1.2 0 2.2 1 2.2 2.2v1zm0 10.2c0 1.2-1 2.2-2.2 2.2H14.7c-1.2 0-2.2-1-2.2-2.2v-.8c0-1.2 1-2.2 2.2-2.2h14.4c1.2 0 2.2 1 2.2 2.2v.8z"/></svg>