<svg xmlns="http://www.w3.org/2000/svg" viewBox="0 0 120 120"><path fill="#1A6498" d="M12.4 102C5.1 95.1.5 85.4.5 74.7.5 54 17.3 37.2 38 37.2S75.4 54 75.4 74.6C75.4 95.3 58.6 112 38 112c-6.5 0-12.6-1.7-17.9-4.6l-3.4 3.5-5.8 2.5 1.5-11.4z"/><path fill="#2283C5" d="M17.2 100.1C9.9 93.2 5.3 83.5 5.3 72.7c0-20.7 16.8-37.4 37.4-37.4 20.7 0 37.4 16.8 37.4 37.4 0 20.7-16.8 37.4-37.4 37.4-6.5 0-12.6-1.7-17.9-4.6l-9.2 6.1 1.6-11.5z"/><path fill="#A29F95" d="M100.8 92.1c9.2-8.6 14.9-20.7 14.9-34.2 0-25.9-21-46.9-46.9-46.9C43 11 22 32 22 57.9s21 46.9 46.9 46.9c8.2 0 15.8-2.1 22.5-5.7l11.5 7.6 2.8-5.5-4.9-9.1z"/><path fill="#D9D7CF" d="M103.6 86.6c9.2-8.6 14.9-20.7 14.9-34.2 0-25.9-21-46.9-46.9-46.9s-46.9 21-46.9 46.9 21 46.9 46.9 46.9c8.2 0 15.8-2.1 22.5-5.7l11.5 7.6-2-14.6z"/><path opacity=".62" fill="#A29F95" d="M56.3 51.3c-.3.8-24.4 24.4-24.4 24.4s-3.4 3.9 0 6.8l4.2 4 31.1-31.1M75.4 51.3c-.3.8-34 34-34 34s-3.4 3.9 0 6.8l4.2 4 40.6-40.6"/><circle fill="#82807C" cx="60.9" cy="53.3" r="5"/><circle fill="#82807C" cx="80" cy="53.3" r="5"/><circle fill="#FFF" cx="62.8" cy="52.4" r="5"/><circle fill="#FFF" cx="81.9" cy="52.4" r="5"/></svg>