<svg xmlns="http://www.w3.org/2000/svg" viewBox="0 0 1000 1000"><g fill="#567E87"><path d="M572 418V239.8c0-11.8-12.8-19.8-24.7-19.8H451c-11.8 0-23.1 8-23.1 19.8V418H304.6c.9 0 2.7 8.8 5.5 11.6l174 174.9c8.4 8.3 21.9 8.8 30.2.4l174-175.5c2.8-2.8 4.6-11.4 5.5-11.4H572zM793.4 617H618.9l-89.6 83.7c-10.7 10.7-28.1 13.4-38.8 2.7L401.2 617H205c-11.8 0-12-4-12 7.8v139.1c0 11.8.2 16.1 12 16.1h588.3c11.8 0 13.6-4.3 13.6-16.1V624.8c.1-11.8-1.7-7.8-13.5-7.8zM626.2 737.1c-23.8 0-43.2-19.3-43.2-43.2 0-23.8 19.3-43.1 43.2-43.1 23.8 0 43.2 19.3 43.2 43.1-.1 23.9-19.4 43.2-43.2 43.2zm106.2 0c-23.8 0-43.2-19.3-43.2-43.2 0-23.8 19.3-43.1 43.2-43.1 23.8 0 43.2 19.3 43.2 43.1-.1 23.9-19.4 43.2-43.2 43.2z"/></g></svg>