<svg xmlns="http://www.w3.org/2000/svg" viewBox="0 0 1000 1000"><g fill="#567E87"><path d="M890.6 500h-.4c-8.4-66-168.6-280-387.1-280-237 0-386.2 197-393.4 280h-.3s.1-1 .2 0c0 1-.2 0-.2 0h.3c7.2 99 156.4 280 393.4 280 218.5 0 378.7-197 387.1-280h.4s-.1 1-.2 0c.1-1 .2 0 .2 0zM492.2 707c-115.9 0-209.9-94-209.9-209.9s94-209.9 209.9-209.9 209.9 94 209.9 209.9S608.1 707 492.2 707z"/><path d="M497.6 381.6c1.6 6.7 2.6 13.6 2.6 20.8 0 48-38.9 86.9-87 86.9-6.5 0-12.8-.8-18.9-2.1 1.3 55.9 46.9 100.8 103.1 100.8 57 0 103.2-46.2 103.2-103.2s-46.1-103.1-103-103.2z"/></g></svg>