<svg xmlns="http://www.w3.org/2000/svg" viewBox="0 0 120 120"><path fill="#1A6498" d="M95.2 101.2c10.5-9.8 17.1-23.8 17.1-39.3 0-29.7-24.1-53.8-53.8-53.8S4.7 32.3 4.7 62s24.1 53.8 53.8 53.8c9.4 0 18.1-2.4 25.8-6.6l13.2 8.7 3.2-6.4-5.5-10.3z"/><path fill="#2283C5" d="M98.4 94.9c10.5-9.8 17.1-23.8 17.1-39.3 0-29.7-24.1-53.8-53.8-53.8C32 1.8 7.9 25.9 7.9 55.6c0 29.7 24.1 53.8 53.8 53.8 9.4 0 18.1-2.4 25.8-6.6l13.2 8.7-2.3-16.6z"/><path opacity=".68" fill="#1A6498" d="M63.2 78.9c-.9-5-8-23.2-1.5-26.4 2.6-1.3 5.8-1.9 6.4-6l-5.4.5-8.8-.5 14.4-13.8-7-2.7c-.2-.9.2.8 0 0-2.1-6.9-6.9-3.3-6.9-3.3L9.4 62s-1.1 12.4 11 27.9c12.1 15.5 27.8 17.8 27.8 17.8l24.4-18.8c3.5-8-8.4-5-9.4-10z"/><path fill="#1A6498" d="M66.4 47.8c.1 4.4.2 12.4.2 23.7l-.1 10.2c0 2.1.3 3.4 1 4.1.7.7 1.8 1.2 3.4 1.4 1.8.2 2.7.7 2.7 1.5 0 .9-.7 1.3-2.1 1.3-.7 0-1.8 0-3.5-.1-3.5-.2-6.9-.3-10.4-.3-1.7 0-3.4.1-5.1.3-1 .1-1.8.2-2.1.2-1.4 0-2.1-.4-2.1-1.3 0-.8.9-1.3 2.8-1.5 2.4-.2 3.8-1 4.1-2.5.3-1.4.4-4.3.4-8.6 0-5.6-.1-10.7-.3-15.4-.2-4.7-.5-7.4-1-8-.5-.7-1.7-1.1-3.7-1.3-1.6-.2-2.3-.6-2.3-1.4s.8-1.2 2.4-1.3l1-.1 14.7-.9zm-.6-16.1c0 1.9-.7 3.5-2 4.8-1.3 1.3-3 2-4.8 2-1.9 0-3.5-.7-4.9-2-1.3-1.3-2-3-2-4.8 0-1.9.7-3.5 2-4.9 1.3-1.3 3-2 4.9-2 1.9 0 3.5.7 4.8 2 1.3 1.3 2 3 2 4.9z"/><path fill="#FFF" stroke="#1A6498" stroke-miterlimit="10" d="M68.1 45.6c.1 4.3.2 12 .2 23.1l-.1 10c0 2 .3 3.4 1 4 .7.7 1.8 1.1 3.3 1.3 1.7.2 2.6.7 2.6 1.5s-.7 1.3-2 1.3c-.6 0-1.8 0-3.4-.1-3.4-.2-6.8-.3-10.1-.3-1.6 0-3.3.1-5 .3-1 .1-1.7.2-2.1.2-1.4 0-2-.4-2-1.3 0-.8.9-1.3 2.7-1.4 2.4-.2 3.7-1 4-2.4.3-1.4.4-4.2.4-8.4 0-5.4-.1-10.4-.3-15-.2-4.6-.5-7.2-1-7.8-.5-.6-1.7-1.1-3.6-1.3-1.5-.2-2.3-.6-2.3-1.3 0-.7.8-1.2 2.3-1.3l1-.1 14.4-1zm-.6-15.7c0 1.8-.7 3.4-2 4.7-1.3 1.3-2.9 2-4.7 2-1.9 0-3.4-.7-4.7-2-1.3-1.3-1.9-2.9-1.9-4.7 0-1.9.6-3.4 1.9-4.7 1.3-1.3 2.9-1.9 4.7-1.9 1.8 0 3.4.6 4.7 1.9 1.3 1.3 2 2.9 2 4.7z"/></svg>