<svg xmlns="http://www.w3.org/2000/svg" viewBox="0 0 120 120"><path fill="#557D86" d="M96.4 97.9c10.5-9.8 17.1-23.8 17.1-39.3 0-29.7-24.1-53.8-53.8-53.8C30 4.8 5.9 28.9 5.9 58.6c0 29.7 24.1 53.8 53.8 53.8 9.4 0 18.1-2.4 25.8-6.6l13.2 8.7-2.3-16.6z"/><g fill="#FFF"><path d="M61 38c-.6 0-1.2.1-1.7.2H59h-.1-.1c-.7.3-1.2 1.1-1 1.8.2.7.9 1.2 1.6 1.2 0 0 1-.2 1.6-.2 3.3 0 5.5 2.7 5.9 5.8.1.6-.1 1.2.2 1.8.5.8 1.5 1.1 2.3.7.4-.2.7-.6.8-1 0-.4.1-.8.1-1.1-.1-5.1-4.2-9.2-9.3-9.2z"/><path d="M81.1 48.4C81.1 36.7 71 27.2 60 27.2c-11.7 0-21.2 9.5-21.2 21.2 0 12 8.7 14.9 9.2 23.6.2 2.9 0 9.4 0 9.4 0 1.1 1.4 2.6 2.6 2.6h5.6c.1 1 1.7 3.6 3.6 3.6h.2c2 0 3.5-2.6 3.5-3.6h5.6c1.1 0 2.6-1.4 2.6-2.6 0 0-.2-6.5 0-9.4.7-8.7 9.4-11.6 9.4-23.6zM67 78.1c0 1-1.1 1.9-2.1 1.9h-10c-1 0-1.9-.8-1.9-1.9v-.2c0-1 .8-1.9 1.9-1.9h10c1 0 2.1.8 2.1 1.9v.2zm.4-7.6c0 .4-2.4.5-3.4.5h-1v-8.5c0-1.9-1.6-3.5-3.5-3.5S56 60.6 56 62.5V71c-1 0-3.5-.1-3.6-.5-.6-9.2-8.4-13.2-8.4-22.3 0-8.9 6.8-16 15.6-16h.7c8.9 0 15.5 7.1 15.5 16 0 9.1-7.7 13.1-8.4 22.3z"/></g></svg>