<svg xmlns="http://www.w3.org/2000/svg" viewBox="0 0 120 120"><path fill="#557D86" d="M96.4 97.9c10.5-9.8 17.1-23.8 17.1-39.3 0-29.7-24.1-53.8-53.8-53.8C30 4.8 5.9 28.9 5.9 58.6s24.1 53.8 53.8 53.8c9.4 0 18.1-2.4 25.8-6.6l13.2 8.7-2.3-16.6z"/><path fill="#FFF" d="M42.1 46.4c0-2.3.7-4.7 2.2-7.1 1.5-2.4 3.7-4.4 6.5-5.9 2.9-1.6 6.2-2.3 10-2.3 3.5 0 6.7.7 9.4 2s4.8 3.1 6.3 5.3 2.2 4.7 2.2 7.3c0 2.1-.4 3.9-1.3 5.5-.8 1.6-1.8 2.9-3 4s-3.2 3-6.2 5.7c-.8.8-1.5 1.4-2 2s-.9 1.1-1.1 1.6-.4 1-.6 1.4c-.1.5-.3 1.3-.6 2.5-.5 2.5-1.9 3.8-4.4 3.8-1.3 0-2.3-.4-3.2-1.2-.8-.8-1.3-2-1.3-3.7 0-2.1.3-3.8 1-5.3.6-1.5 1.5-2.8 2.5-4 1-1.1 2.5-2.5 4.3-4 1.6-1.4 2.7-2.4 3.4-3.1.7-.7 1.3-1.5 1.8-2.3.5-.9.7-1.8.7-2.8 0-2-.7-3.6-2.2-4.9-1.5-1.3-3.3-2-5.6-2-2.7 0-4.7.7-5.9 2-1.3 1.4-2.3 3.4-3.2 6-.8 2.8-2.4 4.1-4.7 4.1-1.4 0-2.5-.5-3.5-1.4-1.1-1-1.5-2.1-1.5-3.2zm17.8 40.2c-1.5 0-2.8-.5-3.9-1.4-1.1-1-1.7-2.3-1.7-4 0-1.5.5-2.8 1.6-3.9s2.4-1.6 4-1.6c1.5 0 2.8.5 3.9 1.6 1 1 1.6 2.3 1.6 3.9 0 1.7-.5 3.1-1.6 4-1.1.9-2.4 1.4-3.9 1.4z"/></svg>