<svg xmlns="http://www.w3.org/2000/svg" viewBox="0 0 120 120"><path fill="#1A6498" d="M95.2 101.2c10.5-9.8 17.1-23.8 17.1-39.3 0-29.7-24.1-53.8-53.8-53.8S4.7 32.3 4.7 62s24.1 53.8 53.8 53.8c9.4 0 18.1-2.4 25.8-6.6l13.2 8.7 3.2-6.4-5.5-10.3z"/><path fill="#2283C5" d="M98.4 94.9c10.5-9.8 17.1-23.8 17.1-39.3 0-29.7-24.1-53.8-53.8-53.8C32 1.8 7.9 25.9 7.9 55.6c0 29.7 24.1 53.8 53.8 53.8 9.4 0 18.1-2.4 25.8-6.6l13.2 8.7-2.3-16.6z"/><path opacity=".68" fill="#1A6498" d="M7.4 63.1l40.2-35.5s11.8-2.7 18.5 0c6.7 2.7 17 13.9 14.1 20.6-2.8 6.7-9.9 23-8.9 28.1.9 5 .3 7.7-1.6 10.1l-21.6 21.4S32.4 105.5 20.3 90C8.2 74.5 7.4 63.1 7.4 63.1z"/><g fill="#1A6498"><path d="M60.6 35.8c-.6 0-1.3.1-1.9.2-.1 0-.2 0-.4.1h-.1-.1c-.8.3-1.2 1.1-1 2 .2.8.9 1.3 1.7 1.3 0 0 1.1-.2 1.7-.2 3.5 0 5.9 2.9 6.3 6.2.1.6-.1 1.3.2 1.9.5.9 1.6 1.2 2.5.7.4-.2.7-.6.9-1.1 0-.4.1-.8.1-1.2.1-5.5-4.4-9.9-9.9-9.9z"/><path d="M82.3 46.9c0-12.6-10.9-22.8-22.7-22.8-12.6 0-22.8 10.2-22.8 22.8 0 12.9 9.3 16 9.9 25.3.2 3.1 0 10 0 10 0 1.2 1.5 2.7 2.8 2.7h6c.1 1 1.8 3.9 3.9 3.9h.2c2.1 0 3.7-2.9 3.8-3.9h6c1.2 0 2.8-1.5 2.8-2.7 0 0-.2-7 0-10.1.7-9.2 10.1-12.3 10.1-25.2zM67 78.8c0 1.1-1.1 2.2-2.2 2.2H54.1C53 81 52 80 52 78.8v-.3c0-1.1 1-2.6 2.1-2.6h10.7c1.1 0 2.2 1.5 2.2 2.6v.3zm.6-8.2c0 .4-2.6.4-3.7.4H63v-8.9c0-2.1-1.9-3.8-4-3.8s-4 1.7-4 3.8v9.1c-1 0-3.7-.1-3.7-.5-.7-9.9-9-14.2-9-23.9 0-9.5 7.3-17.2 16.8-17.2h.7c9.5 0 16.7 7.6 16.7 17.1.1 9.7-8.2 14-8.9 23.9z"/></g><g fill="#FFF"><path d="M62 35c-.6 0-1.2.1-1.7.2H60h-.1-.1c-.7.3-1.2 1.1-1 1.8.2.7.9 1.2 1.6 1.2 0 0 1-.2 1.6-.2 3.3 0 5.5 2.7 5.9 5.8.1.6-.1 1.2.2 1.8.5.8 1.5 1.1 2.3.7.4-.2.7-.6.8-1 0-.4.1-.8.1-1.1-.1-5.1-4.2-9.2-9.3-9.2z"/><path d="M82.1 45.4C82.1 33.7 72 24.2 61 24.2c-11.7 0-21.2 9.5-21.2 21.2 0 12 8.7 14.9 9.2 23.6.2 2.9 0 9.4 0 9.4 0 1.1 1.4 2.6 2.6 2.6h5.6c.1 1 1.7 3.6 3.6 3.6h.2c2 0 3.5-2.6 3.5-3.6h5.6c1.1 0 2.6-1.4 2.6-2.6 0 0-.2-6.5 0-9.4.7-8.7 9.4-11.6 9.4-23.6zM68 75.1c0 1-1.1 1.9-2.1 1.9h-10c-1 0-1.9-.8-1.9-1.9v-.2c0-1 .8-1.9 1.9-1.9h10c1 0 2.1.8 2.1 1.9v.2zm.4-7.6c0 .4-2.4.5-3.4.5h-1v-8.5c0-1.9-1.6-3.5-3.5-3.5S57 57.6 57 59.5V68c-1 0-3.5-.1-3.6-.5-.6-9.2-8.4-13.2-8.4-22.3 0-8.9 6.8-16 15.6-16h.7c8.9 0 15.5 7.1 15.5 16 0 9.1-7.7 13.1-8.4 22.3z"/></g></svg>