<svg xmlns="http://www.w3.org/2000/svg" viewBox="0 0 120 120"><path fill="#1F4074" d="M115.2 87.6l-2-76.7c0-2.2-1.8-3.8-4-3.8L11.3 3.7C9.1 3.7 2 6.4 2 11.1v101.6c0 2.2 3.4 3.3 5.7 3.3h78.5c7.4-6 21.3-20.7 29-28.4z"/><path fill="#365FA1" d="M117 85.6V5.1c0-2.2-.5-2.1-2.7-2.1H12.6C10.4 3 7 2.9 7 5.1v101.6c0 2.2 3.4 4.2 5.6 4.2h79.5C100.8 103 113 91 117 85.6z"/><path opacity=".6" fill="#1F4074" d="M58.6 113.4l18.8-28 27.4-46.9-22.9-8.9-7.9 19-16.4-19-21 23-10.5-23-20.8 23 2.4 60.1z"/><path opacity=".7" fill="#FFFEFD" d="M117 87H94c-1.7 0-3-.2-3 1.5v23L117 87z"/><path fill="#1F4074" d="M24 31h21v8h-1v22.6L55.6 31H73v29.1L83.1 39H78v-8h23v8h-2.9L75.4 88H58V64.4L45.7 88H29V39h-5z"/><path fill="#FFF" d="M25 29h23v8h-3v22.6L57.6 29H76v29.1L85.1 37H81v-8h23v8h-3.9L77.4 87H60V62.4L47.7 87H30V37h-5z"/></svg>