<svg xmlns="http://www.w3.org/2000/svg" viewBox="0 0 120 120"><path fill="#AFAFAF" d="M115.5 88.8l-2-77.3c0-2.2-1.9-4-4.1-4l-97.6-5c-2.2 0-8.8 4.3-8.8 9v102c0 2.2 2.3 4.5 4.5 4.5h78.8l29.2-29.2z"/><path fill="#E6E6E6" d="M117 86.3V5.5c0-2.2-1.3-3.5-3.5-3.5h-102C9.3 2 7 3.3 7 5.5v102c0 2.2 2.3 4.5 4.5 4.5h79.8L117 86.3z"/><path fill="#9EC9D3" d="M16 15h93v73H16z"/><path fill="#787878" d="M17 76h6l22.1-36.5L62 67.2l15.2-15.9L99.4 76h9.6v12H17z"/><path fill="#6E6E69" d="M45 77V39.7L23 76h-6v1zM55 76h22V51z"/><circle fill="#FFF" cx="81.8" cy="34.3" r="10.3"/><path opacity=".7" fill="#FFFEFD" d="M117.2 86h-23c-1.7 0-3.2 1.4-3.2 3.2v23.1L117.2 86z"/></svg>