<svg xmlns="http://www.w3.org/2000/svg" viewBox="0 0 120 120"><path fill="#B54235" d="M114.9 88.1l-2-77.9c0-2.2-1.9-3.9-4.1-3.9L10.4 2.9C8.2 2.9 2 5.6 2 10.4v103.1c0 2.2 1.5 3.5 3.7 3.5h79.6c7.6-6.7 21.7-21.1 29.6-28.9z"/><path fill="#EB4C3A" d="M117 86V4.4c0-2.2-.9-2.4-3.1-2.4H10.8C8.5 2 5 2.1 5 4.4v103.1c0 2.2 3.5 4.5 5.8 4.5h80.6c8.8-8.3 18.9-20.5 25.6-26z"/><path opacity=".7" fill="#FFFEFD" d="M116.7 87H93.3c-1.8 0-3.3.2-3.3 1.9v23.3L116.7 87z"/><path opacity=".87" fill="#B54235" d="M47.5 22.7L11.1 57.9 4 64.8V112s53.7 1.2 53.7 4c0 2.9 40.1-36.8 40.1-36.8L60.3 63 47.5 22.7z"/><path fill="none" stroke="#A33428" stroke-width="8" stroke-miterlimit="10" d="M53.6 23.1c9 0 6.1 17-4.6 38S25.4 95.2 21.6 90.2C15.4 82 42 72.8 57.6 69.4c21.9-4.8 40.9 4 35.4 9.6-14.8 14.9-57.3-55.9-39.4-55.9z"/><path fill="none" stroke="#FFF" stroke-width="4" stroke-miterlimit="10" d="M56.7 21.1c9 0 6.1 17-4.6 38S28.5 93.2 24.7 88.2c-6.2-8.2 20.4-17.4 36-20.8 21.9-4.8 40.9 4 35.4 9.6-14.9 14.9-57.4-55.9-39.4-55.9z"/></svg>