<svg xmlns="http://www.w3.org/2000/svg" viewBox="0 46.2 1000 907.6"><g fill="#567E87"><path d="M616.7 367.1V78.3c0-19.1-20.7-32.1-40-32.1H420.6c-19.1 0-37.4 13-37.4 32.1v288.8H183.3c1.5 0 4.4 14.3 8.9 18.8l282 283.5c13.6 13.5 35.5 14.3 48.9.6l282-284.4c4.5-4.5 7.5-18.5 8.9-18.5H616.7zM975.6 689.6H692.7L547.5 825.3c-17.3 17.3-45.5 21.7-62.9 4.4l-144.7-140h-318c-19.1 0-19.4-6.5-19.4 12.6v225.4c0 19.1.3 26.1 19.4 26.1h953.5c19.1 0 22-7 22-26.1V702.3c.2-19.2-2.7-12.7-21.8-12.7zm-271 194.7c-38.6 0-70-31.3-70-70 0-38.6 31.3-69.9 70-69.9 38.6 0 70 31.3 70 69.9-.2 38.7-31.5 70-70 70zm172.1 0c-38.6 0-70-31.3-70-70 0-38.6 31.3-69.9 70-69.9 38.6 0 70 31.3 70 69.9-.1 38.7-31.4 70-70 70z"/></g></svg>