<svg xmlns="http://www.w3.org/2000/svg" viewBox="0 0 30 30"><circle fill="#557D86" cx="6.1" cy="4.6" r="1.3"/><circle fill="#557D86" cx="24.2" cy="4.6" r="1.3"/><path fill="#557D86" d="M28.4 0H1.8C.9 0 0 .6 0 1.6v26.6c0 .9.9 1.8 1.8 1.8H22c2.6-2.8 6.3-6.4 8-8.3V1.6c0-1-.6-1.6-1.6-1.6zM13.3 20.8c-.6.6-1.2.9-2.2.9-.8 0-1.1-.2-2.1-.6v-1.6c1 .5 1.4.7 2.1.7.5 0 .8-.1 1.1-.4.3-.3.4-.7.4-1.2 0-.4-.1-.8-.4-1.1-.1-.2-.3-.3-.5-.4-.2-.1-.8-.2-1.4-.2l-.3.1v-1h.6c.6 0 1.1-.3 1.5-.6.3-.3.5-.7.5-1.2s-.2-.9-.5-1.2c-.3-.3-.8-.4-1.3-.4s-.8.1-1.8.5v-1.4c1-.3 1.3-.4 2-.4.9 0 1.7.2 2.2.7.5.5.8 1.2.8 2 0 .5-.1 1-.3 1.3-.2.4-.5.7-1 .9.4.2.7.3.9.6.2.2.3.5.4.8.1.3.2.7.2 1 0 .9-.3 1.6-.9 2.2zM20 22h-2V11h2v11zm2 6.1V23c0-.7.5-1 1.2-1h4.9L22 28.1zM28 8H2V2h26v6z"/></svg>