<svg xmlns="http://www.w3.org/2000/svg" viewBox="0 0 120 120"><path fill="#9B9A91" d="M114.5 88.8l-2-77.3c0-2.2-1.9-4-4.1-4l-97.6-5c-2.2 0-8.8 4.3-8.8 9v102c0 2.2 2.3 4.5 4.5 4.5h78.8l29.2-29.2z"/><path fill="#DEDBCE" d="M117 86.3V5.5c0-2.2-1.3-3.5-3.5-3.5h-102C9.3 2 7 3.3 7 5.5v102c0 2.2 2.3 4.5 4.5 4.5h79.8L117 86.3z"/><path opacity=".7" fill="#FFF" d="M116.2 86h-23c-1.7 0-3.2 1.4-3.2 3.2v23.1L116.2 86z"/><path fill="#942E2E" d="M108.5 6L9.2 2.5C7 2.5 2 7.5 2 9.8V40l5.2-3.6L112 29.5V9.8c0-2.3-1.3-3.8-3.5-3.8zM28.3 24.3c-3.6 0-6.5-2.9-6.5-6.5s2.9-6.5 6.5-6.5 6.5 2.9 6.5 6.5-2.9 6.5-6.5 6.5zm57 0c-3.6 0-6.5-2.9-6.5-6.5s2.9-6.5 6.5-6.5 6.5 2.9 6.5 6.5-2.9 6.5-6.5 6.5z"/><path fill="#D14140" d="M113.5 2h-102C9.3 2 7 3.3 7 5.5V36h110V5.5c0-2.2-1.3-3.5-3.5-3.5zM33.3 20c-3.6 0-6.5-2.9-6.5-6.5S29.7 7 33.3 7s6.5 2.9 6.5 6.5-2.9 6.5-6.5 6.5zm57 0c-3.6 0-6.5-2.9-6.5-6.5S86.7 7 90.3 7s6.5 2.9 6.5 6.5-2.9 6.5-6.5 6.5z"/><g fill="#FFF"><path d="M44 68.3h.4c2.6 0 4.6-.5 6-1.6 1.4-1.1 2.1-2.7 2.1-4.7 0-1.9-.7-3.4-2-4.6-1.3-1.2-3.1-1.8-5.3-1.8-2.2 0-4.6.7-7.3 2.1v-5.8c2.5-1.2 5.1-1.8 8-1.8 3.9 0 6.9 1 9.2 3 2.2 2 3.4 4.8 3.4 8.3 0 2.1-.4 3.9-1.3 5.4-.9 1.5-2.2 2.7-4.1 3.8 1.6.6 2.9 1.4 3.6 2.4.8.9 1.4 2.1 1.8 3.4.4 1.3.6 2.7.6 4.2 0 3.7-1.2 6.7-3.7 9.1-2.5 2.4-5.5 3.6-9.3 3.6-3.2 0-6.3-.8-9.3-2.3v-6.6c3.2 2 6.3 3 9.3 3 2 0 3.7-.6 4.9-1.8 1.2-1.2 1.9-2.8 1.9-4.8 0-1.7-.5-3.1-1.5-4.4-.6-.7-1.3-1.2-2-1.6-.7-.3-2.3-.6-4.7-1H44v-5.5zM74.6 50.7h6v42.1h-6V50.7z"/></g><g fill="#6C6B64"><path d="M42 66.3h.4c2.6 0 4.6-.5 6-1.6 1.4-1.1 2.1-2.7 2.1-4.7 0-1.9-.7-3.4-2-4.6-1.3-1.2-3.1-1.8-5.3-1.8-2.2 0-4.6.7-7.3 2.1v-5.8c2.5-1.2 5.1-1.8 8-1.8 3.9 0 6.9 1 9.2 3 2.2 2 3.4 4.8 3.4 8.3 0 2.1-.4 3.9-1.3 5.4-.9 1.5-2.2 2.7-4.1 3.8 1.6.6 2.9 1.4 3.6 2.4.8.9 1.4 2.1 1.8 3.4.4 1.3.6 2.7.6 4.2 0 3.7-1.2 6.7-3.7 9.1-2.5 2.4-5.5 3.6-9.3 3.6-3.2 0-6.3-.8-9.3-2.3v-6.6c3.2 2 6.3 3 9.3 3 2 0 3.7-.6 4.9-1.8 1.2-1.2 1.9-2.8 1.9-4.8 0-1.7-.5-3.1-1.5-4.4-.6-.7-1.3-1.2-2-1.6-.7-.3-2.3-.6-4.7-1H42v-5.5zM72.6 48.7h6v42.1h-6V48.7z"/></g></svg>