<svg xmlns="http://www.w3.org/2000/svg" viewBox="0 0 120 120"><path fill="#72726F" d="M103 12H18.7c-3 0-6.7 1.8-6.7 4.7V101c0 3 3.8 6 6.7 6h63.8c8.1-9 19.4-20.6 24.4-26.5V16.7c.1-2.9-.9-4.7-3.9-4.7zM55 77.8c-1.9 1.9-4.6 2.8-7.5 2.8-2.5 0-5.5-.6-7.5-1.8v-5.1c2 1.5 5.2 2.3 7.5 2.3 1.6 0 3-.5 4-1.4 1-.9 1.5-2.2 1.5-3.7 0-1.3-.3-2.4-1.1-3.4-.5-.5-1-.9-1.5-1.2-.6-.3-2.4-.5-4.3-.7h-1V61h1.6c2 0 3.6-.3 4.6-1.1 1.1-.8 1.6-2 1.6-3.6 0-1.4-.5-2.6-1.5-3.5-1-.9-2.7-1.3-4.3-1.3-1.7 0-4.9.5-5.9 1.6v-4.4c1-.9 4.2-1.4 6.5-1.4 3 0 5.5.8 7.2 2.3 1.7 1.6 2.7 3.7 2.7 6.4 0 1.6-.3 3-1 4.1-.7 1.1-1.7 2.1-3.2 2.9 1.3.5 2.2 1.1 2.8 1.8.6.7 1 1.6 1.4 2.6.3 1 .5 2.1.5 3.3-.2 2.9-1.2 5.2-3.1 7.1zM75 80h-5V48h5v32zm6 20.9V84.6c0-2.3 3.3-3.6 5.5-3.6H102l-21 19.9zM102 37H17V17h85v20z"/></svg>