<svg xmlns="http://www.w3.org/2000/svg" width="16" height="16" viewBox="0 0 16 16"><path d="M8 0a8 8 0 1 0 0 16A8 8 0 0 0 8 0zM5.768 13.383c-1.77 0-3.265-.72-3.265-1.873 0-1.17 1.363-2.298 3.134-2.297l.553-.005c-.242-.235-.434-.524-.434-.88 0-.213.068-.416.162-.597l-.295.01c-1.455 0-2.43-1.034-2.43-2.317 0-1.255 1.346-2.338 2.776-2.338h3.19l-.717.516h-1.01c.67.26 1.027 1.04 1.027 1.843 0 .673-.373 1.253-.9 1.665-.515.403-.612.57-.612.913 0 .293.552.79.84.994.843.596 1.114 1.15 1.114 2.072 0 1.152-1.115 2.297-3.134 2.297zM12 7.02v1.996h-1V7.02H9V6h2V4h1v2h2v1.02h-2z"/><path d="M6.77 9.64a2.68 2.68 0 0 0-.795-.13c-1.224-.012-2.32.747-2.32 1.66 0 .932.884 1.706 2.108 1.706 1.72 0 2.32-.728 2.32-1.658 0-.112-.014-.222-.04-.33-.133-.527-.61-.788-1.274-1.25zM7.314 5.505C7.172 4.427 6.39 3.56 5.57 3.535c-.82-.023-1.372.802-1.23 1.882.142 1.08.923 1.974 1.745 1.998.82.025 1.372-.83 1.23-1.91z"/></svg>