<svg xmlns="http://www.w3.org/2000/svg" viewBox="387 312 30 35"><path fill="#333" d="M413 326.6c-1.7-.7-3.1-.6-4.4.1l-5.5-9.6c.6-.4 1.1-.9 1.3-1.7.2-.7.1-1.4-.3-2.1-.4-.6-.9-1.1-1.7-1.3-.7-.2-1.4-.1-2.1.3l-11.9 6.9c-.6.4-1.1.9-1.3 1.7-.2.7-.1 1.4.3 2.1.4.6.9 1.1 1.7 1.3.7.2 1.4.1 2.1-.3l5.5 9.6c-1.2.7-2 2-2.3 3.8-.3 1.8 0 3.4.9 5 .2.3.5.5.8.6s.7.1 1-.1l7.5-4.4 6.6 8.2c.3.3.6.4.9.2.1-.1.2-.2.3-.4v-.5l-4.3-9.6 8-4.6c.3-.2.5-.5.6-.8.1-.4.1-.7-.1-1-.7-1.6-2-2.7-3.6-3.4zm-12.5 4c.1.2.1.3.1.5s-.2.3-.3.4c-.2.1-.3.1-.5.1s-.3-.2-.4-.3l-4.8-8.4c-.1-.2-.1-.3-.1-.5s.2-.3.3-.4c.2-.1.3-.1.5-.1s.3.2.4.3l4.8 8.4z"/></svg>