<svg xmlns="http://www.w3.org/2000/svg" viewBox="0 0 47.8 50"><path fill="#8CBDCF" d="M33.7 14.1c0 1.2-1 2.2-2.2 2.2H15.3c-1.2 0-2.2-1-2.2-2.2v-1c0-1.2 1-2.2 2.2-2.2h16.2c1.2 0 2.2 1 2.2 2.2v1zM33.7 24.9c0 1.2-1 2.2-2.2 2.2H15.3c-1.2 0-2.2-1-2.2-2.2v-1c0-1.2 1-2.2 2.2-2.2h16.2c1.2 0 2.2 1 2.2 2.2v1z"/><path fill="#8CBDCF" d="M45.8 0H2.5C1.4 0 0 .2 0 1.2v36.9c0 1 1.4 1 2.5 1H13l10 10.4c.7.7 1.9.5 2.6-.2l10-10.2h10.3c1 0 2 .1 2-1V1.2c-.1-1-1-1.2-2.1-1.2zm-3.4 34.8h-9.1l-9 9-9-9H6.5V5.4h35.9v29.4z"/></svg>