<svg xmlns="http://www.w3.org/2000/svg" width="43.287" height="39.917" viewBox="373.5 268.501 43.287 39.917"><path fill="#567E87" d="M375.94 301.173a13.725 13.725 0 0 1-2.44-7.823c0-7.615 6.174-13.79 13.79-13.79 7.613 0 13.787 6.175 13.787 13.79 0 7.612-6.174 13.786-13.788 13.786-2.143 0-4.16-.503-5.97-1.372-3.527 1.208-7.82 2.654-7.82 2.654l2.44-7.245z"/><path fill="#ACBCC0" d="M413.734 295.516a17.133 17.133 0 0 0 3.053-9.78c0-9.52-7.717-17.234-17.234-17.234-9.517 0-17.233 7.716-17.233 17.233 0 9.52 7.716 17.232 17.233 17.232 2.678 0 5.2-.628 7.46-1.716 4.41 1.512 9.774 3.32 9.774 3.32l-3.053-9.054z"/></svg>