<svg xmlns="http://www.w3.org/2000/svg" width="47.654" height="47.654" viewBox="375.895 275.936 47.654 47.654"><path fill="#567E87" d="M399.722 275.936c-13.16 0-23.827 10.668-23.827 23.827 0 13.16 10.668 23.827 23.827 23.827 13.16 0 23.827-10.668 23.827-23.827 0-13.16-10.67-23.827-23.828-23.827zM389 310h-5v-15h5v15zm24.883-11.145c1.076 1.508.35 2.225.35 3.086 0-.43-.81.792-.78 1.224.106 1.617 0 2.693-1.077 3.662-1.078.97.04 1.836-1.94 3.34-1.29.982-14.24 2.6-17.45-1.83-1.13-1.563-1.255-7.648-.77-10.61.653-4.003 8.525-5.71 9.496-12.658.51-3.652 3.985-3.662 3.985 0 0 3.663-3.824 7.648-1.562 7.648 2.263 0 10.396.323 10.396 2.908s-.985 2.76-.647 3.23z"/></svg>