<svg xmlns="http://www.w3.org/2000/svg" width="44" height="53.923" viewBox="377.999 273.086 44 53.923"><path fill="#567E87" d="M419.616 283H414v-1.893s-3.797-.3-5.59-1.89c-2.758-2.454-3.28-6.13-8.973-6.13-5.69 0-5.687 3.676-8.446 6.13-1.79 1.59-4.99 1.89-4.99 1.89V283h-6.093c-1.4 0-1.908 1.687-1.908 3.085v39.71c0 1.4.507 1.205 1.907 1.205h30.075c3.835-4 10.017-8.073 12.017-10.886v-30.03c0-1.397-.984-3.084-2.384-3.084zM391 318h-6v-5h6v5zm0-9h-6v-5h6v5zm0-9h-6v-5h6v5zm8.542-22.953a4.572 4.572 0 1 1 0 9.144 4.572 4.572 0 0 1 0-9.143zM393 304h10v5h-10v-5zm16 14h-16v-5h16v5zm-16-18v-5h24v5h-24z"/></svg>