<svg xmlns="http://www.w3.org/2000/svg" viewBox="200 0 560 560"><path fill="#4FA2D4" d="M479.5-.5c-154.4 0-280 125.6-280 280s125.6 280 280 280 280-125.6 280-280-125.6-280-280-280zm124.9 215.9c.1 2.8.2 5.6.2 8.4 0 85.2-64.8 183.3-183.4 183.3-36.4 0-70.3-10.7-98.8-29 5 .6 10.2.9 15.4.9 30.2 0 58-10.3 80-27.6-28.2-.5-52-19.2-60.2-44.8 3.9.8 8 1.2 12.1 1.2 5.9 0 11.6-.8 17-2.3-29.5-5.9-51.7-32-51.7-63.2v-.8c8.7 4.8 18.6 7.7 29.2 8.1-17.3-11.5-28.7-31.3-28.7-53.6 0-11.8 3.2-22.9 8.7-32.4 31.8 39 79.3 64.6 132.8 67.4-1.1-4.7-1.7-9.6-1.7-14.7 0-35.6 28.8-64.4 64.4-64.4 18.5 0 35.3 7.8 47 20.3 14.7-2.9 28.5-8.2 40.9-15.6-4.8 15.1-15 27.7-28.4 35.7 13-1.6 25.5-5 37-10.1-8.3 12.8-19.2 24.2-31.8 33.2z"/></svg>