<svg xmlns="http://www.w3.org/2000/svg" width="100" height="100" viewBox="0 0 100 100"><path d="M50 1.125C23.008 1.125 1.125 23.007 1.125 50S23.008 98.875 50 98.875 98.875 76.993 98.875 50 76.992 1.125 50 1.125zM84.553 33.92c-.306 6.734-5.014 15.96-14.11 27.666-9.402 12.228-17.36 18.344-23.872 18.344-4.028 0-7.44-3.723-10.228-11.173-1.86-6.828-3.724-13.65-5.584-20.48-2.067-7.445-4.287-11.173-6.663-11.173-.516 0-2.33 1.09-5.43 3.26L15.41 36.17c3.41-2.997 6.78-6 10.093-9.006 4.555-3.933 7.97-6.004 10.252-6.214 5.383-.517 8.697 3.167 9.94 11.044 1.345 8.504 2.274 13.793 2.796 15.86 1.55 7.056 3.26 10.58 5.122 10.58 1.45 0 3.627-2.292 6.526-6.863 2.897-4.577 4.45-8.06 4.658-10.448.413-3.95-1.14-5.93-4.657-5.93-1.658 0-3.366.378-5.12 1.135 3.4-11.138 9.894-16.55 19.484-16.245 7.11.21 10.458 4.822 10.05 13.838z"/></svg>