<svg xmlns="http://www.w3.org/2000/svg" width="100" height="100" viewBox="0 0 100 100"><path d="M26.8 53.607h3.876V74.58h3.666V53.607h3.947v-3.435H26.8zM57.8 56.17c-1.213 0-2.344.663-3.407 1.973V50.17h-3.295v24.41h3.295v-1.762c1.102 1.36 2.233 2.013 3.406 2.013 1.31 0 2.192-.69 2.632-2.043.22-.77.334-1.983.334-3.665V61.88c0-1.722-.113-2.924-.334-3.656-.44-1.363-1.322-2.053-2.633-2.053zm-.33 13.21c0 1.643-.483 2.454-1.435 2.454-.54 0-1.092-.26-1.643-.81V59.938c.55-.545 1.102-.803 1.643-.803.95 0 1.434.84 1.434 2.482v7.76zM44.95 70.292c-.732 1.033-1.423 1.542-2.085 1.542-.44 0-.69-.26-.77-.77-.03-.108-.03-.51-.03-1.282v-13.39h-3.297v14.38c0 1.284.11 2.153.29 2.705.332.92 1.064 1.353 2.124 1.353 1.213 0 2.457-.732 3.767-2.234v1.984h3.297V56.393H44.95v13.9zM47.778 39.59c1.073 0 1.588-.85 1.588-2.55v-7.73c0-1.702-.515-2.55-1.588-2.55-1.074 0-1.59.85-1.59 2.55v7.73c0 1.7.516 2.55 1.59 2.55z"/><path d="M50 1.125C23.007 1.125 1.125 23.007 1.125 50S23.007 98.875 50 98.875 98.875 76.993 98.875 50 76.993 1.125 50 1.125zm5.436 22.86h3.32v13.532c0 .78 0 1.186.04 1.295.074.516.336.78.782.78.666 0 1.365-.516 2.103-1.56V23.986h3.332v18.38h-3.33V40.36c-1.327 1.52-2.59 2.257-3.805 2.257-1.073 0-1.813-.435-2.146-1.365-.183-.557-.295-1.436-.295-2.733V23.984zm-12.578 5.993c0-1.965.334-3.4 1.042-4.33.92-1.257 2.218-1.885 3.878-1.885 1.668 0 2.964.628 3.885 1.885.7.928 1.033 2.365 1.033 4.33v6.436c0 1.954-.334 3.403-1.033 4.322-.92 1.254-2.217 1.88-3.885 1.88-1.66 0-2.957-.626-3.878-1.88-.708-.92-1.042-2.37-1.042-4.322v-6.436zM33.952 17.7l2.622 9.686 2.52-9.685h3.734l-4.443 14.676v9.99h-3.692v-9.99c-.335-1.77-1.074-4.363-2.26-7.803-.777-2.29-1.588-4.585-2.366-6.872h3.885zm42.36 58.486c-.67 2.9-3.04 5.04-5.895 5.358-6.762.755-13.604.76-20.42.755-6.813.003-13.658 0-20.42-.756-2.854-.32-5.226-2.458-5.892-5.358-.95-4.13-.95-8.638-.95-12.89 0-4.252.01-8.76.96-12.89.668-2.9 3.038-5.04 5.893-5.358 6.762-.755 13.606-.76 20.42-.755 6.814-.004 13.658 0 20.42.755 2.855.32 5.227 2.458 5.895 5.358.95 4.13.942 8.638.942 12.89 0 4.252-.004 8.76-.954 12.89z"/><path d="M68.295 56.17c-1.685 0-2.995.62-3.947 1.865-.7.92-1.018 2.342-1.018 4.286v6.37c0 1.934.357 3.367 1.058 4.278.952 1.242 2.265 1.863 3.99 1.863 1.72 0 3.07-.65 3.983-1.97.4-.584.66-1.246.77-1.975.032-.33.07-1.06.07-2.124v-.48h-3.36c0 1.322-.043 2.054-.073 2.233-.188.88-.66 1.322-1.472 1.322-1.132 0-1.685-.84-1.685-2.523v-3.225h6.59V62.32c0-1.943-.328-3.365-1.02-4.285-.92-1.244-2.23-1.864-3.885-1.864zm1.612 7.173H66.61V61.66c0-1.682.554-2.523 1.655-2.523 1.09 0 1.642.84 1.642 2.523v1.683z"/></svg>