<?xml version="1.0" encoding="utf-8"?>
<!-- Generator: Adobe Illustrator 18.1.1, SVG Export Plug-In . SVG Version: 6.00 Build 0)  -->
<!DOCTYPE svg PUBLIC "-//W3C//DTD SVG 1.1//EN" "http://www.w3.org/Graphics/SVG/1.1/DTD/svg11.dtd">
<svg version="1.1" id="Layer_1" xmlns="http://www.w3.org/2000/svg" xmlns:xlink="http://www.w3.org/1999/xlink" x="0px" y="0px"
	 viewBox="0 0 43.8 50" enable-background="new 0 0 43.8 50" xml:space="preserve">
<path fill="#8FBDCF" d="M43.8,1.8C43.8,0.8,43,0,42,0H1.8C0.8,0,0,0.8,0,1.8v46.4c0,1,0.8,1.8,1.8,1.8H42c1,0,1.8-0.8,1.8-1.8V1.8z
	 M38.6,44.8H5.2V6.2h33.4L38.6,44.8z M31.3,15.1c0,1.2-1,2.2-2.2,2.2H14.7c-1.2,0-2.2-1-2.2-2.2v-0.8c0-1.2,1-2.2,2.2-2.2h14.4
	c1.2,0,2.2,1,2.2,2.2V15.1z M31.3,25.5c0,1.2-1,2.2-2.2,2.2H14.7c-1.2,0-2.2-1-2.2-2.2v-1c0-1.2,1-2.2,2.2-2.2h14.4
	c1.2,0,2.2,1,2.2,2.2V25.5z M31.3,35.7c0,1.2-1,2.2-2.2,2.2H14.7c-1.2,0-2.2-1-2.2-2.2v-0.8c0-1.2,1-2.2,2.2-2.2h14.4
	c1.2,0,2.2,1,2.2,2.2V35.7z"/>
</svg>
