<?xml version="1.0" encoding="utf-8"?>
<!-- Generator: Adobe Illustrator 18.1.1, SVG Export Plug-In . SVG Version: 6.00 Build 0)  -->
<!DOCTYPE svg PUBLIC "-//W3C//DTD SVG 1.1//EN" "http://www.w3.org/Graphics/SVG/1.1/DTD/svg11.dtd">
<svg version="1.1" id="Layer_1" xmlns="http://www.w3.org/2000/svg" xmlns:xlink="http://www.w3.org/1999/xlink" x="0px" y="0px"
	 viewBox="0 0 120 120" enable-background="new 0 0 120 120" xml:space="preserve">
<g>
	<path fill="#1A6498" d="M12.4,102C5.1,95.1,0.5,85.4,0.5,74.7C0.5,54,17.3,37.2,38,37.2c20.7,0,37.4,16.8,37.4,37.4
		c0,20.7-16.8,37.4-37.4,37.4c-6.5,0-12.6-1.7-17.9-4.6l-3.4,3.5l-5.8,2.5L12.4,102z"/>
	<path fill="#2283C5" d="M17.2,100.1C9.9,93.2,5.3,83.5,5.3,72.7c0-20.7,16.8-37.4,37.4-37.4c20.7,0,37.4,16.8,37.4,37.4
		c0,20.7-16.8,37.4-37.4,37.4c-6.5,0-12.6-1.7-17.9-4.6l-9.2,6.1L17.2,100.1z"/>
	<path fill="#A29F95" d="M100.8,92.1c9.2-8.6,14.9-20.7,14.9-34.2c0-25.9-21-46.9-46.9-46.9C43,11,22,32,22,57.9
		c0,25.9,21,46.9,46.9,46.9c8.2,0,15.8-2.1,22.5-5.7l11.5,7.6l2.8-5.5L100.8,92.1z"/>
	<path fill="#D9D7CF" d="M103.6,86.6c9.2-8.6,14.9-20.7,14.9-34.2c0-25.9-21-46.9-46.9-46.9c-25.9,0-46.9,21-46.9,46.9
		c0,25.9,21,46.9,46.9,46.9c8.2,0,15.8-2.1,22.5-5.7l11.5,7.6L103.6,86.6z"/>
	<path opacity="0.62" fill="#A29F95" d="M56.3,51.3c-0.3,0.8-24.4,24.4-24.4,24.4s-3.4,3.9,0,6.8l4.2,4l31.1-31.1"/>
	<path opacity="0.62" fill="#A29F95" d="M75.4,51.3c-0.3,0.8-34,34-34,34s-3.4,3.9,0,6.8l4.2,4l40.6-40.6"/>
	<circle fill="#82807C" cx="60.9" cy="53.3" r="5"/>
	<circle fill="#82807C" cx="80" cy="53.3" r="5"/>
	<circle fill="#FFFFFF" cx="62.8" cy="52.4" r="5"/>
	<circle fill="#FFFFFF" cx="81.9" cy="52.4" r="5"/>
</g>
</svg>
