<?xml version="1.0" encoding="utf-8"?>
<!-- Generator: Adobe Illustrator 18.1.1, SVG Export Plug-In . SVG Version: 6.00 Build 0)  -->
<!DOCTYPE svg PUBLIC "-//W3C//DTD SVG 1.1//EN" "http://www.w3.org/Graphics/SVG/1.1/DTD/svg11.dtd">
<svg version="1.1" id="Layer_1" xmlns="http://www.w3.org/2000/svg" xmlns:xlink="http://www.w3.org/1999/xlink" x="0px" y="0px"
	 viewBox="0 0 1000 1000" enable-background="new 0 0 1000 1000" xml:space="preserve">
<g>
	<path fill="#567E87" d="M572,418V239.8c0-11.8-12.8-19.8-24.7-19.8h-96.3c-11.8,0-23.1,8-23.1,19.8V418H304.6
		c0.9,0,2.7,8.8,5.5,11.6l174,174.9c8.4,8.3,21.9,8.8,30.2,0.4l174-175.5c2.8-2.8,4.6-11.4,5.5-11.4H572z"/>
	<path fill="#567E87" d="M793.4,617H618.9l-89.6,83.7c-10.7,10.7-28.1,13.4-38.8,2.7L401.2,617H205c-11.8,0-12-4-12,7.8v139.1
		c0,11.8,0.2,16.1,12,16.1h588.3c11.8,0,13.6-4.3,13.6-16.1V624.8C807,613,805.2,617,793.4,617z M626.2,737.1
		c-23.8,0-43.2-19.3-43.2-43.2c0-23.8,19.3-43.1,43.2-43.1c23.8,0,43.2,19.3,43.2,43.1C669.3,717.8,650,737.1,626.2,737.1z
		 M732.4,737.1c-23.8,0-43.2-19.3-43.2-43.2c0-23.8,19.3-43.1,43.2-43.1c23.8,0,43.2,19.3,43.2,43.1
		C775.5,717.8,756.2,737.1,732.4,737.1z"/>
</g>
</svg>
