<?xml version="1.0" encoding="utf-8"?>
<!-- Generator: Adobe Illustrator 18.1.1, SVG Export Plug-In . SVG Version: 6.00 Build 0)  -->
<!DOCTYPE svg PUBLIC "-//W3C//DTD SVG 1.1//EN" "http://www.w3.org/Graphics/SVG/1.1/DTD/svg11.dtd">
<svg version="1.1" id="Layer_1" xmlns="http://www.w3.org/2000/svg" xmlns:xlink="http://www.w3.org/1999/xlink" x="0px" y="0px"
	 viewBox="0 0 120 120" enable-background="new 0 0 120 120" xml:space="preserve">
<g>
	<path fill="#1A6498" d="M95.2,101.2c10.5-9.8,17.1-23.8,17.1-39.3c0-29.7-24.1-53.8-53.8-53.8S4.7,32.3,4.7,62
		c0,29.7,24.1,53.8,53.8,53.8c9.4,0,18.1-2.4,25.8-6.6l13.2,8.7l3.2-6.4L95.2,101.2z"/>
	<path fill="#2283C5" d="M98.4,94.9c10.5-9.8,17.1-23.8,17.1-39.3c0-29.7-24.1-53.8-53.8-53.8C32,1.8,7.9,25.9,7.9,55.6
		c0,29.7,24.1,53.8,53.8,53.8c9.4,0,18.1-2.4,25.8-6.6l13.2,8.7L98.4,94.9z"/>
	<path opacity="0.68" fill="#1A6498" d="M63.2,78.9c2.7-14.6-3.1-20,3.4-23.2c2.6-1.3,6.8-5,7.5-9.1l2-5.8l-6.9-7.5l-4-3.5L61.3,30
		c-0.2-0.9,0.6-0.5,0,0c-5.7,5-8.4,0.3-8.4,0.3L7.9,67.1c0,0,0.3,7.4,12.4,22.9c12.1,15.5,18.8,14.8,18.8,14.8l26.6-23.1
		C69.3,73.6,62.3,83.9,63.2,78.9z"/>
	<g>
		<path fill="#1A6498" d="M42.7,45.3c0-2.3,0.7-4.6,2.2-6.9c1.5-2.3,3.6-4.3,6.4-5.8c2.8-1.5,6.1-2.3,9.8-2.3c3.5,0,6.5,0.6,9.2,1.9
			c2.7,1.3,4.7,3,6.2,5.2c1.4,2.2,2.2,4.6,2.2,7.2c0,2-0.4,3.8-1.2,5.4c-0.8,1.5-1.8,2.9-2.9,4c-1.1,1.1-3.2,3-6.1,5.6
			c-0.8,0.7-1.5,1.4-2,2c-0.5,0.6-0.9,1.1-1.1,1.5c-0.2,0.5-0.4,0.9-0.6,1.4c-0.1,0.5-0.3,1.3-0.6,2.5c-0.5,2.5-1.9,3.7-4.3,3.7
			c-1.2,0-2.3-0.4-3.1-1.2c-0.9-0.8-1.3-2-1.3-3.6c0-2,0.3-3.8,0.9-5.2c0.6-1.5,1.4-2.8,2.5-3.9c1-1.1,2.4-2.4,4.2-4
			c1.5-1.3,2.6-2.4,3.3-3c0.7-0.7,1.3-1.4,1.7-2.3c0.5-0.8,0.7-1.7,0.7-2.7c0-1.9-0.7-3.5-2.1-4.9c-1.4-1.3-3.3-2-5.5-2
			c-2.6,0-4.6,0.7-5.8,2c-1.2,1.3-2.3,3.3-3.2,5.9c-0.8,2.7-2.4,4.1-4.6,4.1c-1.3,0-2.5-0.5-3.4-1.4C43.2,47.5,42.7,46.4,42.7,45.3z
			 M60.3,84.7c-1.5,0-2.7-0.5-3.8-1.4c-1.1-0.9-1.6-2.3-1.6-4c0-1.5,0.5-2.8,1.6-3.8c1.1-1,2.3-1.5,3.9-1.5c1.5,0,2.8,0.5,3.8,1.5
			c1,1,1.5,2.3,1.5,3.8c0,1.7-0.5,3-1.6,4C62.9,84.2,61.7,84.7,60.3,84.7z"/>
	</g>
	<g>
		<path fill="#FFFFFF" stroke="#1A6498" stroke-miterlimit="10" d="M44.4,43.6c0-2.3,0.7-4.6,2.2-6.9c1.5-2.3,3.6-4.3,6.4-5.8
			c2.8-1.5,6.1-2.3,9.8-2.3c3.5,0,6.5,0.6,9.2,1.9c2.7,1.3,4.7,3,6.2,5.2c1.5,2.2,2.2,4.6,2.2,7.2c0,2-0.4,3.8-1.2,5.4
			c-0.8,1.5-1.8,2.9-2.9,4c-1.1,1.1-3.2,3-6.1,5.6c-0.8,0.7-1.5,1.4-2,2c-0.5,0.6-0.9,1.1-1.1,1.5c-0.2,0.5-0.4,0.9-0.6,1.4
			c-0.1,0.5-0.3,1.3-0.6,2.5C65.4,67.8,64,69,61.6,69c-1.2,0-2.3-0.4-3.1-1.2c-0.9-0.8-1.3-2-1.3-3.6c0-2,0.3-3.8,0.9-5.2
			c0.6-1.5,1.4-2.8,2.5-3.9c1-1.1,2.4-2.4,4.2-4c1.5-1.3,2.6-2.4,3.3-3c0.7-0.7,1.3-1.4,1.7-2.3c0.5-0.8,0.7-1.7,0.7-2.7
			c0-1.9-0.7-3.5-2.1-4.9c-1.4-1.3-3.3-2-5.5-2c-2.6,0-4.6,0.7-5.8,2c-1.2,1.3-2.3,3.3-3.2,5.9c-0.8,2.7-2.4,4.1-4.6,4.1
			c-1.3,0-2.5-0.5-3.4-1.4C44.9,45.8,44.4,44.7,44.4,43.6z M62,83c-1.5,0-2.7-0.5-3.8-1.4c-1.1-0.9-1.6-2.3-1.6-4
			c0-1.5,0.5-2.8,1.6-3.8c1.1-1,2.3-1.5,3.9-1.5c1.5,0,2.8,0.5,3.8,1.5c1,1,1.5,2.3,1.5,3.8c0,1.7-0.5,3-1.6,4
			C64.6,82.6,63.4,83,62,83z"/>
	</g>
</g>
</svg>
