<?xml version="1.0" encoding="utf-8"?>
<!-- Generator: Adobe Illustrator 18.1.1, SVG Export Plug-In . SVG Version: 6.00 Build 0)  -->
<!DOCTYPE svg PUBLIC "-//W3C//DTD SVG 1.1//EN" "http://www.w3.org/Graphics/SVG/1.1/DTD/svg11.dtd">
<svg version="1.1" id="Layer_1" xmlns="http://www.w3.org/2000/svg" xmlns:xlink="http://www.w3.org/1999/xlink" x="0px" y="0px"
	 viewBox="0 0 120 120" enable-background="new 0 0 120 120" xml:space="preserve">
<path fill="#72726F" d="M96.4,97.9c10.5-9.8,17.1-23.8,17.1-39.3c0-29.7-24.1-53.8-53.8-53.8C30,4.8,5.9,28.9,5.9,58.6
	c0,29.7,24.1,53.8,53.8,53.8c9.4,0,18.1-2.4,25.8-6.6l13.2,8.7L96.4,97.9z"/>
<g>
	<path fill="#FFFFFF" d="M65.6,49.6c0.1,3.5,0.1,9.7,0.1,18.6l-0.1,8c0,1.6,0.3,2.7,0.8,3.2c0.5,0.5,1.4,0.9,2.6,1.1
		c1.4,0.2,2.1,0.6,2.1,1.2c0,0.7-0.5,1-1.6,1c-0.5,0-1.4,0-2.7-0.1c-2.7-0.2-5.4-0.3-8.1-0.3c-1.3,0-2.7,0.1-4,0.2
		c-0.8,0.1-1.4,0.2-1.7,0.2c-1.1,0-1.6-0.3-1.6-1c0-0.6,0.7-1,2.2-1.2c1.9-0.2,3-0.8,3.2-1.9c0.2-1.1,0.3-3.3,0.3-6.7
		c0-4.4-0.1-8.4-0.2-12c-0.1-3.7-0.4-5.8-0.8-6.3c-0.4-0.5-1.3-0.9-2.9-1c-1.2-0.1-1.8-0.5-1.8-1.1c0-0.6,0.6-0.9,1.9-1l0.8-0.1
		L65.6,49.6z M65.1,37.1c0,1.5-0.5,2.7-1.6,3.8c-1.1,1.1-2.3,1.6-3.8,1.6c-1.5,0-2.8-0.5-3.8-1.6c-1-1.1-1.6-2.3-1.6-3.8
		c0-1.5,0.5-2.8,1.6-3.8c1-1,2.3-1.6,3.8-1.6c1.5,0,2.7,0.5,3.8,1.6C64.5,34.3,65.1,35.6,65.1,37.1z"/>
</g>
</svg>
