<?xml version="1.0" encoding="utf-8"?>
<!-- Generator: Adobe Illustrator 18.1.1, SVG Export Plug-In . SVG Version: 6.00 Build 0)  -->
<!DOCTYPE svg PUBLIC "-//W3C//DTD SVG 1.1//EN" "http://www.w3.org/Graphics/SVG/1.1/DTD/svg11.dtd">
<svg version="1.1" id="Layer_1" xmlns="http://www.w3.org/2000/svg" xmlns:xlink="http://www.w3.org/1999/xlink" x="0px" y="0px"
	 viewBox="0 0 30 30" enable-background="new 0 0 30 30" xml:space="preserve">
<g>
	<polygon fill="#557D86" points="26.1,18.7 25.7,18.8 26.1,18.7 	"/>
	<path fill="#557D86" d="M28.1,18.2l-18-18l0,0c0,0,0,0,0,0C9.3-0.6,6.4,1,3.7,3.7C1,6.4-0.6,9.3,0.2,10.1c0,0,0,0,0,0l0,0l4,4
		c0,0,0,0,0,0l13.8,13.9L30,29.9L28.1,18.2z M11.3,3.8C7.6,6,4.6,9.4,3.7,11.1C1.2,7.9,8.3,1.6,11.3,3.8z M5.7,13.1l-1.5-1.4
		c1-1.4,4.2-5.7,7.8-7.2l1.8,1.8c0,0-1.1,0-4.6,3.3C6.7,11.9,5.7,13.1,5.7,13.1z M25.3,27.5l-6.7-0.9l1.8-5.7l5.3-2l-5.9,1L9.8,10
		c0,0,3.9-3.6,4.7-3l11.6,11.7l0.3-0.1l1.2,6.7L25.3,27.5z"/>
</g>
</svg>
