<?xml version="1.0" encoding="utf-8"?>
<!-- Generator: Adobe Illustrator 18.1.1, SVG Export Plug-In . SVG Version: 6.00 Build 0)  -->
<!DOCTYPE svg PUBLIC "-//W3C//DTD SVG 1.1//EN" "http://www.w3.org/Graphics/SVG/1.1/DTD/svg11.dtd">
<svg version="1.1" id="Layer_1" xmlns="http://www.w3.org/2000/svg" xmlns:xlink="http://www.w3.org/1999/xlink" x="0px" y="0px"
	 viewBox="0 0 120 120" enable-background="new 0 0 120 120" xml:space="preserve">
<g>
	<path fill="#557D86" d="M54.2,109C54.3,109,54.3,109,54.2,109c5.7,0,9.4,5,9.3,10H82c0,0,0-7-6.5-7c-8.7,0-10.4-7.8-8.9-9.7
		c5.5-7.2,7.4-25.9-5.2-26.2c-12.6,0.4-11.3,19.1-5.8,26.3C56.4,103.5,56.2,107,54.2,109z"/>
	<path fill="#557D86" d="M40.1,119.7C40.1,119.8,40.1,119.8,40.1,119.7l0.8,0.1L40.1,119.7z"/>
</g>
<path fill="#557D86" d="M53,110.6c-10.4,0-12.4-9.3-10.6-11.6c6.6-8.6,8.8-30.8-6.2-31.2c-15,0.4-13.4,22.8-6.9,31.4
	c1.7,2.3-0.2,11.4-10.6,11.4c-7.8,0-7.8,8.4-7.8,8.4h26.6h23.3C60.7,119,60.7,110.6,53,110.6z"/>
<g>
	<path fill="#557D86" d="M66.1,0H10.2C8.7,0,8,0.8,8,2.3V59c0,1.5,0.7,3,2.2,3h6.5l5.5,10.9L28.7,62H66c1.5,0,2.9-1.5,2.9-3V2.3
		C69,0.8,67.6,0,66.1,0z"/>
	<path fill="#557D86" stroke="#FFFFFF" stroke-width="3" stroke-miterlimit="10" d="M73.2,73.2c-9.6-0.9-18.8-5.5-25.1-13.7
		c-12.2-15.6-9.4-38.2,6.2-50.4C70-3,92.5-0.2,104.7,15.4s9.4,38.2-6.2,50.4C93.6,69.7,88,72,82.2,72.9l-3.4,10L73.2,73.2z"/>
</g>
</svg>
