<?xml version="1.0" encoding="utf-8"?>
<!-- Generator: Adobe Illustrator 18.1.1, SVG Export Plug-In . SVG Version: 6.00 Build 0)  -->
<!DOCTYPE svg PUBLIC "-//W3C//DTD SVG 1.1//EN" "http://www.w3.org/Graphics/SVG/1.1/DTD/svg11.dtd">
<svg version="1.1" id="Layer_1" xmlns="http://www.w3.org/2000/svg" xmlns:xlink="http://www.w3.org/1999/xlink" x="0px" y="0px"
	 viewBox="0 0 120 120" enable-background="new 0 0 120 120" xml:space="preserve">
<g>
	<g>
		<path fill="#72726F" d="M51.4,109C51.4,109,51.4,109,51.4,109c5.1,0,8.3,4,8.3,10h16.4c0,0,0-6.8-5.8-6.8c-7.8,0-9.3-7.2-8-8.9
			c4.9-6.4,6.6-23.2-4.6-23.5c-11.2,0.3-10.1,17-5.1,23.4C53.3,104.2,53.1,107,51.4,109z"/>
		<path fill="#72726F" d="M38.8,118.5c0,0.1,0,0.1,0,0.1h0.7L38.8,118.5z"/>
	</g>
	<path fill="#72726F" d="M50.3,111c-9.3,0-11-8.5-9.5-10.6c5.9-7.6,7.8-27.6-5.5-28c-13.3,0.4-12,20.3-6.1,27.9
		c1.6,2-0.2,10.6-9.5,10.6c-6.9,0-6.9,8-6.9,8h23.7h20.7C57.2,119,57.2,111,50.3,111z"/>
	<g opacity="0.9">
		<path fill="#1A6498" d="M69.5,79.6c-8.5-0.8-16.7-4.9-22.4-12.2c-10.9-13.9-8.4-34,5.6-44.9c13.9-10.9,34-8.4,44.9,5.6
			c10.9,13.9,8.4,34-5.6,44.9c-4.4,3.4-9.4,5.5-14.5,6.3L77,83.5l-2.5,4.7L69.5,79.6z"/>
		<path fill="#2283C5" d="M71.7,75.8C63.2,75,55,70.9,49.3,63.6c-10.9-13.9-8.4-34,5.6-44.9c13.9-10.9,34-8.4,44.9,5.6
			c10.9,13.9,8.4,34-5.6,44.9c-4.4,3.4-9.4,5.5-14.5,6.3l-3,8.9L71.7,75.8z"/>
		<path fill="#FFFFFF" d="M76,19c14.8,0,26.8,12,26.8,26.8c0,1.1,0.8,1.1,0.8-4.1c0-14.8-12-26.8-26.8-26.8
			c-13.7,0-25,10.3-26.6,23.6C53.5,27.3,63.8,19,76,19z"/>
	</g>
	<g opacity="0.9">
		<path fill="#1A6498" d="M59.6,5.4L13.5,1.3C13.5,1.3,7,5,7,7.9v50.6C7,59.8,8.5,61,9.8,61h5.8l4.9,9.6l6.2-5L26.3,61h33.3
			c3.1,1,8.2-3.8,8.2-5.2L62,7.9C62,6.6,60.9,5.4,59.6,5.4z"/>
		<path fill="#2283C5" d="M65.3,2H15.5C14.2,2,12,2.4,12,3.8v50.6c0,1.4,2.2,2.6,3.5,2.6h5.8l4.9,9.7L32,57h33.3
			c1.4,0,2.7-1.3,2.7-2.6V3.8C68,2.4,66.6,2,65.3,2z"/>
	</g>
</g>
</svg>
