<?xml version="1.0" encoding="utf-8"?>
<!-- Generator: Adobe Illustrator 18.1.1, SVG Export Plug-In . SVG Version: 6.00 Build 0)  -->
<!DOCTYPE svg PUBLIC "-//W3C//DTD SVG 1.1//EN" "http://www.w3.org/Graphics/SVG/1.1/DTD/svg11.dtd">
<svg version="1.1" id="Layer_1" xmlns="http://www.w3.org/2000/svg" xmlns:xlink="http://www.w3.org/1999/xlink" x="0px" y="0px"
	 viewBox="0 46.2 1000 907.6" enable-background="new 0 46.2 1000 907.6" xml:space="preserve">
<g>
	<path fill="#567E87" d="M616.7,367.1V78.3c0-19.1-20.7-32.1-40-32.1H420.6c-19.1,0-37.4,13-37.4,32.1v288.8H183.3
		c1.5,0,4.4,14.3,8.9,18.8l282,283.5c13.6,13.5,35.5,14.3,48.9,0.6l282-284.4c4.5-4.5,7.5-18.5,8.9-18.5L616.7,367.1L616.7,367.1z"
		/>
	<path fill="#567E87" d="M975.6,689.6H692.7L547.5,825.3c-17.3,17.3-45.5,21.7-62.9,4.4l-144.7-140h-318c-19.1,0-19.4-6.5-19.4,12.6
		v225.4c0,19.1,0.3,26.1,19.4,26.1h953.5c19.1,0,22-7,22-26.1V702.3C997.6,683.1,994.7,689.6,975.6,689.6z M704.6,884.3
		c-38.6,0-70-31.3-70-70c0-38.6,31.3-69.9,70-69.9c38.6,0,70,31.3,70,69.9C774.4,853,743.1,884.3,704.6,884.3z M876.7,884.3
		c-38.6,0-70-31.3-70-70c0-38.6,31.3-69.9,70-69.9c38.6,0,70,31.3,70,69.9C946.6,853,915.3,884.3,876.7,884.3z"/>
</g>
</svg>
