<?xml version="1.0" encoding="utf-8"?>
<!-- Generator: Adobe Illustrator 18.1.1, SVG Export Plug-In . SVG Version: 6.00 Build 0)  -->
<!DOCTYPE svg PUBLIC "-//W3C//DTD SVG 1.1//EN" "http://www.w3.org/Graphics/SVG/1.1/DTD/svg11.dtd">
<svg version="1.1" id="Layer_1" xmlns="http://www.w3.org/2000/svg" xmlns:xlink="http://www.w3.org/1999/xlink" x="0px" y="0px"
	 viewBox="0 0 120 120" enable-background="new 0 0 120 120" xml:space="preserve">
<g>
	<path fill="#71716E" d="M81.5,69.7c-12.6,0-15-11.3-12.8-14c8-10.3,10.6-37.3-7.5-37.8c-18.1,0.5-16.2,27.6-8.3,37.9
		C55,58.5,52.6,70,40,70c-9.4,0-9.4,29.8-9.4,29.8s5.2,3.4,30.1,3.4c17,0,30.1-4.1,30.1-4.1S90.9,69.7,81.5,69.7z"/>
	<g>
		<path fill="#71716E" d="M31,77.3c-17.9,1.2-29.9,3.4-29.9,6c0,2.4,10.3,4.5,26,5.7C27.9,84.5,29.2,80.2,31,77.3z"/>
		<path fill="#71716E" d="M90.8,77.4c1.7,2.9,2.9,7.2,3.7,11.5c15.1-1.3,24.9-3.3,24.9-5.6C119.4,80.8,108,78.6,90.8,77.4z"/>
	</g>
	<path fill="#71716E" d="M83.1,67C83.1,67,83.1,67,83.1,67c4.3,0,7.6,2.8,9.5,6.6c10,1,18.1,2.4,23.5,4.2c-0.7-2.6-2.6-6-7.4-6
		c-10.6,0-12.6-9.7-10.8-12c6.7-8.7,8.9-31.4-6.3-31.8c-15.2,0.4-13.6,22.7-7,31.4C85.7,60.7,85.4,64,83.1,67z"/>
	<path fill="#71716E" d="M27.8,73.6c1.9-3.9,5.2-6.6,9.5-6.6c0,0,0,0,0,0c-2.4-3-2.6-6.3-1.6-7.6c6.7-8.7,8.2-30.8-7-31.3
		c-15.2,0.4-13,23.1-6.3,31.7c1.8,2.3-0.2,11.9-10.8,11.9c-4.8,0-6.7,3.5-7.4,6.1C9.7,76,17.8,74.7,27.8,73.6z"/>
</g>
</svg>
