<?xml version="1.0" encoding="utf-8"?>
<!-- Generator: Adobe Illustrator 18.1.1, SVG Export Plug-In . SVG Version: 6.00 Build 0)  -->
<!DOCTYPE svg PUBLIC "-//W3C//DTD SVG 1.1//EN" "http://www.w3.org/Graphics/SVG/1.1/DTD/svg11.dtd">
<svg version="1.1" id="Layer_1" xmlns="http://www.w3.org/2000/svg" xmlns:xlink="http://www.w3.org/1999/xlink" x="0px" y="0px"
	 viewBox="0 0 120 120" enable-background="new 0 0 120 120" xml:space="preserve">
<g>
	<path fill="#9B9A91" d="M114.5,88.8l-2-77.3c0-2.2-1.9-4-4.1-4l-97.6-5c-2.2,0-8.8,4.3-8.8,9v102c0,2.2,2.3,4.5,4.5,4.5h78.8
		C92.7,110.6,106.7,96.6,114.5,88.8z"/>
	<path fill="#DEDBCE" d="M117,86.3V5.5c0-2.2-1.3-3.5-3.5-3.5h-102C9.3,2,7,3.3,7,5.5v102c0,2.2,2.3,4.5,4.5,4.5h79.8
		C100,103.3,111.6,91.7,117,86.3z"/>
	<g>
		<path opacity="0.7" fill="#FFFFFF" d="M116.2,86H93.2c-1.7,0-3.2,1.4-3.2,3.2v23.1L116.2,86z"/>
	</g>
	<path fill="#942E2E" d="M108.5,6L9.2,2.5C7,2.5,2,7.5,2,9.8V40l5.2-3.6L112,29.5V9.8C112,7.5,110.7,6,108.5,6z M28.3,24.3
		c-3.6,0-6.5-2.9-6.5-6.5c0-3.6,2.9-6.5,6.5-6.5c3.6,0,6.5,2.9,6.5,6.5C34.8,21.4,31.9,24.3,28.3,24.3z M85.3,24.3
		c-3.6,0-6.5-2.9-6.5-6.5c0-3.6,2.9-6.5,6.5-6.5c3.6,0,6.5,2.9,6.5,6.5C91.8,21.4,88.9,24.3,85.3,24.3z"/>
	<path fill="#D14140" d="M113.5,2h-102C9.3,2,7,3.3,7,5.5V36h110V5.5C117,3.3,115.7,2,113.5,2z M33.3,20c-3.6,0-6.5-2.9-6.5-6.5
		c0-3.6,2.9-6.5,6.5-6.5c3.6,0,6.5,2.9,6.5,6.5C39.8,17.1,36.9,20,33.3,20z M90.3,20c-3.6,0-6.5-2.9-6.5-6.5c0-3.6,2.9-6.5,6.5-6.5
		c3.6,0,6.5,2.9,6.5,6.5C96.8,17.1,93.9,20,90.3,20z"/>
	<g>
		<path fill="#FFFFFF" d="M44,68.3h0.4c2.6,0,4.6-0.5,6-1.6c1.4-1.1,2.1-2.7,2.1-4.7c0-1.9-0.7-3.4-2-4.6c-1.3-1.2-3.1-1.8-5.3-1.8
			c-2.2,0-4.6,0.7-7.3,2.1v-5.8c2.5-1.2,5.1-1.8,8-1.8c3.9,0,6.9,1,9.2,3c2.2,2,3.4,4.8,3.4,8.3c0,2.1-0.4,3.9-1.3,5.4
			c-0.9,1.5-2.2,2.7-4.1,3.8c1.6,0.6,2.9,1.4,3.6,2.4c0.8,0.9,1.4,2.1,1.8,3.4c0.4,1.3,0.6,2.7,0.6,4.2c0,3.7-1.2,6.7-3.7,9.1
			c-2.5,2.4-5.5,3.6-9.3,3.6c-3.2,0-6.3-0.8-9.3-2.3v-6.6c3.2,2,6.3,3,9.3,3c2,0,3.7-0.6,4.9-1.8c1.2-1.2,1.9-2.8,1.9-4.8
			c0-1.7-0.5-3.1-1.5-4.4c-0.6-0.7-1.3-1.2-2-1.6c-0.7-0.3-2.3-0.6-4.7-1L44,73.8V68.3z"/>
		<path fill="#FFFFFF" d="M74.6,50.7h6v42.1h-6V50.7z"/>
	</g>
	<g>
		<path fill="#6C6B64" d="M42,66.3h0.4c2.6,0,4.6-0.5,6-1.6c1.4-1.1,2.1-2.7,2.1-4.7c0-1.9-0.7-3.4-2-4.6c-1.3-1.2-3.1-1.8-5.3-1.8
			c-2.2,0-4.6,0.7-7.3,2.1v-5.8c2.5-1.2,5.1-1.8,8-1.8c3.9,0,6.9,1,9.2,3c2.2,2,3.4,4.8,3.4,8.3c0,2.1-0.4,3.9-1.3,5.4
			c-0.9,1.5-2.2,2.7-4.1,3.8c1.6,0.6,2.9,1.4,3.6,2.4c0.8,0.9,1.4,2.1,1.8,3.4c0.4,1.3,0.6,2.7,0.6,4.2c0,3.7-1.2,6.7-3.7,9.1
			c-2.5,2.4-5.5,3.6-9.3,3.6c-3.2,0-6.3-0.8-9.3-2.3v-6.6c3.2,2,6.3,3,9.3,3c2,0,3.7-0.6,4.9-1.8c1.2-1.2,1.9-2.8,1.9-4.8
			c0-1.7-0.5-3.1-1.5-4.4c-0.6-0.7-1.3-1.2-2-1.6c-0.7-0.3-2.3-0.6-4.7-1L42,71.8V66.3z"/>
		<path fill="#6C6B64" d="M72.6,48.7h6v42.1h-6V48.7z"/>
	</g>
</g>
</svg>
