<?xml version="1.0" encoding="utf-8"?>
<!-- Generator: Adobe Illustrator 18.1.1, SVG Export Plug-In . SVG Version: 6.00 Build 0)  -->
<!DOCTYPE svg PUBLIC "-//W3C//DTD SVG 1.1//EN" "http://www.w3.org/Graphics/SVG/1.1/DTD/svg11.dtd">
<svg version="1.1" id="Layer_1" xmlns="http://www.w3.org/2000/svg" xmlns:xlink="http://www.w3.org/1999/xlink" x="0px" y="0px"
	 viewBox="0 0 120 120" enable-background="new 0 0 120 120" xml:space="preserve">
<g>
	<path fill="#577D85" d="M24.8,24.1c2.9,0,5.2-2.3,5.2-5.2c0-2.8-2.3-5.2-5.2-5.2c-2.8,0-5.2,2.3-5.2,5.2
		C19.6,21.8,21.9,24.1,24.8,24.1z"/>
	<path fill="#577D85" d="M98.2,24.1c2.9,0,5.2-2.3,5.2-5.2c0-2.8-2.3-5.2-5.2-5.2c-2.8,0-5.2,2.3-5.2,5.2
		C93,21.8,95.3,24.1,98.2,24.1z"/>
	<path fill="#577D85" d="M115.4,0H7.6C3.8,0,0,2.9,0,6.7v107.8c0,3.8,3.8,5.5,7.6,5.5h81.7C99.7,107.9,114,95.9,120,88.2V6.7
		C120,2.9,119.2,0,115.4,0z M54,84.8c-2.4,2.4-4.8,3.6-8.5,3.6c-3.2,0-8.5-0.8-8.5-2.3v-6.5c0,2,5.5,2.9,8.5,2.9
		c2,0,3.3-0.6,4.5-1.8c1.2-1.2,1.7-2.8,1.7-4.7c0-1.6-0.6-3.1-1.6-4.3c-0.6-0.7-1.3-1.2-2-1.5c-0.7-0.3-3.7-0.6-6.1-0.9l-2-0.1V62
		h3.2c2.6,0,4.6,0.3,5.9-0.7c1.4-1.1,2-2.2,2-4.2c0-1.8-0.7-3.1-2-4.3c-1.3-1.1-2.9-1.6-5.1-1.6c-2.2,0-7.1,0.8-7.1,2.1v-5.7
		c0-1.2,4.9-1.8,7.8-1.8c3.8,0,6.8,1,9,3c2.2,2,3.3,4.7,3.3,8.2c0,2.1-0.4,3.9-1.3,5.3c-0.9,1.4-2.2,2.7-4.1,3.7
		c1.6,0.6,2.8,1.4,3.6,2.3c0.8,0.9,1.3,2,1.8,3.3c0.4,1.3,0.6,2.7,0.6,4.2C57.7,79.4,56.4,82.4,54,84.8z M79,89h-6V47h6V89z
		 M89,114.3V93.5c0-2.9,2.4-4.5,5.3-4.5h19.7L89,114.3z M114,34H6V6h108V34z"/>
</g>
</svg>
