<?xml version="1.0" encoding="utf-8"?>
<!-- Generator: Adobe Illustrator 18.1.1, SVG Export Plug-In . SVG Version: 6.00 Build 0)  -->
<!DOCTYPE svg PUBLIC "-//W3C//DTD SVG 1.1//EN" "http://www.w3.org/Graphics/SVG/1.1/DTD/svg11.dtd">
<svg version="1.1" id="Layer_1" xmlns="http://www.w3.org/2000/svg" xmlns:xlink="http://www.w3.org/1999/xlink" x="0px" y="0px"
	 viewBox="0 0 120 120" enable-background="new 0 0 120 120" xml:space="preserve">
<g>
	<polygon fill="#72726F" points="1.1,41.3 58.6,22.5 119.2,41.3 61.1,62.6 	"/>
	<path fill="#72726F" d="M28.6,47l-1.1-1.3c-7.8,2.3-13.3,10.4-15.8,22.2c-1.1,0.7-1.9,2-1.9,3.5c0,1,0.4,1.9,0.9,2.6
		c-0.8,7.2-0.6,15.4,0.7,24.3l8.9,0c0,0-3.8-11.2-4.1-23.4c1.1-0.7,1.9-2,1.9-3.5c0-1.4-0.7-2.6-1.7-3.3
		C17.2,59.4,20.4,51.1,28.6,47z"/>
	<g>
		<path fill="#72726F" d="M88.7,40.5c-1.1-1.4-3.8-2-7.3-2.3L88.7,40.5z"/>
		<path fill="#72726F" d="M60.5,69.1l-31.4-12c0,0,0.4,18.7,0.4,18.8c0,4.6,13.8,11.1,30.1,11.1C76,87,89.5,81,89.5,76.4
			c0-0.3-0.3-9.8-0.4-17.7L60.5,69.1z"/>
	</g>
</g>
</svg>
