<?xml version="1.0" encoding="utf-8"?>
<!-- Generator: Adobe Illustrator 18.1.1, SVG Export Plug-In . SVG Version: 6.00 Build 0)  -->
<!DOCTYPE svg PUBLIC "-//W3C//DTD SVG 1.1//EN" "http://www.w3.org/Graphics/SVG/1.1/DTD/svg11.dtd">
<svg version="1.1" id="Layer_1" xmlns="http://www.w3.org/2000/svg" xmlns:xlink="http://www.w3.org/1999/xlink" x="0px" y="0px"
	 viewBox="0 0 88.2 50" enable-background="new 0 0 88.2 50" xml:space="preserve">
<g>
	<g>
		<path fill="#8CBDCF" d="M61.6,39.7C61.6,39.7,61.6,39.7,61.6,39.7c5.5,0,9,4.4,9,9.9h17.7c0,0,0-6.9-6.3-6.9
			c-8.4,0-10-7.6-8.6-9.4c5.3-6.9,7.1-24.9-5-25.3c-12.1,0.4-10.9,18.4-5.5,25.3C63.6,34.4,63.4,38.6,61.6,39.7z"/>
		<path fill="#8CBDCF" d="M26.7,39.7C26.7,39.7,26.7,39.7,26.7,39.7c-5.5,0-9,4.4-9,9.9H0c0,0,0-6.9,6.3-6.9c8.4,0,10-7.6,8.6-9.4
			C9.5,26.4,7.8,8.3,19.9,8C32,8.3,30.7,26.4,25.4,33.3C24.6,34.4,24.8,38.6,26.7,39.7z"/>
		<path fill="#8CBDCF" d="M48,49.9c0,0.1,0,0.1,0,0.1h0.7L48,49.9z"/>
	</g>
	<path fill="#8CBDCF" d="M60.3,41.3c-10,0-11.9-9-10.2-11.2c6.3-8.2,8.4-29.7-6-30.1c-14.4,0.4-12.9,21.9-6.6,30.2
		c1.7,2.2-0.2,11.1-10.2,11.1c-7.5,0-7.5,8.3-7.5,8.3h48C67.8,49.6,67.8,41.3,60.3,41.3z"/>
</g>
</svg>
