<?xml version="1.0" encoding="utf-8"?>
<!-- Generator: Adobe Illustrator 18.1.1, SVG Export Plug-In . SVG Version: 6.00 Build 0)  -->
<!DOCTYPE svg PUBLIC "-//W3C//DTD SVG 1.1//EN" "http://www.w3.org/Graphics/SVG/1.1/DTD/svg11.dtd">
<svg version="1.1" id="Layer_1" xmlns="http://www.w3.org/2000/svg" xmlns:xlink="http://www.w3.org/1999/xlink" x="0px" y="0px"
	 viewBox="0 0 120 120" enable-background="new 0 0 120 120" xml:space="preserve">
<g>
	<path fill="#6B7E84" d="M115,88.8l-2-77.3c0-2.2-1.9-4-4.1-4L11,2.5c-2.2,0-9,4.3-9,9v102c0,2.2,2.8,4.5,5,4.5h78.8
		C93.2,110.6,107.2,96.6,115,88.8z"/>
	<path fill="#8BA6AC" d="M117,86.3V5.5c0-2.2-0.8-3.5-3-3.5H12C9.8,2,7,3.3,7,5.5v102c0,2.2,2.8,4.5,5,4.5h79.8
		C100.5,103.3,112,91.7,117,86.3z"/>
	<g>
		<path opacity="0.7" fill="#FFFFFF" d="M116.8,86H93.7c-1.7,0-3.7,1.4-3.7,3.2v23.1L116.8,86z"/>
	</g>
	<polygon opacity="0.6" fill="#6B7E84" points="32.6,28 6,54.2 6,112 55.5,112 92,75.5 83,65.2 91.9,56.4 84,48.5 91.4,39 	"/>
	<rect x="32" y="28" fill="#FFFFFF" width="59" height="11"/>
	<rect x="32" y="45" fill="#FFFFFF" width="59" height="11"/>
	<rect x="32" y="64" fill="#FFFFFF" width="59" height="11"/>
	<rect x="32" y="81" fill="#FFFFFF" width="41" height="11"/>
</g>
</svg>
