<?xml version="1.0" encoding="utf-8"?>
<!-- Generator: Adobe Illustrator 18.1.1, SVG Export Plug-In . SVG Version: 6.00 Build 0)  -->
<!DOCTYPE svg PUBLIC "-//W3C//DTD SVG 1.1//EN" "http://www.w3.org/Graphics/SVG/1.1/DTD/svg11.dtd">
<svg version="1.1" id="Layer_1" xmlns="http://www.w3.org/2000/svg" xmlns:xlink="http://www.w3.org/1999/xlink" x="0px" y="0px"
	 viewBox="387 312 30 35" enable-background="new 387 312 30 35" xml:space="preserve">
<path fill="#333333" d="M413,326.6c-1.7-0.7-3.1-0.6-4.4,0.1l-5.5-9.6c0.6-0.4,1.1-0.9,1.3-1.7c0.2-0.7,0.1-1.4-0.3-2.1
	c-0.4-0.6-0.9-1.1-1.7-1.3c-0.7-0.2-1.4-0.1-2.1,0.3l-11.9,6.9c-0.6,0.4-1.1,0.9-1.3,1.7c-0.2,0.7-0.1,1.4,0.3,2.1
	c0.4,0.6,0.9,1.1,1.7,1.3c0.7,0.2,1.4,0.1,2.1-0.3l5.5,9.6c-1.2,0.7-2,2-2.3,3.8c-0.3,1.8,0,3.4,0.9,5c0.2,0.3,0.5,0.5,0.8,0.6
	s0.7,0.1,1-0.1l7.5-4.4l6.6,8.2c0.3,0.3,0.6,0.4,0.9,0.2l0,0c0.1-0.1,0.2-0.2,0.3-0.4c0-0.2,0-0.3,0-0.5l-4.3-9.6l8-4.6
	c0.3-0.2,0.5-0.5,0.6-0.8c0.1-0.4,0.1-0.7-0.1-1C415.9,328.4,414.6,327.3,413,326.6z M400.5,330.6c0.1,0.2,0.1,0.3,0.1,0.5
	c0,0.2-0.2,0.3-0.3,0.4c-0.2,0.1-0.3,0.1-0.5,0.1c-0.2,0-0.3-0.2-0.4-0.3l-4.8-8.4c-0.1-0.2-0.1-0.3-0.1-0.5s0.2-0.3,0.3-0.4
	c0.2-0.1,0.3-0.1,0.5-0.1c0.2,0,0.3,0.2,0.4,0.3L400.5,330.6z"/>
</svg>
