<?xml version="1.0" encoding="utf-8"?>
<!-- Generator: Adobe Illustrator 18.1.1, SVG Export Plug-In . SVG Version: 6.00 Build 0)  -->
<!DOCTYPE svg PUBLIC "-//W3C//DTD SVG 1.1//EN" "http://www.w3.org/Graphics/SVG/1.1/DTD/svg11.dtd">
<svg version="1.1" id="Layer_1" xmlns="http://www.w3.org/2000/svg" xmlns:xlink="http://www.w3.org/1999/xlink" x="0px" y="0px"
	 viewBox="0 0 47.8 50" enable-background="new 0 0 47.8 50" xml:space="preserve">
<path fill="#8CBDCF" d="M33.7,14.1c0,1.2-1,2.2-2.2,2.2H15.3c-1.2,0-2.2-1-2.2-2.2v-1c0-1.2,1-2.2,2.2-2.2h16.2c1.2,0,2.2,1,2.2,2.2
	V14.1z"/>
<path fill="#8CBDCF" d="M33.7,24.9c0,1.2-1,2.2-2.2,2.2H15.3c-1.2,0-2.2-1-2.2-2.2v-1c0-1.2,1-2.2,2.2-2.2h16.2c1.2,0,2.2,1,2.2,2.2
	V24.9z"/>
<path fill="#8CBDCF" d="M45.8,0H2.5C1.4,0,0,0.2,0,1.2v36.9c0,1,1.4,1,2.5,1H13l10,10.4c0.7,0.7,1.9,0.5,2.6-0.2l10-10.2h10.3
	c1,0,2,0.1,2-1V1.2C47.8,0.2,46.9,0,45.8,0z M42.4,34.8h-9.1l-9,9l-9-9H6.5V5.4h35.9V34.8z"/>
</svg>
