<?xml version="1.0" encoding="utf-8"?>
<!-- Generator: Adobe Illustrator 18.1.1, SVG Export Plug-In . SVG Version: 6.00 Build 0)  -->
<svg version="1.1" id="Layer_1" xmlns="http://www.w3.org/2000/svg" xmlns:xlink="http://www.w3.org/1999/xlink" x="0px" y="0px"
	 viewBox="200 0 560 560" enable-background="new 200 0 560 560" xml:space="preserve">
<path fill="#F0712F" d="M480,0C325.9,0,201,124.9,201,279s124.9,279,279,279 M480,558c154.1,0,279-124.9,279-279S634.1,0,480,0
	 M375.4,418.5c-19.3,0-34.9-15.6-34.9-34.9c0-19.3,15.6-34.9,34.9-34.9c19.3,0,34.9,15.6,34.9,34.9
	C410.2,402.9,394.6,418.5,375.4,418.5z M471.3,418.5c0-72.1-58.7-130.8-130.8-130.8v-52.3c101,0,183.1,82.1,183.1,183.1H471.3z
	 M575.9,418.5c0-62.9-24.5-122-68.9-166.5c-44.5-44.5-103.6-68.9-166.5-68.9v-52.3c76.9,0,149.1,29.9,203.4,84.3
	c54.3,54.3,84.3,126.6,84.3,203.4H575.9z"/>
</svg>
