<?xml version="1.0" encoding="utf-8"?>
<!-- Generator: Adobe Illustrator 18.1.1, SVG Export Plug-In . SVG Version: 6.00 Build 0)  -->
<svg version="1.1" id="Layer_1" xmlns="http://www.w3.org/2000/svg" xmlns:xlink="http://www.w3.org/1999/xlink" x="0px" y="0px"
	 viewBox="200 0 560 560" enable-background="new 200 0 560 560" xml:space="preserve">
<path fill="#4FA2D4" d="M479.5-0.5c-154.4,0-280,125.6-280,280c0,154.4,125.6,280,280,280c154.4,0,280-125.6,280-280
	C759.5,125.1,633.9-0.5,479.5-0.5z M604.4,215.4c0.1,2.8,0.2,5.6,0.2,8.4c0,85.2-64.8,183.3-183.4,183.3c-36.4,0-70.3-10.7-98.8-29
	c5,0.6,10.2,0.9,15.4,0.9c30.2,0,58-10.3,80-27.6c-28.2-0.5-52-19.2-60.2-44.8c3.9,0.8,8,1.2,12.1,1.2c5.9,0,11.6-0.8,17-2.3
	c-29.5-5.9-51.7-32-51.7-63.2c0-0.3,0-0.6,0-0.8c8.7,4.8,18.6,7.7,29.2,8.1c-17.3-11.5-28.7-31.3-28.7-53.6
	c0-11.8,3.2-22.9,8.7-32.4c31.8,39,79.3,64.6,132.8,67.4c-1.1-4.7-1.7-9.6-1.7-14.7c0-35.6,28.8-64.4,64.4-64.4
	c18.5,0,35.3,7.8,47,20.3c14.7-2.9,28.5-8.2,40.9-15.6c-4.8,15.1-15,27.7-28.4,35.7c13-1.6,25.5-5,37-10.1
	C627.9,195,617,206.4,604.4,215.4z"/>
</svg>
