<?xml version="1.0" encoding="utf-8"?>
<!-- Generator: Adobe Illustrator 18.1.1, SVG Export Plug-In . SVG Version: 6.00 Build 0)  -->
<svg version="1.1" id="Layer_1" xmlns="http://www.w3.org/2000/svg" xmlns:xlink="http://www.w3.org/1999/xlink" x="0px" y="0px"
	 viewBox="0 0 98 98" enable-background="new 0 0 98 98" xml:space="preserve">
<g>
	<g>
		<path fill="#EE454D" d="M25.7,52.6h3.9v21h3.7v-21h4v-3.4H25.7V52.6z M56.8,55.2c-1.2,0-2.3,0.7-3.4,2v-8h-3.3v24.5h3.3v-1.8
			c1.1,1.4,2.2,2,3.4,2c1.3,0,2.2-0.7,2.6-2c0.2-0.8,0.3-2,0.3-3.7v-7.3c0-1.7-0.1-2.9-0.3-3.7C59,55.9,58.1,55.2,56.8,55.2z
			 M56.5,68.4c0,1.6-0.5,2.5-1.4,2.5c-0.5,0-1.1-0.3-1.6-0.8V59c0.6-0.5,1.1-0.8,1.6-0.8c1,0,1.4,0.8,1.4,2.5V68.4z M43.9,69.3
			c-0.7,1-1.4,1.5-2.1,1.5c-0.4,0-0.7-0.3-0.8-0.8c0-0.1,0-0.5,0-1.3V55.4h-3.3v14.4c0,1.3,0.1,2.2,0.3,2.7c0.3,0.9,1.1,1.4,2.1,1.4
			c1.2,0,2.5-0.7,3.8-2.2v2h3.3V55.4h-3.3V69.3z M46.8,38.6c1.1,0,1.6-0.9,1.6-2.6v-7.8c0-1.7-0.5-2.6-1.6-2.6
			c-1.1,0-1.6,0.9-1.6,2.6V36C45.2,37.7,45.7,38.6,46.8,38.6z M49,0C21.9,0,0,21.9,0,49c0,27.1,21.9,49,49,49c27.1,0,49-21.9,49-49
			C98,21.9,76.1,0,49,0z M54.4,22.9h3.3v13.6c0,0.8,0,1.2,0,1.3c0.1,0.5,0.3,0.8,0.8,0.8c0.7,0,1.4-0.5,2.1-1.6V22.9H64v18.4h-3.3
			v-2c-1.3,1.5-2.6,2.3-3.8,2.3c-1.1,0-1.8-0.4-2.2-1.4c-0.2-0.6-0.3-1.4-0.3-2.7V22.9z M41.8,28.9c0-2,0.3-3.4,1-4.3
			c0.9-1.3,2.2-1.9,3.9-1.9c1.7,0,3,0.6,3.9,1.9c0.7,0.9,1,2.4,1,4.3v6.5c0,2-0.3,3.4-1,4.3c-0.9,1.3-2.2,1.9-3.9,1.9
			c-1.7,0-3-0.6-3.9-1.9c-0.7-0.9-1-2.4-1-4.3V28.9z M32.9,16.6l2.6,9.7l2.5-9.7h3.7l-4.5,14.7v10h-3.7v-10
			c-0.3-1.8-1.1-4.4-2.3-7.8c-0.8-2.3-1.6-4.6-2.4-6.9H32.9z M75.4,75.2c-0.7,2.9-3,5.1-5.9,5.4c-6.8,0.8-13.6,0.8-20.5,0.8
			c-6.8,0-13.7,0-20.5-0.8c-2.9-0.3-5.2-2.5-5.9-5.4c-1-4.1-1-8.7-1-12.9c0-4.3,0-8.8,1-12.9c0.7-2.9,3-5.1,5.9-5.4
			c6.8-0.8,13.6-0.8,20.5-0.8c6.8,0,13.7,0,20.5,0.8c2.9,0.3,5.2,2.5,5.9,5.4c1,4.1,0.9,8.7,0.9,12.9C76.3,66.6,76.3,71.1,75.4,75.2
			z M67.3,55.2c-1.7,0-3,0.6-4,1.9c-0.7,0.9-1,2.3-1,4.3v6.4c0,1.9,0.4,3.4,1.1,4.3c1,1.2,2.3,1.9,4,1.9c1.7,0,3.1-0.7,4-2
			c0.4-0.6,0.7-1.2,0.8-2c0-0.3,0.1-1.1,0.1-2.1v-0.5h-3.4c0,1.3,0,2.1-0.1,2.2c-0.2,0.9-0.7,1.3-1.5,1.3c-1.1,0-1.7-0.8-1.7-2.5
			v-3.2h6.6v-3.8c0-1.9-0.3-3.4-1-4.3C70.3,55.8,69,55.2,67.3,55.2z M69,62.4h-3.3v-1.7c0-1.7,0.6-2.5,1.7-2.5
			c1.1,0,1.6,0.8,1.6,2.5V62.4z"/>
	</g>
</g>
</svg>
