<?xml version="1.0" encoding="utf-8"?>
<!-- Generator: Adobe Illustrator 18.1.1, SVG Export Plug-In . SVG Version: 6.00 Build 0)  -->
<!DOCTYPE svg PUBLIC "-//W3C//DTD SVG 1.1//EN" "http://www.w3.org/Graphics/SVG/1.1/DTD/svg11.dtd">
<svg version="1.1" id="Layer_1" xmlns="http://www.w3.org/2000/svg" xmlns:xlink="http://www.w3.org/1999/xlink" x="0px" y="0px"
	 viewBox="0 0 120 120" enable-background="new 0 0 120 120" xml:space="preserve">
<g>
	<path fill="#5E8429" d="M115.5,87.6l-2-77.1c0-2.2-1.9-3.8-4.1-3.8L11.2,3.4C9,3.4,2,6.1,2,10.9V113c0,2.2,3.2,3,5.4,3h78.9
		C93.7,110,107.8,95.3,115.5,87.6z"/>
	<path fill="#7BAE36" d="M116,85.8V4.8c0-2.2,0.8-1.8-1.4-1.8H12.4C10.2,3,7,2.6,7,4.8V107c0,2.2,3.2,5,5.4,5h79.9
		C101,103,113,91.2,116,85.8z"/>
	<path opacity="0.8" fill="#5E8429" d="M25.1,25.4l-20,19.9l1.3,68.1c0,0,69.8,1.7,70.3,1c0.5-0.7,23.9-23.9,23.9-23.9L75.5,72
		c0,0-10.5-7.8-10.9-8.5C64.3,62.8,25.1,25.4,25.1,25.4z"/>
	<polygon fill="#5E8429" points="98.5,92 71.8,55.9 95.5,27 69.1,27 59.2,38.9 50.3,27 23,27 44.8,57 20.5,87 47.8,87 57.6,74.2 
		71.7,92 	"/>
	<g>
		<path opacity="0.7" fill="#FFFEFD" d="M117.3,87H94.2c-1.7,0-2.2-0.1-2.2,1.7v23.1L117.3,87z"/>
	</g>
	<polygon fill="#F5F5F5" points="100.5,88 73.8,53.4 97.5,26 71.1,26 61.2,37.9 52.3,26 25.1,26 46.8,55.5 22.5,85 49.8,85 
		59.6,71.2 73.7,88 	"/>
</g>
</svg>
