<?xml version="1.0" encoding="utf-8"?>
<!-- Generator: Adobe Illustrator 18.1.1, SVG Export Plug-In . SVG Version: 6.00 Build 0)  -->
<!DOCTYPE svg PUBLIC "-//W3C//DTD SVG 1.1//EN" "http://www.w3.org/Graphics/SVG/1.1/DTD/svg11.dtd">
<svg version="1.1" id="Layer_1" xmlns="http://www.w3.org/2000/svg" xmlns:xlink="http://www.w3.org/1999/xlink" x="0px" y="0px"
	 viewBox="0 0 120 120" enable-background="new 0 0 120 120" xml:space="preserve">
<g>
	<path fill="#1F4074" d="M115.2,87.6l-2-76.7c0-2.2-1.8-3.8-4-3.8L11.3,3.7C9.1,3.7,2,6.4,2,11.1v101.6c0,2.2,3.4,3.3,5.7,3.3h78.5
		C93.6,110,107.5,95.3,115.2,87.6z"/>
	<path fill="#365FA1" d="M117,85.6V5.1c0-2.2-0.5-2.1-2.7-2.1H12.6C10.4,3,7,2.9,7,5.1v101.6c0,2.2,3.4,4.2,5.6,4.2h79.5
		C100.8,103,113,91,117,85.6z"/>
	<polygon opacity="0.6" fill="#1F4074" points="58.6,113.4 77.4,85.4 104.8,38.5 81.9,29.6 74,48.6 57.6,29.6 36.6,52.6 26.1,29.6 
		5.3,52.6 7.7,112.7 	"/>
	<g>
		<path opacity="0.7" fill="#FFFEFD" d="M117,87H94c-1.7,0-3-0.2-3,1.5v23L117,87z"/>
	</g>
	<polygon fill="#1F4074" points="24,31 45,31 45,39 44,39 44,61.6 55.6,31 73,31 73,60.1 83.1,39 78,39 78,31 101,31 101,39 
		98.1,39 75.4,88 58,88 58,64.4 45.7,88 29,88 29,39 24,39 	"/>
	<polygon fill="#FFFFFF" points="25,29 48,29 48,37 45,37 45,59.6 57.6,29 76,29 76,58.1 85.1,37 81,37 81,29 104,29 104,37 
		100.1,37 77.4,87 60,87 60,62.4 47.7,87 30,87 30,37 25,37 	"/>
</g>
</svg>
