<?xml version="1.0" encoding="utf-8"?>
<!-- Generator: Adobe Illustrator 18.1.1, SVG Export Plug-In . SVG Version: 6.00 Build 0)  -->
<!DOCTYPE svg PUBLIC "-//W3C//DTD SVG 1.1//EN" "http://www.w3.org/Graphics/SVG/1.1/DTD/svg11.dtd">
<svg version="1.1" id="Layer_1" xmlns="http://www.w3.org/2000/svg" xmlns:xlink="http://www.w3.org/1999/xlink" x="0px" y="0px"
	 viewBox="0 0 120 120" enable-background="new 0 0 120 120" xml:space="preserve">
<g>
	<path fill="#BD862C" d="M114.5,88.8l-2-77.3c0-2.2-1.9-4-4.1-4l-97.6-5c-2.2,0-8.8,4.3-8.8,9v102c0,2.2,2.3,4.5,4.5,4.5h78.8
		C92.7,110.6,106.7,96.6,114.5,88.8z"/>
	<path fill="#F8AF19" d="M117,86.3V5.5c0-2.2-1.3-3.5-3.5-3.5h-102C9.3,2,7,3.3,7,5.5v102c0,2.2,2.3,4.5,4.5,4.5h79.8
		C100,103.3,111.6,91.7,117,86.3z"/>
	<g>
		<path opacity="0.7" fill="#FFFFFF" d="M116.2,86H93.2c-1.7,0-3.2,1.4-3.2,3.2v23.1L116.2,86z"/>
	</g>
	<path opacity="0.7" fill="#BD862C" d="M45,5C44.5,5.7,6.8,43,6.8,43L6,112l74.8,4.1L84,110l-2.3-40l-8.2,0.7L74.3,3H49L45,5z"/>
	<path fill="#BD862C" d="M74,69V5H59v7h-7V5h-6v64h-7v43h43V69H74z M60,12h7v7h-7V12z M60,26h7v7h-7V26z M60,40h7v7h-7V40z M60,55h7
		v7h-7V55z M52,19h7v7h-7V19z M52,33h7v7h-7V33z M52,48h7v7h-7V48z M74,104H46V76h28V104z"/>
	<path fill="#FFFFFF" d="M77,67V3H62v7h-7V3h-6v64h-7v43h43V67H77z M63,10h7v7h-7V10z M63,24h7v7h-7V24z M63,38h7v7h-7V38z M63,53h7
		v7h-7V53z M55,17h7v7h-7V17z M55,31h7v7h-7V31z M55,46h7v7h-7V46z M77,102H49V74h28V102z"/>
</g>
</svg>
