<?xml version="1.0" encoding="utf-8"?>
<!-- Generator: Adobe Illustrator 18.1.1, SVG Export Plug-In . SVG Version: 6.00 Build 0)  -->
<!DOCTYPE svg PUBLIC "-//W3C//DTD SVG 1.1//EN" "http://www.w3.org/Graphics/SVG/1.1/DTD/svg11.dtd">
<svg version="1.1" id="Layer_1" xmlns="http://www.w3.org/2000/svg" xmlns:xlink="http://www.w3.org/1999/xlink" x="0px" y="0px"
	 viewBox="0 0 120 120" enable-background="new 0 0 120 120" xml:space="preserve">
<g>
	<path fill="#AFAFAF" d="M115.5,88.8l-2-77.3c0-2.2-1.9-4-4.1-4l-97.6-5c-2.2,0-8.8,4.3-8.8,9v102c0,2.2,2.3,4.5,4.5,4.5h78.8
		C93.7,110.6,107.7,96.6,115.5,88.8z"/>
	<path fill="#E6E6E6" d="M117,86.3V5.5c0-2.2-1.3-3.5-3.5-3.5h-102C9.3,2,7,3.3,7,5.5v102c0,2.2,2.3,4.5,4.5,4.5h79.8
		C100,103.3,111.6,91.7,117,86.3z"/>
	<rect x="16" y="15" fill="#9EC9D3" width="93" height="73"/>
	<polygon fill="#787878" points="17,76 23,76 45.1,39.5 62,67.2 77.2,51.3 99.4,76 109,76 109,88 17,88 	"/>
	<polygon fill="#6E6E69" points="45,77 45,39.7 23,76 17,76 17,77 	"/>
	<polygon fill="#6E6E69" points="55,76 77,76 77,51 	"/>
	<circle fill="#FFFFFF" cx="81.8" cy="34.3" r="10.3"/>
	<g>
		<path opacity="0.7" fill="#FFFEFD" d="M117.2,86H94.2c-1.7,0-3.2,1.4-3.2,3.2v23.1L117.2,86z"/>
	</g>
</g>
</svg>
