<svg xmlns="http://www.w3.org/2000/svg" viewBox="0 0 1000 1000"><path fill="#567E87" d="M230.6 678.4c-21.6-31.2-34.2-69-34.2-109.8 0-106.8 86.6-193.4 193.4-193.4 106.8 0 193.4 86.6 193.4 193.4 0 106.8-86.6 193.4-193.4 193.4-30 0-58.4-7.1-83.7-19.3-49.5 17-109.7 37.2-109.7 37.2l34.2-101.5z"/><path fill="#ACBCC0" d="M760.8 599c26.9-39 42.8-86.2 42.8-137.2 0-133.5-108.3-241.8-241.8-241.8S320 328.2 320 461.8c0 133.5 108.2 241.8 241.8 241.8 37.5 0 72.9-8.8 104.6-24.1 61.9 21.2 137.1 46.6 137.1 46.6L760.8 599z"/></svg>