<svg xmlns="http://www.w3.org/2000/svg" viewBox="0 0 120 120"><g fill="#72726F"><path d="M51.4 109c5.1 0 8.3 4 8.3 10h16.4s0-6.8-5.8-6.8c-7.8 0-9.3-7.2-8-8.9 4.9-6.4 6.6-23.2-4.6-23.5-11.2.3-10.1 17-5.1 23.4.7 1 .5 3.8-1.2 5.8zM38.8 118.5v.1h.7l-.7-.1z"/></g><path fill="#72726F" d="M50.3 111c-9.3 0-11-8.5-9.5-10.6 5.9-7.6 7.8-27.6-5.5-28-13.3.4-12 20.3-6.1 27.9 1.6 2-.2 10.6-9.5 10.6-6.9 0-6.9 8-6.9 8h44.4c0 .1 0-7.9-6.9-7.9z"/><g opacity=".9"><path fill="#1A6498" d="M69.5 79.6c-8.5-.8-16.7-4.9-22.4-12.2-10.9-13.9-8.4-34 5.6-44.9 13.9-10.9 34-8.4 44.9 5.6C108.5 42 106 62.1 92 73c-4.4 3.4-9.4 5.5-14.5 6.3l-.5 4.2-2.5 4.7-5-8.6z"/><path fill="#2283C5" d="M71.7 75.8C63.2 75 55 70.9 49.3 63.6c-10.9-13.9-8.4-34 5.6-44.9 13.9-10.9 34-8.4 44.9 5.6 10.9 13.9 8.4 34-5.6 44.9-4.4 3.4-9.4 5.5-14.5 6.3l-3 8.9-5-8.6z"/><path fill="#FFF" d="M76 19c14.8 0 26.8 12 26.8 26.8 0 1.1.8 1.1.8-4.1 0-14.8-12-26.8-26.8-26.8-13.7 0-25 10.3-26.6 23.6C53.5 27.3 63.8 19 76 19z"/></g><g opacity=".9"><path fill="#1A6498" d="M59.6 5.4L13.5 1.3S7 5 7 7.9v50.6C7 59.8 8.5 61 9.8 61h5.8l4.9 9.6 6.2-5-.4-4.6h33.3c3.1 1 8.2-3.8 8.2-5.2L62 7.9c0-1.3-1.1-2.5-2.4-2.5z"/><path fill="#2283C5" d="M65.3 2H15.5c-1.3 0-3.5.4-3.5 1.8v50.6c0 1.4 2.2 2.6 3.5 2.6h5.8l4.9 9.7L32 57h33.3c1.4 0 2.7-1.3 2.7-2.6V3.8C68 2.4 66.6 2 65.3 2z"/></g></svg>