<svg xmlns="http://www.w3.org/2000/svg" viewBox="0 0 120 120"><path fill="#1A6498" d="M95.2 101.2c10.5-9.8 17.1-23.8 17.1-39.3 0-29.7-24.1-53.8-53.8-53.8S4.7 32.3 4.7 62s24.1 53.8 53.8 53.8c9.4 0 18.1-2.4 25.8-6.6l13.2 8.7 3.2-6.4-5.5-10.3z"/><path fill="#2283C5" d="M98.4 94.9c10.5-9.8 17.1-23.8 17.1-39.3 0-29.7-24.1-53.8-53.8-53.8C32 1.8 7.9 25.9 7.9 55.6c0 29.7 24.1 53.8 53.8 53.8 9.4 0 18.1-2.4 25.8-6.6l13.2 8.7-2.3-16.6z"/><path opacity=".68" fill="#1A6498" d="M63.2 78.9c2.7-14.6-3.1-20 3.4-23.2 2.6-1.3 6.8-5 7.5-9.1l2-5.8-6.9-7.5-4-3.5-3.9.2c-.2-.9.6-.5 0 0-5.7 5-8.4.3-8.4.3l-45 36.8s.3 7.4 12.4 22.9c12.1 15.5 18.8 14.8 18.8 14.8l26.6-23.1c3.6-8.1-3.4 2.2-2.5-2.8z"/><path fill="#1A6498" d="M42.7 45.3c0-2.3.7-4.6 2.2-6.9 1.5-2.3 3.6-4.3 6.4-5.8 2.8-1.5 6.1-2.3 9.8-2.3 3.5 0 6.5.6 9.2 1.9 2.7 1.3 4.7 3 6.2 5.2 1.4 2.2 2.2 4.6 2.2 7.2 0 2-.4 3.8-1.2 5.4-.8 1.5-1.8 2.9-2.9 4-1.1 1.1-3.2 3-6.1 5.6-.8.7-1.5 1.4-2 2-.5.6-.9 1.1-1.1 1.5-.2.5-.4.9-.6 1.4-.1.5-.3 1.3-.6 2.5-.5 2.5-1.9 3.7-4.3 3.7-1.2 0-2.3-.4-3.1-1.2-.9-.8-1.3-2-1.3-3.6 0-2 .3-3.8.9-5.2.6-1.5 1.4-2.8 2.5-3.9 1-1.1 2.4-2.4 4.2-4 1.5-1.3 2.6-2.4 3.3-3 .7-.7 1.3-1.4 1.7-2.3.5-.8.7-1.7.7-2.7 0-1.9-.7-3.5-2.1-4.9-1.4-1.3-3.3-2-5.5-2-2.6 0-4.6.7-5.8 2-1.2 1.3-2.3 3.3-3.2 5.9-.8 2.7-2.4 4.1-4.6 4.1-1.3 0-2.5-.5-3.4-1.4-1-1-1.5-2.1-1.5-3.2zm17.6 39.4c-1.5 0-2.7-.5-3.8-1.4-1.1-.9-1.6-2.3-1.6-4 0-1.5.5-2.8 1.6-3.8s2.3-1.5 3.9-1.5c1.5 0 2.8.5 3.8 1.5s1.5 2.3 1.5 3.8c0 1.7-.5 3-1.6 4-1.2.9-2.4 1.4-3.8 1.4z"/><path fill="#FFF" stroke="#1A6498" stroke-miterlimit="10" d="M44.4 43.6c0-2.3.7-4.6 2.2-6.9 1.5-2.3 3.6-4.3 6.4-5.8 2.8-1.5 6.1-2.3 9.8-2.3 3.5 0 6.5.6 9.2 1.9 2.7 1.3 4.7 3 6.2 5.2s2.2 4.6 2.2 7.2c0 2-.4 3.8-1.2 5.4-.8 1.5-1.8 2.9-2.9 4-1.1 1.1-3.2 3-6.1 5.6-.8.7-1.5 1.4-2 2-.5.6-.9 1.1-1.1 1.5-.2.5-.4.9-.6 1.4-.1.5-.3 1.3-.6 2.5-.5 2.5-1.9 3.7-4.3 3.7-1.2 0-2.3-.4-3.1-1.2-.9-.8-1.3-2-1.3-3.6 0-2 .3-3.8.9-5.2.6-1.5 1.4-2.8 2.5-3.9 1-1.1 2.4-2.4 4.2-4 1.5-1.3 2.6-2.4 3.3-3 .7-.7 1.3-1.4 1.7-2.3.5-.8.7-1.7.7-2.7 0-1.9-.7-3.5-2.1-4.9-1.4-1.3-3.3-2-5.5-2-2.6 0-4.6.7-5.8 2-1.2 1.3-2.3 3.3-3.2 5.9-.8 2.7-2.4 4.1-4.6 4.1-1.3 0-2.5-.5-3.4-1.4-1-1-1.5-2.1-1.5-3.2zM62 83c-1.5 0-2.7-.5-3.8-1.4-1.1-.9-1.6-2.3-1.6-4 0-1.5.5-2.8 1.6-3.8s2.3-1.5 3.9-1.5c1.5 0 2.8.5 3.8 1.5s1.5 2.3 1.5 3.8c0 1.7-.5 3-1.6 4-1.2 1-2.4 1.4-3.8 1.4z"/></svg>