<svg xmlns="http://www.w3.org/2000/svg" viewBox="0 0 120 120"><g fill="#72726F"><path d="M54.2 109c.1 0 .1 0 0 0 5.7 0 9.4 5 9.3 10H82s0-7-6.5-7c-8.7 0-10.4-7.8-8.9-9.7 5.5-7.2 7.4-25.9-5.2-26.2-12.6.4-11.3 19.1-5.8 26.3.8 1.1.6 4.6-1.4 6.6zM40.1 119.7c0 .1 0 .1 0 0l.8.1-.8-.1z"/></g><path fill="#72726F" d="M53 110.6c-10.4 0-12.4-9.3-10.6-11.6 6.6-8.6 8.8-30.8-6.2-31.2-15 .4-13.4 22.8-6.9 31.4 1.7 2.3-.2 11.4-10.6 11.4-7.8 0-7.8 8.4-7.8 8.4H60.8c-.1 0-.1-8.4-7.8-8.4z"/><path fill="#72726F" d="M66.1 0H10.2C8.7 0 8 .8 8 2.3V59c0 1.5.7 3 2.2 3h6.5l5.5 10.9L28.7 62H66c1.5 0 2.9-1.5 2.9-3V2.3C69 .8 67.6 0 66.1 0z"/><path fill="#72726F" stroke="#FFF" stroke-width="3" stroke-miterlimit="10" d="M73.2 73.2c-9.6-.9-18.8-5.5-25.1-13.7-12.2-15.6-9.4-38.2 6.2-50.4C70-3 92.5-.2 104.7 15.4s9.4 38.2-6.2 50.4C93.6 69.7 88 72 82.2 72.9l-3.4 10-5.6-9.7z"/></svg>