<svg xmlns="http://www.w3.org/2000/svg" viewBox="0 0 120 120"><path fill="#557D86" d="M96.4 97.9c10.5-9.8 17.1-23.8 17.1-39.3 0-29.7-24.1-53.8-53.8-53.8C30 4.8 5.9 28.9 5.9 58.6s24.1 53.8 53.8 53.8c9.4 0 18.1-2.4 25.8-6.6l13.2 8.7-2.3-16.6z"/><path fill="#FFF" d="M65.6 49.6c.1 3.5.1 9.7.1 18.6l-.1 8c0 1.6.3 2.7.8 3.2s1.4.9 2.6 1.1c1.4.2 2.1.6 2.1 1.2 0 .7-.5 1-1.6 1-.5 0-1.4 0-2.7-.1-2.7-.2-5.4-.3-8.1-.3-1.3 0-2.7.1-4 .2-.8.1-1.4.2-1.7.2-1.1 0-1.6-.3-1.6-1 0-.6.7-1 2.2-1.2 1.9-.2 3-.8 3.2-1.9s.3-3.3.3-6.7c0-4.4-.1-8.4-.2-12-.1-3.7-.4-5.8-.8-6.3s-1.3-.9-2.9-1c-1.2-.1-1.8-.5-1.8-1.1s.6-.9 1.9-1l.8-.1 11.5-.8zm-.5-12.5c0 1.5-.5 2.7-1.6 3.8s-2.3 1.6-3.8 1.6-2.8-.5-3.8-1.6-1.6-2.3-1.6-3.8.5-2.8 1.6-3.8c1-1 2.3-1.6 3.8-1.6s2.7.5 3.8 1.6c1 1 1.6 2.3 1.6 3.8z"/></svg>