<svg xmlns="http://www.w3.org/2000/svg" viewBox="0 0 120 120"><path fill="#5E8429" d="M115.5 87.6l-2-77.1c0-2.2-1.9-3.8-4.1-3.8L11.2 3.4C9 3.4 2 6.1 2 10.9V113c0 2.2 3.2 3 5.4 3h78.9c7.4-6 21.5-20.7 29.2-28.4z"/><path fill="#7BAE36" d="M116 85.8v-81c0-2.2.8-1.8-1.4-1.8H12.4C10.2 3 7 2.6 7 4.8V107c0 2.2 3.2 5 5.4 5h79.9c8.7-9 20.7-20.8 23.7-26.2z"/><path opacity=".8" fill="#5E8429" d="M25.1 25.4l-20 19.9 1.3 68.1s69.8 1.7 70.3 1 23.9-23.9 23.9-23.9L75.5 72S65 64.2 64.6 63.5c-.3-.7-39.5-38.1-39.5-38.1z"/><path fill="#5E8429" d="M98.5 92L71.8 55.9 95.5 27H69.1l-9.9 11.9L50.3 27H23l21.8 30-24.3 30h27.3l9.8-12.8L71.7 92z"/><path opacity=".7" fill="#FFFEFD" d="M117.3 87H94.2c-1.7 0-2.2-.1-2.2 1.7v23.1L117.3 87z"/><path fill="#F5F5F5" d="M100.5 88L73.8 53.4 97.5 26H71.1l-9.9 11.9L52.3 26H25.1l21.7 29.5L22.5 85h27.3l9.8-13.8L73.7 88z"/></svg>