<svg xmlns="http://www.w3.org/2000/svg" viewBox="0 0 120 120"><path fill="#6B7E84" d="M115 88.8l-2-77.3c0-2.2-1.9-4-4.1-4L11 2.5c-2.2 0-9 4.3-9 9v102c0 2.2 2.8 4.5 5 4.5h78.8L115 88.8z"/><path fill="#8BA6AC" d="M117 86.3V5.5c0-2.2-.8-3.5-3-3.5H12C9.8 2 7 3.3 7 5.5v102c0 2.2 2.8 4.5 5 4.5h79.8c8.7-8.7 20.2-20.3 25.2-25.7z"/><path opacity=".7" fill="#FFF" d="M116.8 86H93.7C92 86 90 87.4 90 89.2v23.1L116.8 86z"/><path opacity=".6" fill="#6B7E84" d="M32.6 28L6 54.2V112h49.5L92 75.5l-9-10.3 8.9-8.8-7.9-7.9 7.4-9.5z"/><path fill="#FFF" d="M32 28h59v11H32zM32 45h59v11H32zM32 64h59v11H32zM32 81h41v11H32z"/></svg>