<svg xmlns="http://www.w3.org/2000/svg" viewBox="0 0 120 120"><path fill="#A36B31" d="M115.3 88.1l-2-77.7c0-2.2-1.9-3.9-4.1-3.9L10.8 3.1C8.6 3.1 2 5.8 2 10.6v102.8c0 2.2 2.3 3.6 4.5 3.6h79.4c7.5-7 21.6-21.1 29.4-28.9z"/><path fill="#DF8D39" d="M117 85.9V4.5c0-2.2-.4-2.5-2.7-2.5H11.5C9.3 2 7 2.3 7 4.5v102.8c0 2.2 2.3 4.7 4.5 4.7h80.4c8.8-8 21.1-20.6 25.1-26.1z"/><path opacity=".7" fill="#A36B31" d="M33.9 114l53.2-55.6-11.8-27.2-38.6-3.9L7.2 55.4l-.7 58z"/><path opacity=".7" fill="#FFFEFD" d="M117.1 87H93.8c-1.8 0-3.8.1-3.8 1.8v23.3L117.1 87z"/><path fill="#A36B31" d="M34.7 29.4h31.9c7 0 12.2 1.7 15.6 5 3.5 3.3 5.2 8 5.2 14.1 0 6.3-1.9 11.2-5.7 14.7-3.8 3.5-9.5 5.3-17.3 5.3H53.9v23.1H34.7V29.4zm19.2 26.4h4.7c3.7 0 6.3-.6 7.8-1.9 1.5-1.3 2.2-2.9 2.2-4.9 0-2-.6-3.6-1.9-5-1.3-1.4-3.7-2-7.3-2h-5.5v13.8z"/><path fill="#FFF" d="M36.7 27.3h31.9c7 0 12.2 1.7 15.6 5 3.5 3.3 5.2 8 5.2 14.1 0 6.3-1.9 11.2-5.7 14.7-3.8 3.5-9.5 5.3-17.3 5.3H56v23.1H36.7V27.3zM56 53.8h4.7c3.7 0 6.3-.6 7.8-1.9 1.5-1.3 2.2-2.9 2.2-4.9 0-1.9-.7-3.6-1.9-5-1.3-1.4-3.7-2-7.3-2H56v13.8z"/></svg>