<svg xmlns="http://www.w3.org/2000/svg" viewBox="0 0 120 120"><path fill="#BD862C" d="M114.5 88.8l-2-77.3c0-2.2-1.9-4-4.1-4l-97.6-5c-2.2 0-8.8 4.3-8.8 9v102c0 2.2 2.3 4.5 4.5 4.5h78.8l29.2-29.2z"/><path fill="#F8AF19" d="M117 86.3V5.5c0-2.2-1.3-3.5-3.5-3.5h-102C9.3 2 7 3.3 7 5.5v102c0 2.2 2.3 4.5 4.5 4.5h79.8L117 86.3z"/><path opacity=".7" fill="#FFF" d="M116.2 86h-23c-1.7 0-3.2 1.4-3.2 3.2v23.1L116.2 86z"/><path opacity=".7" fill="#BD862C" d="M45 5c-.5.7-38.2 38-38.2 38L6 112l74.8 4.1L84 110l-2.3-40-8.2.7.8-67.7H49l-4 2z"/><path fill="#BD862C" d="M74 69V5H59v7h-7V5h-6v64h-7v43h43V69h-8zM60 12h7v7h-7v-7zm0 14h7v7h-7v-7zm0 14h7v7h-7v-7zm0 15h7v7h-7v-7zm-8-36h7v7h-7v-7zm0 14h7v7h-7v-7zm0 15h7v7h-7v-7zm22 56H46V76h28v28z"/><path fill="#FFF" d="M77 67V3H62v7h-7V3h-6v64h-7v43h43V67h-8zM63 10h7v7h-7v-7zm0 14h7v7h-7v-7zm0 14h7v7h-7v-7zm0 15h7v7h-7v-7zm-8-36h7v7h-7v-7zm0 14h7v7h-7v-7zm0 15h7v7h-7v-7zm22 56H49V74h28v28z"/></svg>