<svg xmlns="http://www.w3.org/2000/svg" viewBox="0 0 120 120"><g fill="#72726F"><path d="M24.8 24.1c2.9 0 5.2-2.3 5.2-5.2 0-2.8-2.3-5.2-5.2-5.2-2.8 0-5.2 2.3-5.2 5.2 0 2.9 2.3 5.2 5.2 5.2zM98.2 24.1c2.9 0 5.2-2.3 5.2-5.2 0-2.8-2.3-5.2-5.2-5.2-2.8 0-5.2 2.3-5.2 5.2 0 2.9 2.3 5.2 5.2 5.2z"/><path d="M115.4 0H7.6C3.8 0 0 2.9 0 6.7v107.8c0 3.8 3.8 5.5 7.6 5.5h81.7C99.7 107.9 114 95.9 120 88.2V6.7c0-3.8-.8-6.7-4.6-6.7zM54 84.8c-2.4 2.4-4.8 3.6-8.5 3.6-3.2 0-8.5-.8-8.5-2.3v-6.5c0 2 5.5 2.9 8.5 2.9 2 0 3.3-.6 4.5-1.8 1.2-1.2 1.7-2.8 1.7-4.7 0-1.6-.6-3.1-1.6-4.3-.6-.7-1.3-1.2-2-1.5-.7-.3-3.7-.6-6.1-.9l-2-.1V62h3.2c2.6 0 4.6.3 5.9-.7 1.4-1.1 2-2.2 2-4.2 0-1.8-.7-3.1-2-4.3-1.3-1.1-2.9-1.6-5.1-1.6-2.2 0-7.1.8-7.1 2.1v-5.7c0-1.2 4.9-1.8 7.8-1.8 3.8 0 6.8 1 9 3S57 53.5 57 57c0 2.1-.4 3.9-1.3 5.3S53.5 65 51.6 66c1.6.6 2.8 1.4 3.6 2.3.8.9 1.3 2 1.8 3.3.4 1.3.6 2.7.6 4.2.1 3.6-1.2 6.6-3.6 9zM79 89h-6V47h6v42zm10 25.3V93.5c0-2.9 2.4-4.5 5.3-4.5H114l-25 25.3zM114 34H6V6h108v28z"/></g></svg>