<svg xmlns="http://www.w3.org/2000/svg" viewBox="0 0 120 120"><g fill="#72726F"><path d="M1.1 41.3l57.5-18.8 60.6 18.8-58.1 21.3z"/><path d="M28.6 47l-1.1-1.3C19.7 48 14.2 56.1 11.7 67.9c-1.1.7-1.9 2-1.9 3.5 0 1 .4 1.9.9 2.6-.8 7.2-.6 15.4.7 24.3h8.9s-3.8-11.2-4.1-23.4c1.1-.7 1.9-2 1.9-3.5 0-1.4-.7-2.6-1.7-3.3.8-8.7 4-17 12.2-21.1zM88.7 40.5c-1.1-1.4-3.8-2-7.3-2.3l7.3 2.3zM60.5 69.1l-31.4-12s.4 18.7.4 18.8c0 4.6 13.8 11.1 30.1 11.1 16.4 0 29.9-6 29.9-10.6 0-.3-.3-9.8-.4-17.7L60.5 69.1z"/></g></svg>