<svg xmlns="http://www.w3.org/2000/svg" viewBox="0 0 88.2 50"><g fill="#8CBDCF"><path d="M61.6 39.7c5.5 0 9 4.4 9 9.9h17.7s0-6.9-6.3-6.9c-8.4 0-10-7.6-8.6-9.4 5.3-6.9 7.1-24.9-5-25.3-12.1.4-10.9 18.4-5.5 25.3.7 1.1.5 5.3-1.3 6.4zM26.7 39.7c-5.5 0-9 4.4-9 9.9H0s0-6.9 6.3-6.9c8.4 0 10-7.6 8.6-9.4-5.4-6.9-7.1-25 5-25.3 12.1.3 10.8 18.4 5.5 25.3-.8 1.1-.6 5.3 1.3 6.4zM48 49.9v.1h.7l-.7-.1z"/><path d="M60.3 41.3c-10 0-11.9-9-10.2-11.2 6.3-8.2 8.4-29.7-6-30.1-14.4.4-12.9 21.9-6.6 30.2 1.7 2.2-.2 11.1-10.2 11.1-7.5 0-7.5 8.3-7.5 8.3h48s0-8.3-7.5-8.3z"/></g></svg>