<svg xmlns="http://www.w3.org/2000/svg" viewBox="0 0 120 120"><path fill="#1B6498" d="M117.3 89.6l-2.1-80.5c0-2.3-1.9-4.2-4.2-4.2L9.3 1.5C7 1.5 0 4.2 0 9.1v106c0 2.3 2.7 4.9 5 4.9h81.9c7.8-8.6 22.3-22.3 30.4-30.4z"/><path fill="#567D98" d="M120 86.8v-84c0-2.3-1.4-2.8-3.7-2.8h-106C7.9 0 7 .5 7 2.8v106c0 2.3.9 4.1 3.2 4.1h82.9c9.2-7.9 21.8-20.4 26.9-26.1z"/><path opacity=".7" fill="#FFF" d="M119.1 86h-24c-1.8 0-2.1 2-2.1 3.8v24L119.1 86z"/><g><path opacity=".68" fill="#1A6498" d="M59.8 88.5c3.9-21.2-4.5-29 5-33.6 3.7-1.8 9.9-7.2 10.8-13.2l2.9-8.4-9.9-10.9-5.7-5.1-5.9.4c-.2-1.3.9-.8 0 0-8.3 7.2-14.8 2.6-14.8 2.6l-62.5 51S-21.4 87.6-3.9 110c17.6 22.5 28.7 16 28.7 16l38.6-33.6c5.3-11.6-4.9 3.4-3.6-3.9z"/><path fill="#1A6498" d="M30.1 39.8c0-3.3 1.1-6.6 3.2-10 2.1-3.4 5.2-6.2 9.3-8.4 4.1-2.2 8.8-3.3 14.2-3.3 5 0 9.5.9 13.3 2.8 3.9 1.9 6.8 4.4 8.9 7.6 2.1 3.2 3.2 6.7 3.2 10.4 0 3-.6 5.5-1.8 7.8-1.2 2.2-2.6 4.1-4.3 5.8-1.6 1.6-4.6 4.3-8.9 8.2-1.2 1.1-2.1 2-2.8 2.8-.7.8-1.2 1.6-1.6 2.2-.3.7-.6 1.4-.8 2-.2.7-.5 1.9-.9 3.6-.7 3.6-2.7 5.4-6.2 5.4-1.8 0-3.3-.6-4.6-1.8-1.2-1.2-1.8-2.9-1.8-5.3 0-2.9.4-5.4 1.4-7.6.9-2.1 2.1-4 3.6-5.6 1.5-1.6 3.5-3.5 6-5.8 2.2-1.9 3.8-3.4 4.8-4.4 1-1 1.8-2.1 2.5-3.3.7-1.2 1-2.5 1-4 0-2.8-1-5.1-3.1-7-2.1-1.9-4.7-2.9-8-2.9-3.8 0-6.6 1-8.4 2.9-1.8 1.9-3.3 4.8-4.6 8.5-1.2 3.9-3.4 5.9-6.7 5.9-1.9 0-3.6-.7-4.9-2.1-1.3-1.3-2-2.8-2-4.4zm25.4 57.1c-2.1 0-4-.7-5.5-2.1-1.6-1.4-2.4-3.3-2.4-5.8 0-2.2.8-4 2.3-5.5 1.5-1.5 3.4-2.2 5.6-2.2 2.2 0 4 .7 5.5 2.2 1.5 1.5 2.2 3.3 2.2 5.5 0 2.4-.8 4.3-2.3 5.7-1.5 1.6-3.3 2.2-5.4 2.2z"/><path fill="#FFF" stroke="#1A6498" stroke-miterlimit="10" d="M32.6 37.4c0-3.3 1.1-6.6 3.2-10 2.1-3.4 5.2-6.2 9.3-8.4 4.1-2.2 8.8-3.3 14.2-3.3 5 0 9.5.9 13.3 2.8 3.9 1.9 6.8 4.4 8.9 7.6 2.1 3.2 3.2 6.7 3.2 10.4 0 3-.6 5.5-1.8 7.8-1.2 2.2-2.6 4.1-4.3 5.8-1.6 1.6-4.6 4.3-8.9 8.2-1.2 1.1-2.1 2-2.8 2.8-.7.8-1.2 1.6-1.6 2.2-.3.7-.6 1.4-.8 2-.2.7-.5 1.9-.9 3.6-.7 3.6-2.7 5.4-6.2 5.4-1.8 0-3.3-.6-4.6-1.8-1.2-1.2-1.8-2.9-1.8-5.3 0-2.9.4-5.4 1.4-7.6.9-2.1 2.1-4 3.6-5.6 1.5-1.6 3.5-3.5 6-5.8 2.2-1.9 3.8-3.4 4.8-4.4 1-1 1.8-2.1 2.5-3.3.7-1.2 1-2.5 1-4 0-2.8-1-5.1-3.1-7-2.1-1.9-4.7-2.9-8-2.9-3.8 0-6.6 1-8.4 2.9-1.8 1.9-3.3 4.8-4.6 8.5-1.2 3.9-3.4 5.9-6.7 5.9-1.9 0-3.6-.7-4.9-2.1-1.4-1.3-2-2.8-2-4.4zM58 94.5c-2.1 0-4-.7-5.5-2.1-1.6-1.4-2.4-3.3-2.4-5.8 0-2.2.8-4 2.3-5.5 1.5-1.5 3.4-2.2 5.6-2.2 2.2 0 4 .7 5.5 2.2 1.5 1.5 2.2 3.3 2.2 5.5 0 2.4-.8 4.3-2.3 5.7-1.6 1.5-3.4 2.2-5.4 2.2z"/></g></svg>