<svg xmlns="http://www.w3.org/2000/svg" viewBox="200 0 560 560"><path fill="#F0712F" d="M480 0C325.9 0 201 124.9 201 279s124.9 279 279 279m0 0c154.1 0 279-124.9 279-279S634.1 0 480 0M375.4 418.5c-19.3 0-34.9-15.6-34.9-34.9 0-19.3 15.6-34.9 34.9-34.9 19.3 0 34.9 15.6 34.9 34.9-.1 19.3-15.7 34.9-34.9 34.9zm95.9 0c0-72.1-58.7-130.8-130.8-130.8v-52.3c101 0 183.1 82.1 183.1 183.1h-52.3zm104.6 0c0-62.9-24.5-122-68.9-166.5-44.5-44.5-103.6-68.9-166.5-68.9v-52.3c76.9 0 149.1 29.9 203.4 84.3 54.3 54.3 84.3 126.6 84.3 203.4h-52.3z"/></svg>