<svg xmlns="http://www.w3.org/2000/svg" width="50" height="49" viewBox="375 276 50 49"><g fill="#567E87"><path d="M423.223 281h-39.708c-1.4 0-2.515.555-2.515 1.953v39.71c0 1.398 1.114 2.337 2.515 2.337h30.075c3.835-5 9.41-9.205 11.41-12.018v-30.03c0-1.397-.378-1.952-1.777-1.952zM423 311h-6.04l-5.537-6.61-4.522 3.706-10.706-15.32L388.42 311H383v-28h40v28z"/><circle cx="413.491" cy="291.584" r="3.82"/><path d="M381 306h-4v-28h40v3h2v-3.047c0-1.398-.378-1.953-1.777-1.953h-39.708c-1.4 0-2.515.555-2.515 1.953v39.71c0 1.398 1.114 2.337 2.515 2.337H381v-14z"/></g></svg>