<svg xmlns="http://www.w3.org/2000/svg" width="49.095" height="57" viewBox="374 272 49.095 57"><g fill="#567E87"><path d="M395.728 323h.02c2.68 0 4.39 3 4.367 6h8.687s.005-3.68-3.067-3.68c-4.122 0-4.902-3.855-4.21-4.752 2.604-3.39 3.475-12.282-2.456-12.457-5.933.176-5.324 8.7-2.72 12.088.393.518.304 2.802-.622 2.802zM389.07 328.56c-.004.037-.004.06-.004.06h.363l-.36-.06z"/></g><path fill="#567E87" d="M395.124 324.656c-4.905 0-5.834-4.568-5.01-5.64 3.1-4.03 4.137-14.608-2.925-14.815-7.06.208-6.338 10.716-3.236 14.747.823 1.068-.104 5.72-5.01 5.72-3.66 0-3.654 4.333-3.654 4.333h23.488s.006-4.344-3.654-4.344z"/><path fill="#567E87" d="M404.668 306.662c-4.504-.403-8.84-2.584-11.84-6.432-5.747-7.37-4.434-18.004 2.937-23.752 7.37-5.748 18.003-4.433 23.75 2.938 5.747 7.368 4.436 18.003-2.937 23.75a16.828 16.828 0 0 1-7.673 3.358l-1.58 4.704-2.657-4.566z" opacity=".88"/><path fill="#567E87" d="M401.297 272h-26.312c-.714 0-.984.512-.984 1.227v26.742c0 .714.272 1.03.985 1.03h3.08l2.582 5.122 3.056-5.122h17.595c.715 0 1.703-.316 1.703-1.03v-26.743c0-.715-.988-1.227-1.703-1.227z" opacity=".88"/></svg>