<svg xmlns="http://www.w3.org/2000/svg" width="100" height="100" viewBox="0 0 100 100"><path fill-rule="evenodd" clip-rule="evenodd" d="M50 1.125C23.008 1.125 1.125 23.007 1.125 50S23.008 98.875 50 98.875 98.875 76.993 98.875 50 76.992 1.125 50 1.125zm-11.963 64.17l.006-20.496h-7.646v-9.575c5.777-1.646 10.762-7.786 12.598-14.292.705-2.834.78-4.757.78-4.757h10.862v17.458h12.705V44.65H54.567v6.38c.002 4.28-.016 8.564.006 12.846 0 11.348 10.9 6.69 11.893 6.472l3.14 10.362c-2.717 2.875-31.57 9.89-31.57-15.415z"/></svg>