<svg xmlns="http://www.w3.org/2000/svg" width="16" height="16" viewBox="0 0 16 16"><path d="M8 0a8 8 0 1 0 0 16A8 8 0 0 0 8 0zm3.98 6.204l.006.255c0 2.603-1.98 5.603-5.604 5.603a5.574 5.574 0 0 1-3.02-.885 3.952 3.952 0 0 0 2.916-.815 1.973 1.973 0 0 1-1.84-1.368c.122.023.244.034.372.034.18 0 .354-.024.52-.07a1.972 1.972 0 0 1-1.58-1.93v-.025c.265.148.568.236.89.247a1.97 1.97 0 0 1-.61-2.63 5.59 5.59 0 0 0 4.06 2.06 1.97 1.97 0 0 1 3.357-1.796c.45-.09.87-.254 1.252-.48-.148.46-.46.847-.867 1.09a3.948 3.948 0 0 0 1.13-.31c-.263.395-.598.742-.983 1.018z"/></svg>