<svg xmlns="http://www.w3.org/2000/svg" viewBox="0 0 98 98"><path fill="#EE454D" d="M25.7 52.6h3.9v21h3.7v-21h4v-3.4H25.7v3.4zm31.1 2.6c-1.2 0-2.3.7-3.4 2v-8h-3.3v24.5h3.3v-1.8c1.1 1.4 2.2 2 3.4 2 1.3 0 2.2-.7 2.6-2 .2-.8.3-2 .3-3.7v-7.3c0-1.7-.1-2.9-.3-3.7-.4-1.3-1.3-2-2.6-2zm-.3 13.2c0 1.6-.5 2.5-1.4 2.5-.5 0-1.1-.3-1.6-.8V59c.6-.5 1.1-.8 1.6-.8 1 0 1.4.8 1.4 2.5v7.7zm-12.6.9c-.7 1-1.4 1.5-2.1 1.5-.4 0-.7-.3-.8-.8V55.4h-3.3v14.4c0 1.3.1 2.2.3 2.7.3.9 1.1 1.4 2.1 1.4 1.2 0 2.5-.7 3.8-2.2v2h3.3V55.4h-3.3v13.9zm2.9-30.7c1.1 0 1.6-.9 1.6-2.6v-7.8c0-1.7-.5-2.6-1.6-2.6s-1.6.9-1.6 2.6V36c0 1.7.5 2.6 1.6 2.6zM49 0C21.9 0 0 21.9 0 49s21.9 49 49 49 49-21.9 49-49S76.1 0 49 0zm5.4 22.9h3.3v14.9c.1.5.3.8.8.8.7 0 1.4-.5 2.1-1.6V22.9H64v18.4h-3.3v-2c-1.3 1.5-2.6 2.3-3.8 2.3-1.1 0-1.8-.4-2.2-1.4-.2-.6-.3-1.4-.3-2.7V22.9zm-12.6 6c0-2 .3-3.4 1-4.3.9-1.3 2.2-1.9 3.9-1.9 1.7 0 3 .6 3.9 1.9.7.9 1 2.4 1 4.3v6.5c0 2-.3 3.4-1 4.3-.9 1.3-2.2 1.9-3.9 1.9-1.7 0-3-.6-3.9-1.9-.7-.9-1-2.4-1-4.3v-6.5zm-8.9-12.3l2.6 9.7 2.5-9.7h3.7l-4.5 14.7v10h-3.7v-10c-.3-1.8-1.1-4.4-2.3-7.8l-2.4-6.9h4.1zm42.5 58.6c-.7 2.9-3 5.1-5.9 5.4-6.8.8-13.6.8-20.5.8-6.8 0-13.7 0-20.5-.8-2.9-.3-5.2-2.5-5.9-5.4-1-4.1-1-8.7-1-12.9 0-4.3 0-8.8 1-12.9.7-2.9 3-5.1 5.9-5.4 6.8-.8 13.6-.8 20.5-.8 6.8 0 13.7 0 20.5.8 2.9.3 5.2 2.5 5.9 5.4 1 4.1.9 8.7.9 12.9 0 4.3 0 8.8-.9 12.9zm-8.1-20c-1.7 0-3 .6-4 1.9-.7.9-1 2.3-1 4.3v6.4c0 1.9.4 3.4 1.1 4.3 1 1.2 2.3 1.9 4 1.9 1.7 0 3.1-.7 4-2 .4-.6.7-1.2.8-2 0-.3.1-1.1.1-2.1v-.5h-3.4c0 1.3 0 2.1-.1 2.2-.2.9-.7 1.3-1.5 1.3-1.1 0-1.7-.8-1.7-2.5v-3.2h6.6v-3.8c0-1.9-.3-3.4-1-4.3-.9-1.3-2.2-1.9-3.9-1.9zm1.7 7.2h-3.3v-1.7c0-1.7.6-2.5 1.7-2.5s1.6.8 1.6 2.5v1.7z"/></svg>