<?xml version="1.0" encoding="utf-8"?>
<!-- Generator: Adobe Illustrator 18.1.1, SVG Export Plug-In . SVG Version: 6.00 Build 0)  -->
<!DOCTYPE svg PUBLIC "-//W3C//DTD SVG 1.1//EN" "http://www.w3.org/Graphics/SVG/1.1/DTD/svg11.dtd">
<svg version="1.1" id="Layer_1" xmlns="http://www.w3.org/2000/svg" xmlns:xlink="http://www.w3.org/1999/xlink" x="0px" y="0px"
	 viewBox="0 0 1000 1000" enable-background="new 0 0 1000 1000" xml:space="preserve">
<g>
	<path fill="#567E87" d="M230.6,678.4c-21.6-31.2-34.2-69-34.2-109.8c0-106.8,86.6-193.4,193.4-193.4
		c106.8,0,193.4,86.6,193.4,193.4c0,106.8-86.6,193.4-193.4,193.4c-30,0-58.4-7.1-83.7-19.3c-49.5,17-109.7,37.2-109.7,37.2
		L230.6,678.4z"/>
	<path fill="#ACBCC0" d="M760.8,599c26.9-39,42.8-86.2,42.8-137.2c0-133.5-108.3-241.8-241.8-241.8
		c-133.5,0-241.8,108.2-241.8,241.8c0,133.5,108.2,241.8,241.8,241.8c37.5,0,72.9-8.8,104.6-24.1c61.9,21.2,137.1,46.6,137.1,46.6
		L760.8,599z"/>
</g>
</svg>
