<?xml version="1.0" encoding="utf-8"?>
<!-- Generator: Adobe Illustrator 18.1.1, SVG Export Plug-In . SVG Version: 6.00 Build 0)  -->
<!DOCTYPE svg PUBLIC "-//W3C//DTD SVG 1.1//EN" "http://www.w3.org/Graphics/SVG/1.1/DTD/svg11.dtd">
<svg version="1.1" id="Layer_1" xmlns="http://www.w3.org/2000/svg" xmlns:xlink="http://www.w3.org/1999/xlink" x="0px" y="0px"
	 viewBox="0 0 1000 1000" enable-background="new 0 0 1000 1000" xml:space="preserve">
<g>
	<path fill="#567E87" d="M890.6,500h-0.4c-8.4-66-168.6-280-387.1-280c-237,0-386.2,197-393.4,280h-0.3c0,0,0.1-1,0.2,0
		c0,1-0.2,0-0.2,0h0.3c7.2,99,156.4,280,393.4,280c218.5,0,378.7-197,387.1-280H890.6c0,0-0.1,1-0.2,0
		C890.5,499,890.6,500,890.6,500z M492.2,707c-115.9,0-209.9-94-209.9-209.9c0-115.9,94-209.9,209.9-209.9
		c115.9,0,209.9,94,209.9,209.9C702.1,613,608.1,707,492.2,707z"/>
	<path fill="#567E87" d="M497.6,381.6c1.6,6.7,2.6,13.6,2.6,20.8c0,48-38.9,86.9-87,86.9c-6.5,0-12.8-0.8-18.9-2.1
		c1.3,55.9,46.9,100.8,103.1,100.8c57,0,103.2-46.2,103.2-103.2C600.6,427.8,554.5,381.7,497.6,381.6z"/>
</g>
</svg>
