<?xml version="1.0" encoding="utf-8"?>
<!-- Generator: Adobe Illustrator 18.1.1, SVG Export Plug-In . SVG Version: 6.00 Build 0)  -->
<!DOCTYPE svg PUBLIC "-//W3C//DTD SVG 1.1//EN" "http://www.w3.org/Graphics/SVG/1.1/DTD/svg11.dtd">
<svg version="1.1" id="Layer_1" xmlns="http://www.w3.org/2000/svg" xmlns:xlink="http://www.w3.org/1999/xlink" x="0px" y="0px"
	 viewBox="0 0 120 120" enable-background="new 0 0 120 120" xml:space="preserve">
<g>
	<path fill="#FFFFFF" d="M100.7,70.4L46,15.5l0,0l-0.1-0.1C43.5,13,34.7,17.7,26.3,26c-8.3,8.4-13,17.1-10.6,19.6l0.1,0.1l0,0
		L28.1,58l0,0l42.1,42.3l36.2,5.7L100.7,70.4z M49.4,26.3c-11.1,6.6-20.3,17.2-23.1,22.3C18.9,38.8,40.3,19.8,49.4,26.3z M32.5,54.7
		L28,50.4c3-4.2,12.9-17.3,23.6-22l5.6,5.4c0,0-3.2,0.1-13.9,10C35.5,51,32.5,54.7,32.5,54.7z M92.3,98.4l-20.4-2.6l5.4-17.5
		l16.1-6.2l-18,3.1L44.8,45.1c0,0,11.8-11.1,14.3-9.1l35.3,35.7l0.9-0.4L99,91.8L92.3,98.4z"/>
	<polygon fill="#FFFFFF" points="81.7,15 81.7,31.7 65,31.7 65,48.3 81.7,48.3 81.7,65 98.3,65 98.3,48.3 115,48.3 115,31.7 
		98.3,31.7 98.3,15 	"/>
</g>
</svg>
