<?xml version="1.0" encoding="utf-8"?>
<!-- Generator: Adobe Illustrator 18.1.1, SVG Export Plug-In . SVG Version: 6.00 Build 0)  -->
<!DOCTYPE svg PUBLIC "-//W3C//DTD SVG 1.1//EN" "http://www.w3.org/Graphics/SVG/1.1/DTD/svg11.dtd">
<svg version="1.1" id="Layer_1" xmlns="http://www.w3.org/2000/svg" xmlns:xlink="http://www.w3.org/1999/xlink" x="0px" y="0px"
	 viewBox="0 0 120 120" enable-background="new 0 0 120 120" xml:space="preserve">
<g>
	<path fill="#1A6498" d="M95.2,101.2c10.5-9.8,17.1-23.8,17.1-39.3c0-29.7-24.1-53.8-53.8-53.8S4.7,32.3,4.7,62
		c0,29.7,24.1,53.8,53.8,53.8c9.4,0,18.1-2.4,25.8-6.6l13.2,8.7l3.2-6.4L95.2,101.2z"/>
	<path fill="#2283C5" d="M98.4,94.9c10.5-9.8,17.1-23.8,17.1-39.3c0-29.7-24.1-53.8-53.8-53.8C32,1.8,7.9,25.9,7.9,55.6
		c0,29.7,24.1,53.8,53.8,53.8c9.4,0,18.1-2.4,25.8-6.6l13.2,8.7L98.4,94.9z"/>
	<path opacity="0.68" fill="#1A6498" d="M7.4,63.1l40.2-35.5c0,0,11.8-2.7,18.5,0c6.7,2.7,17,13.9,14.1,20.6
		c-2.8,6.7-9.9,23-8.9,28.1c0.9,5,0.3,7.7-1.6,10.1l-21.6,21.4c0,0-15.7-2.3-27.8-17.8C8.2,74.5,7.4,63.1,7.4,63.1z"/>
	<g>
		<path fill="#1A6498" d="M60.6,35.8c-0.6,0-1.3,0.1-1.9,0.2c-0.1,0-0.2,0-0.4,0.1c0,0-0.1,0-0.1,0c0,0-0.1,0-0.1,0l0,0
			c-0.8,0.3-1.2,1.1-1,2c0.2,0.8,0.9,1.3,1.7,1.3c0,0,1.1-0.2,1.7-0.2c3.5,0,5.9,2.9,6.3,6.2c0.1,0.6-0.1,1.3,0.2,1.9
			c0.5,0.9,1.6,1.2,2.5,0.7c0.4-0.2,0.7-0.6,0.9-1.1l0,0c0-0.4,0.1-0.8,0.1-1.2C70.6,40.2,66.1,35.8,60.6,35.8z"/>
		<path fill="#1A6498" d="M82.3,46.9c0-12.6-10.9-22.8-22.7-22.8c-12.6,0-22.8,10.2-22.8,22.8c0,12.9,9.3,16,9.9,25.3
			c0.2,3.1,0,10,0,10c0,1.2,1.5,2.7,2.8,2.7h6c0.1,1,1.8,3.9,3.9,3.9c0.1,0,0.1,0,0.2,0c0,0,0,0,0,0c2.1,0,3.7-2.9,3.8-3.9h6
			c1.2,0,2.8-1.5,2.8-2.7c0,0-0.2-7,0-10.1C72.9,62.9,82.3,59.8,82.3,46.9z M67,78.8c0,1.1-1.1,2.2-2.2,2.2h-5.2h-5.5
			C53,81,52,80,52,78.8v-0.3c0-1.1,1-2.6,2.1-2.6h5.5h5.2c1.1,0,2.2,1.5,2.2,2.6V78.8z M67.6,70.6c0,0.4-2.6,0.4-3.7,0.4H63v-8.9
			c0-2.1-1.9-3.8-4-3.8c-2.1,0-4,1.7-4,3.8v9.1c-1,0-3.7-0.1-3.7-0.5c-0.7-9.9-9-14.2-9-23.9c0-9.5,7.3-17.2,16.8-17.2
			c0.1,0,0.3,0,0.4,0c0,0,0.2,0,0.3,0c9.5,0,16.7,7.6,16.7,17.1C76.6,56.4,68.3,60.7,67.6,70.6z"/>
	</g>
	<g>
		<path fill="#FFFFFF" d="M62,35c-0.6,0-1.2,0.1-1.7,0.2c-0.1,0-0.2,0-0.3,0c0,0-0.1,0-0.1,0c0,0,0,0-0.1,0l0,0
			c-0.7,0.3-1.2,1.1-1,1.8c0.2,0.7,0.9,1.2,1.6,1.2c0,0,1-0.2,1.6-0.2c3.3,0,5.5,2.7,5.9,5.8c0.1,0.6-0.1,1.2,0.2,1.8
			c0.5,0.8,1.5,1.1,2.3,0.7c0.4-0.2,0.7-0.6,0.8-1l0,0c0-0.4,0.1-0.8,0.1-1.1C71.2,39.1,67.1,35,62,35z"/>
		<path fill="#FFFFFF" d="M82.1,45.4C82.1,33.7,72,24.2,61,24.2c-11.7,0-21.2,9.5-21.2,21.2c0,12,8.7,14.9,9.2,23.6
			c0.2,2.9,0,9.4,0,9.4c0,1.1,1.4,2.6,2.6,2.6h5.6c0.1,1,1.7,3.6,3.6,3.6c0.1,0,0.1,0,0.2,0c0,0,0,0,0,0c2,0,3.5-2.6,3.5-3.6h5.6
			c1.1,0,2.6-1.4,2.6-2.6c0,0-0.2-6.5,0-9.4C73.4,60.3,82.1,57.4,82.1,45.4z M68,75.1c0,1-1.1,1.9-2.1,1.9H61h-5.1
			c-1,0-1.9-0.8-1.9-1.9v-0.2c0-1,0.8-1.9,1.9-1.9H61h4.9c1,0,2.1,0.8,2.1,1.9V75.1z M68.4,67.5c0,0.4-2.4,0.5-3.4,0.5h-1v-8.5
			c0-1.9-1.6-3.5-3.5-3.5c-1.9,0-3.5,1.6-3.5,3.5V68c-1,0-3.5-0.1-3.6-0.5C52.8,58.3,45,54.3,45,45.2c0-8.9,6.8-16,15.6-16
			c0.1,0,0.3,0,0.4,0c0,0,0.2,0,0.3,0c8.9,0,15.5,7.1,15.5,16C76.8,54.3,69.1,58.3,68.4,67.5z"/>
	</g>
</g>
</svg>
