<?xml version="1.0" encoding="utf-8"?>
<!-- Generator: Adobe Illustrator 18.1.1, SVG Export Plug-In . SVG Version: 6.00 Build 0)  -->
<!DOCTYPE svg PUBLIC "-//W3C//DTD SVG 1.1//EN" "http://www.w3.org/Graphics/SVG/1.1/DTD/svg11.dtd">
<svg version="1.1" id="Layer_1" xmlns="http://www.w3.org/2000/svg" xmlns:xlink="http://www.w3.org/1999/xlink" x="0px" y="0px"
	 viewBox="0 0 120 120" enable-background="new 0 0 120 120" xml:space="preserve">
<g>
	<path fill="#1A6498" d="M95.2,101.2c10.5-9.8,17.1-23.8,17.1-39.3c0-29.7-24.1-53.8-53.8-53.8S4.7,32.3,4.7,62
		c0,29.7,24.1,53.8,53.8,53.8c9.4,0,18.1-2.4,25.8-6.6l13.2,8.7l3.2-6.4L95.2,101.2z"/>
	<path fill="#2283C5" d="M98.4,94.9c10.5-9.8,17.1-23.8,17.1-39.3c0-29.7-24.1-53.8-53.8-53.8C32,1.8,7.9,25.9,7.9,55.6
		c0,29.7,24.1,53.8,53.8,53.8c9.4,0,18.1-2.4,25.8-6.6l13.2,8.7L98.4,94.9z"/>
	<path opacity="0.68" fill="#1A6498" d="M63.2,78.9c-0.9-5-8-23.2-1.5-26.4c2.6-1.3,5.8-1.9,6.4-6L62.7,47l-8.8-0.5l14.4-13.8
		L61.3,30c-0.2-0.9,0.2,0.8,0,0c-2.1-6.9-6.9-3.3-6.9-3.3l-45,35.3c0,0-1.1,12.4,11,27.9c12.1,15.5,27.8,17.8,27.8,17.8l24.4-18.8
		C76.1,80.9,64.2,83.9,63.2,78.9z"/>
	<g>
		<path fill="#1A6498" d="M66.4,47.8c0.1,4.4,0.2,12.4,0.2,23.7l-0.1,10.2c0,2.1,0.3,3.4,1,4.1c0.7,0.7,1.8,1.2,3.4,1.4
			c1.8,0.2,2.7,0.7,2.7,1.5c0,0.9-0.7,1.3-2.1,1.3c-0.7,0-1.8,0-3.5-0.1c-3.5-0.2-6.9-0.3-10.4-0.3c-1.7,0-3.4,0.1-5.1,0.3
			c-1,0.1-1.8,0.2-2.1,0.2c-1.4,0-2.1-0.4-2.1-1.3c0-0.8,0.9-1.3,2.8-1.5c2.4-0.2,3.8-1,4.1-2.5c0.3-1.4,0.4-4.3,0.4-8.6
			c0-5.6-0.1-10.7-0.3-15.4c-0.2-4.7-0.5-7.4-1-8c-0.5-0.7-1.7-1.1-3.7-1.3c-1.6-0.2-2.3-0.6-2.3-1.4s0.8-1.2,2.4-1.3l1-0.1
			L66.4,47.8z M65.8,31.7c0,1.9-0.7,3.5-2,4.8c-1.3,1.3-3,2-4.8,2c-1.9,0-3.5-0.7-4.9-2c-1.3-1.3-2-3-2-4.8c0-1.9,0.7-3.5,2-4.9
			c1.3-1.3,3-2,4.9-2c1.9,0,3.5,0.7,4.8,2C65.1,28.1,65.8,29.8,65.8,31.7z"/>
	</g>
	<g>
		<path fill="#FFFFFF" stroke="#1A6498" stroke-miterlimit="10" d="M68.1,45.6c0.1,4.3,0.2,12,0.2,23.1l-0.1,10c0,2,0.3,3.4,1,4
			c0.7,0.7,1.8,1.1,3.3,1.3c1.7,0.2,2.6,0.7,2.6,1.5c0,0.8-0.7,1.3-2,1.3c-0.6,0-1.8,0-3.4-0.1c-3.4-0.2-6.8-0.3-10.1-0.3
			c-1.6,0-3.3,0.1-5,0.3c-1,0.1-1.7,0.2-2.1,0.2c-1.4,0-2-0.4-2-1.3c0-0.8,0.9-1.3,2.7-1.4c2.4-0.2,3.7-1,4-2.4
			c0.3-1.4,0.4-4.2,0.4-8.4c0-5.4-0.1-10.4-0.3-15c-0.2-4.6-0.5-7.2-1-7.8c-0.5-0.6-1.7-1.1-3.6-1.3c-1.5-0.2-2.3-0.6-2.3-1.3
			c0-0.7,0.8-1.2,2.3-1.3l1-0.1L68.1,45.6z M67.5,29.9c0,1.8-0.7,3.4-2,4.7c-1.3,1.3-2.9,2-4.7,2c-1.9,0-3.4-0.7-4.7-2
			c-1.3-1.3-1.9-2.9-1.9-4.7c0-1.9,0.6-3.4,1.9-4.7c1.3-1.3,2.9-1.9,4.7-1.9c1.8,0,3.4,0.6,4.7,1.9C66.8,26.5,67.5,28.1,67.5,29.9z"
			/>
	</g>
</g>
</svg>
