<?xml version="1.0" encoding="utf-8"?>
<!-- Generator: Adobe Illustrator 18.1.1, SVG Export Plug-In . SVG Version: 6.00 Build 0)  -->
<!DOCTYPE svg PUBLIC "-//W3C//DTD SVG 1.1//EN" "http://www.w3.org/Graphics/SVG/1.1/DTD/svg11.dtd">
<svg version="1.1" id="Layer_1" xmlns="http://www.w3.org/2000/svg" xmlns:xlink="http://www.w3.org/1999/xlink" x="0px" y="0px"
	 viewBox="0 0 120 120" enable-background="new 0 0 120 120" xml:space="preserve">
<path fill="#557D86" d="M96.4,97.9c10.5-9.8,17.1-23.8,17.1-39.3c0-29.7-24.1-53.8-53.8-53.8C30,4.8,5.9,28.9,5.9,58.6
	s24.1,53.8,53.8,53.8c9.4,0,18.1-2.4,25.8-6.6l13.2,8.7L96.4,97.9z"/>
<g>
	<path fill="#FFFFFF" d="M42.1,46.4c0-2.3,0.7-4.7,2.2-7.1c1.5-2.4,3.7-4.4,6.5-5.9c2.9-1.6,6.2-2.3,10-2.3c3.5,0,6.7,0.7,9.4,2
		s4.8,3.1,6.3,5.3s2.2,4.7,2.2,7.3c0,2.1-0.4,3.9-1.3,5.5c-0.8,1.6-1.8,2.9-3,4s-3.2,3-6.2,5.7c-0.8,0.8-1.5,1.4-2,2
		s-0.9,1.1-1.1,1.6s-0.4,1-0.6,1.4c-0.1,0.5-0.3,1.3-0.6,2.5c-0.5,2.5-1.9,3.8-4.4,3.8c-1.3,0-2.3-0.4-3.2-1.2
		c-0.8-0.8-1.3-2-1.3-3.7c0-2.1,0.3-3.8,1-5.3c0.6-1.5,1.5-2.8,2.5-4c1-1.1,2.5-2.5,4.3-4c1.6-1.4,2.7-2.4,3.4-3.1
		c0.7-0.7,1.3-1.5,1.8-2.3c0.5-0.9,0.7-1.8,0.7-2.8c0-2-0.7-3.6-2.2-4.9c-1.5-1.3-3.3-2-5.6-2c-2.7,0-4.7,0.7-5.9,2
		c-1.3,1.4-2.3,3.4-3.2,6C51,49.7,49.4,51,47.1,51c-1.4,0-2.5-0.5-3.5-1.4C42.5,48.6,42.1,47.5,42.1,46.4z M59.9,86.6
		c-1.5,0-2.8-0.5-3.9-1.4c-1.1-1-1.7-2.3-1.7-4c0-1.5,0.5-2.8,1.6-3.9s2.4-1.6,4-1.6c1.5,0,2.8,0.5,3.9,1.6c1,1,1.6,2.3,1.6,3.9
		c0,1.7-0.5,3.1-1.6,4C62.7,86.1,61.4,86.6,59.9,86.6z"/>
</g>
</svg>
