<?xml version="1.0" encoding="utf-8"?>
<!-- Generator: Adobe Illustrator 18.1.1, SVG Export Plug-In . SVG Version: 6.00 Build 0)  -->
<!DOCTYPE svg PUBLIC "-//W3C//DTD SVG 1.1//EN" "http://www.w3.org/Graphics/SVG/1.1/DTD/svg11.dtd">
<svg version="1.1" id="Layer_1" xmlns="http://www.w3.org/2000/svg" xmlns:xlink="http://www.w3.org/1999/xlink" x="0px" y="0px"
	 viewBox="0 0 120 120" enable-background="new 0 0 120 120" xml:space="preserve">
<path fill="#557D86" d="M96.4,97.9c10.5-9.8,17.1-23.8,17.1-39.3c0-29.7-24.1-53.8-53.8-53.8C30,4.8,5.9,28.9,5.9,58.6
	c0,29.7,24.1,53.8,53.8,53.8c9.4,0,18.1-2.4,25.8-6.6l13.2,8.7L96.4,97.9z"/>
<g>
	<path fill="#FFFFFF" d="M61,38c-0.6,0-1.2,0.1-1.7,0.2c-0.1,0-0.2,0-0.3,0c0,0-0.1,0-0.1,0c0,0,0,0-0.1,0l0,0
		c-0.7,0.3-1.2,1.1-1,1.8c0.2,0.7,0.9,1.2,1.6,1.2c0,0,1-0.2,1.6-0.2c3.3,0,5.5,2.7,5.9,5.8c0.1,0.6-0.1,1.2,0.2,1.8
		c0.5,0.8,1.5,1.1,2.3,0.7c0.4-0.2,0.7-0.6,0.8-1l0,0c0-0.4,0.1-0.8,0.1-1.1C70.2,42.1,66.1,38,61,38z"/>
	<path fill="#FFFFFF" d="M81.1,48.4C81.1,36.7,71,27.2,60,27.2c-11.7,0-21.2,9.5-21.2,21.2c0,12,8.7,14.9,9.2,23.6
		c0.2,2.9,0,9.4,0,9.4c0,1.1,1.4,2.6,2.6,2.6h5.6c0.1,1,1.7,3.6,3.6,3.6c0.1,0,0.1,0,0.2,0c0,0,0,0,0,0c2,0,3.5-2.6,3.5-3.6h5.6
		c1.1,0,2.6-1.4,2.6-2.6c0,0-0.2-6.5,0-9.4C72.4,63.3,81.1,60.4,81.1,48.4z M67,78.1c0,1-1.1,1.9-2.1,1.9H60h-5.1
		c-1,0-1.9-0.8-1.9-1.9v-0.2c0-1,0.8-1.9,1.9-1.9H60h4.9c1,0,2.1,0.8,2.1,1.9V78.1z M67.4,70.5c0,0.4-2.4,0.5-3.4,0.5h-1v-8.5
		c0-1.9-1.6-3.5-3.5-3.5S56,60.6,56,62.5V71c-1,0-3.5-0.1-3.6-0.5C51.8,61.3,44,57.3,44,48.2c0-8.9,6.8-16,15.6-16
		c0.1,0,0.3,0,0.4,0c0,0,0.2,0,0.3,0c8.9,0,15.5,7.1,15.5,16C75.8,57.3,68.1,61.3,67.4,70.5z"/>
</g>
</svg>
