<?xml version="1.0" encoding="utf-8"?>
<!-- Generator: Adobe Illustrator 18.1.1, SVG Export Plug-In . SVG Version: 6.00 Build 0)  -->
<!DOCTYPE svg PUBLIC "-//W3C//DTD SVG 1.1//EN" "http://www.w3.org/Graphics/SVG/1.1/DTD/svg11.dtd">
<svg version="1.1" id="Layer_1" xmlns="http://www.w3.org/2000/svg" xmlns:xlink="http://www.w3.org/1999/xlink" x="0px" y="0px"
	 viewBox="0 0 120 120" enable-background="new 0 0 120 120" xml:space="preserve">
<g>
	<g>
		<path fill="#A36B31" d="M115.3,88.1l-2-77.7c0-2.2-1.9-3.9-4.1-3.9L10.8,3.1C8.6,3.1,2,5.8,2,10.6v102.8c0,2.2,2.3,3.6,4.5,3.6
			h79.4C93.4,110,107.5,95.9,115.3,88.1z"/>
		<path fill="#DF8D39" d="M117,85.9V4.5c0-2.2-0.4-2.5-2.7-2.5H11.5C9.3,2,7,2.3,7,4.5v102.8c0,2.2,2.3,4.7,4.5,4.7h80.4
			C100.7,104,113,91.4,117,85.9z"/>
		<polygon opacity="0.7" fill="#A36B31" points="33.9,114 87.1,58.4 75.3,31.2 36.7,27.3 7.2,55.4 6.5,113.4 		"/>
		<g>
			<path opacity="0.7" fill="#FFFEFD" d="M117.1,87H93.8c-1.8,0-3.8,0.1-3.8,1.8v23.3L117.1,87z"/>
		</g>
	</g>
	<path fill="#A36B31" d="M34.7,29.4h31.9c7,0,12.2,1.7,15.6,5c3.5,3.3,5.2,8,5.2,14.1c0,6.3-1.9,11.2-5.7,14.7
		c-3.8,3.5-9.5,5.3-17.3,5.3H53.9v23.1H34.7V29.4z M53.9,55.8h4.7c3.7,0,6.3-0.6,7.8-1.9c1.5-1.3,2.2-2.9,2.2-4.9c0-2-0.6-3.6-1.9-5
		c-1.3-1.4-3.7-2-7.3-2h-5.5V55.8z"/>
	<path fill="#FFFFFF" d="M36.7,27.3h31.9c7,0,12.2,1.7,15.6,5c3.5,3.3,5.2,8,5.2,14.1c0,6.3-1.9,11.2-5.7,14.7
		c-3.8,3.5-9.5,5.3-17.3,5.3H56v23.1H36.7V27.3z M56,53.8h4.7c3.7,0,6.3-0.6,7.8-1.9c1.5-1.3,2.2-2.9,2.2-4.9c0-1.9-0.7-3.6-1.9-5
		c-1.3-1.4-3.7-2-7.3-2H56V53.8z"/>
</g>
</svg>
