<?xml version="1.0" encoding="utf-8"?>
<!-- Generator: Adobe Illustrator 18.1.1, SVG Export Plug-In . SVG Version: 6.00 Build 0)  -->
<!DOCTYPE svg PUBLIC "-//W3C//DTD SVG 1.1//EN" "http://www.w3.org/Graphics/SVG/1.1/DTD/svg11.dtd">
<svg version="1.1" id="Layer_1" xmlns="http://www.w3.org/2000/svg" xmlns:xlink="http://www.w3.org/1999/xlink" x="0px" y="0px"
	 viewBox="0 0 120 120" enable-background="new 0 0 120 120" xml:space="preserve">
<g>
	<path fill="#B54235" d="M114.9,88.1l-2-77.9c0-2.2-1.9-3.9-4.1-3.9L10.4,2.9C8.2,2.9,2,5.6,2,10.4v103.1c0,2.2,1.5,3.5,3.7,3.5
		h79.6C92.9,110.3,107,95.9,114.9,88.1z"/>
	<path fill="#EB4C3A" d="M117,86V4.4c0-2.2-0.9-2.4-3.1-2.4H10.8C8.5,2,5,2.1,5,4.4v103.1c0,2.2,3.5,4.5,5.8,4.5h80.6
		C100.2,103.7,110.3,91.5,117,86z"/>
	<g>
		<path opacity="0.7" fill="#FFFEFD" d="M116.7,87H93.3c-1.8,0-3.3,0.2-3.3,1.9v23.3L116.7,87z"/>
	</g>
	<path opacity="0.87" fill="#B54235" d="M47.5,22.7L11.1,57.9L4,64.8V112c0,0,53.7,1.2,53.7,4c0,2.9,40.1-36.8,40.1-36.8L60.3,63
		L47.5,22.7z"/>
	<path fill="none" stroke="#A33428" stroke-width="8" stroke-miterlimit="10" d="M53.6,23.1c9,0,6.1,17-4.6,38
		c-10.7,21-23.6,34.1-27.4,29.1C15.4,82,42,72.8,57.6,69.4c21.9-4.8,40.9,4,35.4,9.6C78.2,93.9,35.7,23.1,53.6,23.1z"/>
	<path fill="none" stroke="#FFFFFF" stroke-width="4" stroke-miterlimit="10" d="M56.7,21.1c9,0,6.1,17-4.6,38
		c-10.7,21-23.6,34.1-27.4,29.1c-6.2-8.2,20.4-17.4,36-20.8c21.9-4.8,40.9,4,35.4,9.6C81.2,91.9,38.7,21.1,56.7,21.1z"/>
</g>
</svg>
