<?xml version="1.0" encoding="utf-8"?>
<!-- Generator: Adobe Illustrator 18.1.1, SVG Export Plug-In . SVG Version: 6.00 Build 0)  -->
<!DOCTYPE svg PUBLIC "-//W3C//DTD SVG 1.1//EN" "http://www.w3.org/Graphics/SVG/1.1/DTD/svg11.dtd">
<svg version="1.1" id="Layer_1" xmlns="http://www.w3.org/2000/svg" xmlns:xlink="http://www.w3.org/1999/xlink" x="0px" y="0px"
	 viewBox="0 0 120 120" enable-background="new 0 0 120 120" xml:space="preserve">
<path fill="#999999" d="M103,12H18.7c-3,0-6.7,1.8-6.7,4.7V101c0,3,3.8,6,6.7,6h63.8c8.1-9,19.4-20.6,24.4-26.5V16.7
	C107,13.8,106,12,103,12z M55,77.8c-1.9,1.9-4.6,2.8-7.5,2.8c-2.5,0-5.5-0.6-7.5-1.8v-5.1c2,1.5,5.2,2.3,7.5,2.3c1.6,0,3-0.5,4-1.4
	c1-0.9,1.5-2.2,1.5-3.7c0-1.3-0.3-2.4-1.1-3.4c-0.5-0.5-1-0.9-1.5-1.2c-0.6-0.3-2.4-0.5-4.3-0.7l-1,0V61h1.6c2,0,3.6-0.3,4.6-1.1
	c1.1-0.8,1.6-2,1.6-3.6c0-1.4-0.5-2.6-1.5-3.5c-1-0.9-2.7-1.3-4.3-1.3c-1.7,0-4.9,0.5-5.9,1.6v-4.4c1-0.9,4.2-1.4,6.5-1.4
	c3,0,5.5,0.8,7.2,2.3c1.7,1.6,2.7,3.7,2.7,6.4c0,1.6-0.3,3-1,4.1c-0.7,1.1-1.7,2.1-3.2,2.9c1.3,0.5,2.2,1.1,2.8,1.8
	c0.6,0.7,1,1.6,1.4,2.6c0.3,1,0.5,2.1,0.5,3.3C57.9,73.6,56.9,75.9,55,77.8z M75,80h-5V48h5V80z M81,100.9V84.6
	c0-2.3,3.3-3.6,5.5-3.6H102L81,100.9z M102,37H17V17h85V37z"/>
</svg>
