<?xml version="1.0" encoding="utf-8"?>
<!-- Generator: Adobe Illustrator 18.1.1, SVG Export Plug-In . SVG Version: 6.00 Build 0)  -->
<!DOCTYPE svg PUBLIC "-//W3C//DTD SVG 1.1//EN" "http://www.w3.org/Graphics/SVG/1.1/DTD/svg11.dtd">
<svg version="1.1" id="Layer_1" xmlns="http://www.w3.org/2000/svg" xmlns:xlink="http://www.w3.org/1999/xlink" x="0px" y="0px"
	 viewBox="0 0 30 30" enable-background="new 0 0 30 30" xml:space="preserve">
<circle fill="#557D86" cx="6.1" cy="4.6" r="1.3"/>
<circle fill="#557D86" cx="24.2" cy="4.6" r="1.3"/>
<path fill="#557D86" d="M28.4,0H1.8C0.9,0,0,0.6,0,1.6v26.6C0,29.1,0.9,30,1.8,30H22c2.6-2.8,6.3-6.4,8-8.3V1.6
	C30,0.6,29.4,0,28.4,0z M13.3,20.8c-0.6,0.6-1.2,0.9-2.2,0.9c-0.8,0-1.1-0.2-2.1-0.6v-1.6c1,0.5,1.4,0.7,2.1,0.7
	c0.5,0,0.8-0.1,1.1-0.4c0.3-0.3,0.4-0.7,0.4-1.2c0-0.4-0.1-0.8-0.4-1.1c-0.1-0.2-0.3-0.3-0.5-0.4c-0.2-0.1-0.8-0.2-1.4-0.2L10,17v-1
	h0.6c0.6,0,1.1-0.3,1.5-0.6c0.3-0.3,0.5-0.7,0.5-1.2c0-0.5-0.2-0.9-0.5-1.2c-0.3-0.3-0.8-0.4-1.3-0.4c-0.5,0-0.8,0.1-1.8,0.5v-1.4
	c1-0.3,1.3-0.4,2-0.4c0.9,0,1.7,0.2,2.2,0.7c0.5,0.5,0.8,1.2,0.8,2c0,0.5-0.1,1-0.3,1.3c-0.2,0.4-0.5,0.7-1,0.9
	c0.4,0.2,0.7,0.3,0.9,0.6c0.2,0.2,0.3,0.5,0.4,0.8c0.1,0.3,0.2,0.7,0.2,1C14.2,19.5,13.9,20.2,13.3,20.8z M20,22h-2V11h2V22z
	 M22,28.1V23c0-0.7,0.5-1,1.2-1h4.9L22,28.1z M28,8H2V2h26V8z"/>
</svg>
