<?xml version="1.0" encoding="utf-8"?>
<!-- Generator: Adobe Illustrator 18.1.1, SVG Export Plug-In . SVG Version: 6.00 Build 0)  -->
<!DOCTYPE svg PUBLIC "-//W3C//DTD SVG 1.1//EN" "http://www.w3.org/Graphics/SVG/1.1/DTD/svg11.dtd">
<svg version="1.1" id="Layer_1" xmlns="http://www.w3.org/2000/svg" xmlns:xlink="http://www.w3.org/1999/xlink" x="0px" y="0px"
	 viewBox="0 0 120 120" enable-background="new 0 0 120 120" xml:space="preserve">
<g>
	<path fill="#1B6498" d="M117.3,89.6l-2.1-80.5c0-2.3-1.9-4.2-4.2-4.2L9.3,1.5C7,1.5,0,4.2,0,9.1v106c0,2.3,2.7,4.9,5,4.9h81.9
		C94.7,111.4,109.2,97.7,117.3,89.6z"/>
	<path fill="#567D98" d="M120,86.8v-84c0-2.3-1.4-2.8-3.7-2.8h-106C7.9,0,7,0.5,7,2.8v106c0,2.3,0.9,4.1,3.2,4.1h82.9
		C102.3,105,114.9,92.5,120,86.8z"/>
	<g>
		<path opacity="0.7" fill="#FFFFFF" d="M119.1,86h-24c-1.8,0-2.1,2-2.1,3.8v24L119.1,86z"/>
	</g>
	<polygon display="none" opacity="0.6" fill="#6B7E84" points="31.2,26.2 3,53.5 3,113 55.5,113 93.4,75.3 84.1,64.8 93.3,55.7 
		85.1,47.5 92.5,37.7 	"/>
</g>
<g>
	<path opacity="0.68" fill="#1A6498" d="M59.8,88.5c3.9-21.2-4.5-29,5-33.6c3.7-1.8,9.9-7.2,10.8-13.2l2.9-8.4l-9.9-10.9l-5.7-5.1
		L57,17.7c-0.2-1.3,0.9-0.8,0,0c-8.3,7.2-14.8,2.6-14.8,2.6l-62.5,51c0,0-1.1,16.3,16.4,38.7C13.7,132.5,24.8,126,24.8,126
		l38.6-33.6C68.7,80.8,58.5,95.8,59.8,88.5z"/>
	<g>
		<path fill="#1A6498" d="M30.1,39.8c0-3.3,1.1-6.6,3.2-10c2.1-3.4,5.2-6.2,9.3-8.4c4.1-2.2,8.8-3.3,14.2-3.3c5,0,9.5,0.9,13.3,2.8
			c3.9,1.9,6.8,4.4,8.9,7.6c2.1,3.2,3.2,6.7,3.2,10.4c0,3-0.6,5.5-1.8,7.8c-1.2,2.2-2.6,4.1-4.3,5.8c-1.6,1.6-4.6,4.3-8.9,8.2
			c-1.2,1.1-2.1,2-2.8,2.8c-0.7,0.8-1.2,1.6-1.6,2.2c-0.3,0.7-0.6,1.4-0.8,2c-0.2,0.7-0.5,1.9-0.9,3.6c-0.7,3.6-2.7,5.4-6.2,5.4
			c-1.8,0-3.3-0.6-4.6-1.8c-1.2-1.2-1.8-2.9-1.8-5.3c0-2.9,0.4-5.4,1.4-7.6c0.9-2.1,2.1-4,3.6-5.6c1.5-1.6,3.5-3.5,6-5.8
			c2.2-1.9,3.8-3.4,4.8-4.4c1-1,1.8-2.1,2.5-3.3c0.7-1.2,1-2.5,1-4c0-2.8-1-5.1-3.1-7c-2.1-1.9-4.7-2.9-8-2.9c-3.8,0-6.6,1-8.4,2.9
			c-1.8,1.9-3.3,4.8-4.6,8.5c-1.2,3.9-3.4,5.9-6.7,5.9c-1.9,0-3.6-0.7-4.9-2.1C30.8,42.9,30.1,41.4,30.1,39.8z M55.5,96.9
			c-2.1,0-4-0.7-5.5-2.1c-1.6-1.4-2.4-3.3-2.4-5.8c0-2.2,0.8-4,2.3-5.5c1.5-1.5,3.4-2.2,5.6-2.2c2.2,0,4,0.7,5.5,2.2
			c1.5,1.5,2.2,3.3,2.2,5.5c0,2.4-0.8,4.3-2.3,5.7C59.4,96.3,57.6,96.9,55.5,96.9z"/>
	</g>
	<g>
		<path fill="#FFFFFF" stroke="#1A6498" stroke-miterlimit="10" d="M32.6,37.4c0-3.3,1.1-6.6,3.2-10c2.1-3.4,5.2-6.2,9.3-8.4
			c4.1-2.2,8.8-3.3,14.2-3.3c5,0,9.5,0.9,13.3,2.8c3.9,1.9,6.8,4.4,8.9,7.6c2.1,3.2,3.2,6.7,3.2,10.4c0,3-0.6,5.5-1.8,7.8
			c-1.2,2.2-2.6,4.1-4.3,5.8c-1.6,1.6-4.6,4.3-8.9,8.2c-1.2,1.1-2.1,2-2.8,2.8c-0.7,0.8-1.2,1.6-1.6,2.2c-0.3,0.7-0.6,1.4-0.8,2
			c-0.2,0.7-0.5,1.9-0.9,3.6c-0.7,3.6-2.7,5.4-6.2,5.4c-1.8,0-3.3-0.6-4.6-1.8c-1.2-1.2-1.8-2.9-1.8-5.3c0-2.9,0.4-5.4,1.4-7.6
			c0.9-2.1,2.1-4,3.6-5.6c1.5-1.6,3.5-3.5,6-5.8c2.2-1.9,3.8-3.4,4.8-4.4c1-1,1.8-2.1,2.5-3.3c0.7-1.2,1-2.5,1-4c0-2.8-1-5.1-3.1-7
			c-2.1-1.9-4.7-2.9-8-2.9c-3.8,0-6.6,1-8.4,2.9c-1.8,1.9-3.3,4.8-4.6,8.5c-1.2,3.9-3.4,5.9-6.7,5.9c-1.9,0-3.6-0.7-4.9-2.1
			C33.2,40.5,32.6,39,32.6,37.4z M58,94.5c-2.1,0-4-0.7-5.5-2.1c-1.6-1.4-2.4-3.3-2.4-5.8c0-2.2,0.8-4,2.3-5.5
			c1.5-1.5,3.4-2.2,5.6-2.2c2.2,0,4,0.7,5.5,2.2c1.5,1.5,2.2,3.3,2.2,5.5c0,2.4-0.8,4.3-2.3,5.7C61.8,93.8,60,94.5,58,94.5z"/>
	</g>
</g>
</svg>
