<?xml version="1.0" encoding="utf-8"?>
<!-- Generator: Adobe Illustrator 15.0.0, SVG Export Plug-In . SVG Version: 6.00 Build 0)  -->
<!DOCTYPE svg PUBLIC "-//W3C//DTD SVG 1.1//EN" "http://www.w3.org/Graphics/SVG/1.1/DTD/svg11.dtd">
<svg version="1.1" id="Layer_1" xmlns="http://www.w3.org/2000/svg" xmlns:xlink="http://www.w3.org/1999/xlink" x="0px" y="0px"
	 width="44px" height="53.923px" viewBox="377.999 273.086 44 53.923" enable-background="new 377.999 273.086 44 53.923"
	 xml:space="preserve">
<path fill="#567E87" d="M419.616,283H414v-1.893c0,0-3.797-0.299-5.59-1.891c-2.758-2.453-3.28-6.13-8.973-6.13
	c-5.691,0-5.687,3.677-8.446,6.13c-1.792,1.592-4.992,1.891-4.992,1.891V283h-6.092c-1.4,0-1.908,1.687-1.908,3.085v39.709
	c0,1.4,0.508,1.206,1.908,1.206h30.075c3.835-4,10.017-8.073,12.017-10.886v-30.029C422,284.687,421.016,283,419.616,283z M391,318
	h-6v-5h6V318z M391,309h-6v-5h6V309z M391,300h-6v-5h6V300z M399.542,277.047c2.525,0,4.572,2.047,4.572,4.572
	c0,2.525-2.047,4.572-4.572,4.572s-4.572-2.047-4.572-4.572C394.97,279.094,397.017,277.047,399.542,277.047z M393,304h10v5h-10V304
	z M409,318h-16v-5h16V318z M393,300v-5h24v5H393z"/>
</svg>
