<?xml version="1.0" encoding="utf-8"?>
<!-- Generator: Adobe Illustrator 15.0.0, SVG Export Plug-In . SVG Version: 6.00 Build 0)  -->
<!DOCTYPE svg PUBLIC "-//W3C//DTD SVG 1.1//EN" "http://www.w3.org/Graphics/SVG/1.1/DTD/svg11.dtd">
<svg version="1.1" id="Layer_1" xmlns="http://www.w3.org/2000/svg" xmlns:xlink="http://www.w3.org/1999/xlink" x="0px" y="0px"
	 width="49.095px" height="57px" viewBox="374 272 49.095 57" enable-background="new 374 272 49.095 57" xml:space="preserve">
<g>
	<g>
		<path fill="#567E87" d="M395.728,323c0.006,0,0.013,0,0.019,0c2.682,0,4.391,3,4.368,6h8.687c0,0,0.005-3.681-3.067-3.681
			c-4.122,0-4.902-3.854-4.21-4.751c2.604-3.389,3.475-12.282-2.456-12.457c-5.932,0.175-5.323,8.698-2.72,12.087
			C396.743,320.716,396.654,323,395.728,323z"/>
		<path fill="#567E87" d="M389.069,328.559c-0.003,0.038-0.003,0.062-0.003,0.062h0.363L389.069,328.559z"/>
	</g>
	<path fill="#567E87" d="M395.124,324.656c-4.905,0-5.834-4.568-5.011-5.641c3.102-4.029,4.138-14.607-2.924-14.814
		c-7.06,0.207-6.337,10.715-3.235,14.746c0.823,1.068-0.104,5.721-5.011,5.721c-3.659,0-3.653,4.332-3.653,4.332h12.526h10.962
		C398.779,329,398.784,324.656,395.124,324.656z"/>
	<g opacity="0.88">
		<path fill="#567E87" d="M404.668,306.662c-4.504-0.403-8.84-2.584-11.841-6.432c-5.746-7.371-4.433-18.004,2.938-23.752
			c7.371-5.748,18.003-4.433,23.751,2.938c5.746,7.368,4.435,18.003-2.938,23.751c-2.318,1.809-4.961,2.916-7.673,3.357
			l-1.579,4.704L404.668,306.662z"/>
	</g>
	<g opacity="0.88">
		<path fill="#567E87" d="M401.297,272h-26.312c-0.714,0-0.984,0.512-0.984,1.227v26.742c0,0.715,0.271,1.031,0.984,1.031h3.08
			l2.582,5.122l3.056-5.122h17.595c0.715,0,1.703-0.316,1.703-1.031v-26.742C403,272.512,402.012,272,401.297,272z"/>
	</g>
</g>
</svg>
