<?xml version="1.0" encoding="utf-8"?>
<!-- Generator: Adobe Illustrator 15.0.0, SVG Export Plug-In . SVG Version: 6.00 Build 0)  -->
<!DOCTYPE svg PUBLIC "-//W3C//DTD SVG 1.1//EN" "http://www.w3.org/Graphics/SVG/1.1/DTD/svg11.dtd">
<svg version="1.1" id="Layer_1" xmlns="http://www.w3.org/2000/svg" xmlns:xlink="http://www.w3.org/1999/xlink" x="0px" y="0px"
	 width="47.654px" height="47.654px" viewBox="375.895 275.936 47.654 47.654"
	 enable-background="new 375.895 275.936 47.654 47.654" xml:space="preserve">
<path fill="#567E87" d="M399.722,275.936c-13.159,0-23.827,10.668-23.827,23.827c0,13.159,10.668,23.827,23.827,23.827
	c13.159,0,23.827-10.668,23.827-23.827C423.549,286.604,412.881,275.936,399.722,275.936z M389,310h-5v-15h5V310z M413.883,298.855
	c1.076,1.508,0.349,2.225,0.349,3.086c0-0.43-0.809,0.791-0.779,1.223c0.106,1.617,0,2.693-1.077,3.662
	c-1.078,0.97,0.041,1.836-1.939,3.34c-1.292,0.982-14.242,2.599-17.451-1.831c-1.13-1.562-1.255-7.647-0.771-10.61
	c0.654-4.002,8.526-5.71,9.497-12.657c0.51-3.652,3.985-3.662,3.985,0c0,3.663-3.824,7.648-1.562,7.648
	c2.263,0,10.396,0.323,10.396,2.908S413.545,298.383,413.883,298.855z"/>
</svg>
