<?xml version="1.0" encoding="utf-8"?>
<!-- Generator: Adobe Illustrator 16.0.0, SVG Export Plug-In . SVG Version: 6.00 Build 0)  -->
<!DOCTYPE svg PUBLIC "-//W3C//DTD SVG 1.1//EN" "http://www.w3.org/Graphics/SVG/1.1/DTD/svg11.dtd">
<svg version="1.1" id="Layer_6" xmlns="http://www.w3.org/2000/svg" xmlns:xlink="http://www.w3.org/1999/xlink" x="0px" y="0px"
	 width="100px" height="100px" viewBox="0 0 100 100" enable-background="new 0 0 100 100" xml:space="preserve">
<path d="M50,1.125C23.008,1.125,1.125,23.007,1.125,50S23.008,98.875,50,98.875S98.875,76.993,98.875,50S76.992,1.125,50,1.125z
	 M84.553,33.92c-0.306,6.734-5.014,15.959-14.109,27.666C61.041,73.814,53.083,79.93,46.571,79.93
	c-4.029,0-7.44-3.723-10.229-11.173c-1.861-6.828-3.724-13.651-5.584-20.479c-2.067-7.446-4.287-11.174-6.663-11.174
	c-0.516,0-2.33,1.091-5.431,3.261l-3.252-4.195c3.411-2.997,6.78-6,10.093-9.006c4.555-3.933,7.971-6.004,10.252-6.214
	c5.383-0.517,8.697,3.167,9.941,11.044c1.344,8.504,2.273,13.793,2.795,15.861c1.551,7.055,3.26,10.579,5.122,10.579
	c1.45,0,3.627-2.292,6.526-6.863c2.896-4.578,4.448-8.061,4.657-10.449c0.413-3.951-1.14-5.93-4.657-5.93
	c-1.659,0-3.367,0.378-5.121,1.135c3.399-11.138,9.894-16.551,19.484-16.245C81.613,20.292,84.962,24.904,84.553,33.92z"/>
</svg>
