<?xml version="1.0" encoding="utf-8"?>
<!-- Generator: Adobe Illustrator 16.0.0, SVG Export Plug-In . SVG Version: 6.00 Build 0)  -->
<!DOCTYPE svg PUBLIC "-//W3C//DTD SVG 1.1//EN" "http://www.w3.org/Graphics/SVG/1.1/DTD/svg11.dtd">
<svg version="1.1" id="Layer_6" xmlns="http://www.w3.org/2000/svg" xmlns:xlink="http://www.w3.org/1999/xlink" x="0px" y="0px"
	 width="100px" height="100px" viewBox="0 0 100 100" enable-background="new 0 0 100 100" xml:space="preserve">
<g>
	<polygon points="26.801,53.607 30.676,53.607 30.676,74.58 34.342,74.58 34.342,53.607 38.289,53.607 38.289,50.172 26.801,50.172 
			"/>
	<path d="M57.799,56.171c-1.212,0-2.343,0.662-3.406,1.972v-7.972h-3.295V74.58h3.295v-1.762c1.102,1.361,2.233,2.013,3.406,2.013
		c1.311,0,2.193-0.691,2.633-2.044c0.22-0.771,0.334-1.983,0.334-3.665v-7.242c0-1.722-0.113-2.924-0.334-3.656
		C59.993,56.861,59.11,56.171,57.799,56.171z M57.469,69.38c0,1.643-0.482,2.454-1.434,2.454c-0.541,0-1.092-0.259-1.643-0.811
		V59.939c0.551-0.544,1.102-0.802,1.643-0.802c0.951,0,1.434,0.841,1.434,2.482V69.38z"/>
	<path d="M44.949,70.292c-0.731,1.033-1.422,1.542-2.084,1.542c-0.44,0-0.691-0.259-0.771-0.771c-0.03-0.107-0.03-0.509-0.03-1.281
		v-13.39h-3.296v14.38c0,1.284,0.111,2.153,0.291,2.705c0.331,0.921,1.063,1.353,2.123,1.353c1.213,0,2.457-0.732,3.767-2.234v1.984
		h3.298V56.393h-3.298V70.292z"/>
	<path d="M47.778,39.591c1.073,0,1.588-0.851,1.588-2.551v-7.731c0-1.701-0.515-2.548-1.588-2.548c-1.074,0-1.59,0.848-1.59,2.548
		v7.731C46.188,38.741,46.704,39.591,47.778,39.591z"/>
	<path d="M50,1.125C23.007,1.125,1.125,23.007,1.125,50S23.007,98.875,50,98.875S98.875,76.993,98.875,50S76.993,1.125,50,1.125z
		 M55.436,23.985h3.321v13.532c0,0.781,0,1.186,0.04,1.295c0.073,0.516,0.335,0.78,0.781,0.78c0.666,0,1.365-0.516,2.103-1.559
		V23.985h3.331v18.379h-3.331v-2.004c-1.326,1.52-2.589,2.257-3.804,2.257c-1.073,0-1.813-0.435-2.146-1.365
		c-0.184-0.557-0.296-1.436-0.296-2.733V23.985z M42.858,29.978c0-1.965,0.334-3.401,1.042-4.33
		c0.921-1.257,2.218-1.885,3.878-1.885c1.668,0,2.964,0.628,3.885,1.885c0.699,0.928,1.033,2.365,1.033,4.33v6.436
		c0,1.954-0.334,3.403-1.033,4.322c-0.921,1.254-2.217,1.881-3.885,1.881c-1.66,0-2.957-0.627-3.878-1.881
		c-0.708-0.919-1.042-2.369-1.042-4.322V29.978z M33.952,17.701l2.622,9.685l2.519-9.685h3.735l-4.443,14.675v9.989h-3.692v-9.989
		c-0.335-1.77-1.074-4.363-2.259-7.803c-0.778-2.289-1.589-4.585-2.367-6.872H33.952z M76.311,76.186
		c-0.668,2.899-3.04,5.039-5.894,5.358c-6.762,0.755-13.604,0.759-20.42,0.755c-6.813,0.004-13.658,0-20.419-0.755
		c-2.855-0.319-5.227-2.458-5.893-5.358c-0.951-4.13-0.951-8.638-0.951-12.89c0-4.252,0.012-8.76,0.962-12.89
		c0.667-2.9,3.037-5.04,5.892-5.358c6.762-0.755,13.606-0.759,20.421-0.755c6.813-0.004,13.657,0,20.419,0.755
		c2.855,0.319,5.227,2.458,5.895,5.358c0.949,4.13,0.942,8.638,0.942,12.89C77.265,67.548,77.261,72.056,76.311,76.186z"/>
	<path d="M68.295,56.171c-1.685,0-2.995,0.619-3.947,1.864c-0.7,0.92-1.018,2.342-1.018,4.286v6.37c0,1.933,0.357,3.366,1.058,4.277
		c0.952,1.242,2.265,1.863,3.989,1.863c1.721,0,3.072-0.651,3.984-1.972c0.4-0.583,0.66-1.245,0.77-1.974
		c0.031-0.33,0.07-1.061,0.07-2.124v-0.48H69.84c0,1.321-0.043,2.053-0.073,2.232c-0.188,0.881-0.661,1.322-1.472,1.322
		c-1.132,0-1.685-0.84-1.685-2.523v-3.225h6.591v-3.766c0-1.944-0.329-3.366-1.02-4.286C71.26,56.791,69.949,56.171,68.295,56.171z
		 M69.907,63.343h-3.296V61.66c0-1.682,0.553-2.523,1.654-2.523c1.091,0,1.642,0.841,1.642,2.523V63.343z"/>
</g>
</svg>
