<?xml version="1.0" encoding="utf-8"?>
<!-- Generator: Adobe Illustrator 18.1.1, SVG Export Plug-In . SVG Version: 6.00 Build 0)  -->
<!DOCTYPE svg PUBLIC "-//W3C//DTD SVG 1.1//EN" "http://www.w3.org/Graphics/SVG/1.1/DTD/svg11.dtd">
<svg version="1.1" id="Layer_1" xmlns="http://www.w3.org/2000/svg" xmlns:xlink="http://www.w3.org/1999/xlink" x="0px" y="0px"
	 viewBox="0 0 120 120" enable-background="new 0 0 120 120" xml:space="preserve">
<g>
	<path fill="#999999" d="M110.2,59L110.2,59c-1.1-9-21.7-36-49.8-36C29.9,23,10.7,49,9.8,59h0c0,0,0,0.4,0,0.5c0,0.1,0,0.5,0,0.5h0
		c0.9,11,20.1,36,50.6,36c28.1,0,48.7-26,49.8-36h0.1c0,0,0-0.4,0-0.5C110.1,59.4,110.2,59,110.2,59z M58.9,86.3
		c-14.9,0-27-12.1-27-27s12.1-27,27-27c14.9,0,27,12.1,27,27S73.8,86.3,58.9,86.3z"/>
	<path fill="#999999" d="M59.6,44.5c0.2,0.9,0.3,1.8,0.3,2.7c0,6.2-5,11.2-11.2,11.2c-0.8,0-1.6-0.1-2.4-0.3c0.2,7.2,6,13,13.3,13
		c7.3,0,13.3-5.9,13.3-13.3C72.9,50.4,66.9,44.5,59.6,44.5z"/>
</g>
</svg>
