<?xml version="1.0" encoding="utf-8"?>
<!-- Generator: Adobe Illustrator 18.1.1, SVG Export Plug-In . SVG Version: 6.00 Build 0)  -->
<!DOCTYPE svg PUBLIC "-//W3C//DTD SVG 1.1//EN" "http://www.w3.org/Graphics/SVG/1.1/DTD/svg11.dtd">
<svg version="1.1" id="Layer_1" xmlns="http://www.w3.org/2000/svg" xmlns:xlink="http://www.w3.org/1999/xlink" x="0px" y="0px"
	 viewBox="0 0 120 120" enable-background="new 0 0 120 120" xml:space="preserve">
<g>
	<path fill="#999999" d="M26.7,81.8c-2.6-3.8-4.2-8.4-4.2-13.4c0-13,10.6-23.6,23.6-23.6c13,0,23.6,10.6,23.6,23.6
		c0,13-10.6,23.6-23.6,23.6c-3.7,0-7.1-0.9-10.2-2.3c-6,2.1-13.4,4.5-13.4,4.5L26.7,81.8z"/>
	<path fill="#ABABAB" d="M91.3,72.1c3.3-4.8,5.2-10.5,5.2-16.7c0-16.3-13.2-29.5-29.5-29.5S37.6,39.1,37.6,55.4
		c0,16.3,13.2,29.5,29.5,29.5c4.6,0,8.9-1.1,12.8-2.9c7.5,2.6,16.7,5.7,16.7,5.7L91.3,72.1z"/>
</g>
</svg>
