<?xml version="1.0" encoding="utf-8"?>
<!-- Generator: Adobe Illustrator 18.1.0, SVG Export Plug-In . SVG Version: 6.00 Build 0)  -->
<!DOCTYPE svg PUBLIC "-//W3C//DTD SVG 1.1//EN" "http://www.w3.org/Graphics/SVG/1.1/DTD/svg11.dtd">
<svg version="1.1"
	 id="svg3037" sodipodi:docname="paper_clip_font_awesome.svg" inkscape:version="0.48.3.1 r9886" xmlns:inkscape="http://www.inkscape.org/namespaces/inkscape" xmlns:sodipodi="http://sodipodi.sourceforge.net/DTD/sodipodi-0.dtd" xmlns:cc="http://creativecommons.org/ns#" xmlns:dc="http://purl.org/dc/elements/1.1/" xmlns:rdf="http://www.w3.org/1999/02/22-rdf-syntax-ns#" xmlns:svg="http://www.w3.org/2000/svg"
	 xmlns="http://www.w3.org/2000/svg" xmlns:xlink="http://www.w3.org/1999/xlink" x="0px" y="0px" viewBox="0 0 30 30"
	 enable-background="new 0 0 30 30" xml:space="preserve">
<sodipodi:namedview  inkscape:window-maximized="0" inkscape:pageopacity="0" inkscape:pageshadow="2" inkscape:current-layer="svg3037" inkscape:window-y="25" inkscape:window-x="0" inkscape:window-height="480" inkscape:window-width="640" inkscape:cx="896" pagecolor="#ffffff" borderopacity="1" inkscape:zoom="0.13169643" showgrid="false" inkscape:cy="896" guidetolerance="10" id="namedview3043" bordercolor="#666666" gridtolerance="10" objecttolerance="10">
	</sodipodi:namedview>
<g id="g3039" transform="matrix(1,0,0,-1,205.01695,1300.6102)">
	<path id="path3041" inkscape:connector-curvature="0" d="M-178.1,1277.4c0-1.3-0.4-2.4-1.3-3.3s-2-1.3-3.3-1.3
		c-1.5,0-2.8,0.6-3.9,1.7l-13,13c-1.3,1.3-1.9,2.8-1.9,4.5c0,1.8,0.6,3.3,1.8,4.5c1.2,1.2,2.7,1.9,4.5,1.9c1.8,0,3.3-0.6,4.6-1.9
		l10.1-10.1c0.1-0.1,0.2-0.2,0.2-0.4c0-0.2-0.2-0.4-0.5-0.8c-0.3-0.3-0.6-0.5-0.8-0.5c-0.1,0-0.3,0.1-0.4,0.2l-10.1,10.2
		c-0.9,0.9-1.9,1.3-3,1.3c-1.2,0-2.2-0.4-3-1.3s-1.2-1.8-1.2-3c0-1.2,0.4-2.2,1.3-3l13-13c0.7-0.7,1.5-1.1,2.4-1.1
		c0.7,0,1.3,0.2,1.8,0.7s0.7,1.1,0.7,1.8c0,0.9-0.4,1.7-1.1,2.4l-9.7,9.7c-0.3,0.3-0.6,0.4-1,0.4c-0.3,0-0.6-0.1-0.8-0.3
		c-0.2-0.2-0.3-0.5-0.3-0.8c0-0.4,0.1-0.7,0.4-1l6.9-6.9c0.1-0.1,0.2-0.2,0.2-0.4c0-0.2-0.2-0.4-0.5-0.8c-0.3-0.3-0.6-0.5-0.8-0.5
		c-0.1,0-0.3,0.1-0.4,0.2l-6.9,6.9c-0.7,0.7-1.1,1.5-1.1,2.5c0,0.9,0.3,1.7,1,2.3c0.6,0.6,1.4,1,2.3,1c1,0,1.8-0.4,2.5-1.1l9.7-9.7
		C-178.6,1280.3-178.1,1279-178.1,1277.4z"/>
</g>
</svg>
