<?xml version="1.0" encoding="utf-8"?>
<!-- Generator: Adobe Illustrator 18.1.1, SVG Export Plug-In . SVG Version: 6.00 Build 0)  -->
<!DOCTYPE svg PUBLIC "-//W3C//DTD SVG 1.1//EN" "http://www.w3.org/Graphics/SVG/1.1/DTD/svg11.dtd">
<svg version="1.1" id="Layer_1" xmlns="http://www.w3.org/2000/svg" xmlns:xlink="http://www.w3.org/1999/xlink" x="0px" y="0px"
	 viewBox="0 0 30 30" enable-background="new 0 0 30 30" xml:space="preserve">
<g>
	<path fill="#B64336" d="M70.5,43.8l-2-77.3c0-2.2-1.9-4-4.1-4l-97.6-5c-2.2,0-8.8,4.3-8.8,9v102c0,2.2,2.3,4.5,4.5,4.5h78.8
		C48.7,65.6,62.7,51.6,70.5,43.8z"/>
	<path fill="#EB4D3B" d="M73,41.3v-80.8c0-2.2-1.3-3.5-3.5-3.5h-102c-2.2,0-4.5,1.3-4.5,3.5v102c0,2.2,2.3,4.5,4.5,4.5h79.8
		C56,58.3,67.6,46.7,73,41.3z"/>
	<g>
		<path opacity="0.7" fill="#FFFFFF" d="M72.2,41H49.2c-1.7,0-3.2,1.4-3.2,3.2v23.1L72.2,41z"/>
	</g>
	<path opacity="0.87" fill="#B64336" d="M3.8-21.4l-35.9,34.8l-6.9,6.8V67c0,0,53,1.2,53,4s39.6-36.4,39.6-36.4L16.5,18.5L3.8-21.4z
		"/>
	<path fill="none" stroke="#A43528" stroke-width="8" stroke-miterlimit="10" d="M9.9-21c8.9,0,6,16.8-4.6,37.6S-18,50.4-21.8,45.4
		c-6.1-8.1,20.2-17.2,35.6-20.5c21.7-4.7,40.5,3.9,35,9.5C34.2,49.1-7.9-20.9,9.9-21z"/>
	<path fill="none" stroke="#FFFFFF" stroke-width="6" stroke-miterlimit="10" d="M12.9-23c8.9,0,6,16.8-4.6,37.6S-15,48.4-18.8,43.4
		c-6.1-8.1,20.2-17.2,35.6-20.5c21.7-4.7,40.5,3.9,35,9.5C37.2,47.1-4.9-22.9,12.9-23z"/>
</g>
</svg>
