<?xml version="1.0" encoding="utf-8"?>
<!-- Generator: Adobe Illustrator 18.1.1, SVG Export Plug-In . SVG Version: 6.00 Build 0)  -->
<!DOCTYPE svg PUBLIC "-//W3C//DTD SVG 1.1//EN" "http://www.w3.org/Graphics/SVG/1.1/DTD/svg11.dtd">
<svg version="1.1" id="Layer_1" xmlns="http://www.w3.org/2000/svg" xmlns:xlink="http://www.w3.org/1999/xlink" x="0px" y="0px"
	 viewBox="0 0 120 120" enable-background="new 0 0 120 120" xml:space="preserve">
<g>
	<path fill="#5F843A" d="M114.5,88.8l-2-77.3c0-2.2-1.9-4-4.1-4l-97.6-5c-2.2,0-8.8,4.3-8.8,9v102c0,2.2,2.3,4.5,4.5,4.5h78.8
		C92.7,110.6,106.7,96.6,114.5,88.8z"/>
	<path fill="#7CAE41" d="M117,86.3V5.5c0-2.2-1.3-3.5-3.5-3.5h-102C9.3,2,7,3.3,7,5.5v102c0,2.2,2.3,4.5,4.5,4.5h79.8
		C100,103.3,111.6,91.7,117,86.3z"/>
	<g>
		<path fill="#5F843A" d="M88,61.5c-9.2-2.6-23.5,2.7-31.9-3.2c-9.9-6.8-2.7-25.6-20.5-34.8c-10.4-5.3-16.7-1.4-17.9,2.9
			c-1.7,6.2,3.7,39.5,21.6,43.7C57.2,74.4,74,70.5,79.6,75c5.5,4.5,4.6,12.4,12.8,12.4C103.6,87.3,97.2,64.2,88,61.5z"/>
		<path fill="#5F843A" d="M88.9,55.4c12.3-1.6,3-26.5-10-22.1C73.1,35.2,76.6,57,88.9,55.4z"/>
		<path fill="#5F843A" d="M33.6,78.6c-5.5,5-0.7,18.1,7.2,18.4s16.5-0.2,16.5-11.6S42.9,70.1,33.6,78.6z"/>
	</g>
	<path opacity="0.8" fill="#5F843A" d="M18.9,24.2L4.2,38.9l1.3,74.9c0,0,62.7,1.7,63.2,1C69.2,114.2,96.2,86,96.2,86L90,74
		c0,0-26-9.4-26.3-10S18.9,24.2,18.9,24.2z"/>
	<polyline opacity="0.8" fill="#5F843A" points="76.9,35.4 53.6,58.7 71.7,74.2 91.8,54 	"/>
	<path fill="#F5F6F6" d="M21.8,26.2c-1.6,5.9,3.5,37.5,20.5,41.5s33,0.2,38.2,4.5S84.9,84,92.7,84c10.7,0,4.6-22-4.2-24.5
		s-22.3,2.5-30.3-3c-9.4-6.5-2.6-24.3-19.5-33C28.9,18.5,22.9,22.2,21.8,26.2z"/>
	<path fill="#F5F6F6" d="M79.8,32.7c-5.5,1.8-2.2,22.5,9.5,21C101,52.2,92.2,28.5,79.8,32.7z"/>
	<path fill="#F5F6F6" d="M36.8,75.7c-5.2,4.7-0.7,17.2,6.8,17.5c7.5,0.3,15.7-0.2,15.7-11C59.3,71.3,45.7,67.7,36.8,75.7z"/>
	<g>
		<path opacity="0.7" fill="#FFFFFF" d="M116.2,86H93.2c-1.7,0-3.2,1.4-3.2,3.2v23.1L116.2,86z"/>
	</g>
</g>
</svg>
