<?xml version="1.0" encoding="utf-8"?>
<!-- Generator: Adobe Illustrator 18.1.1, SVG Export Plug-In . SVG Version: 6.00 Build 0)  -->
<!DOCTYPE svg PUBLIC "-//W3C//DTD SVG 1.1//EN" "http://www.w3.org/Graphics/SVG/1.1/DTD/svg11.dtd">
<svg version="1.1" id="Layer_1" xmlns="http://www.w3.org/2000/svg" xmlns:xlink="http://www.w3.org/1999/xlink" x="0px" y="0px"
	 viewBox="0 0 120 120" enable-background="new 0 0 120 120" xml:space="preserve">
<g>
	<path fill="#1F4175" d="M114.5,88.8l-2-77.3c0-2.2-1.9-4-4.1-4l-97.6-5c-2.2,0-8.8,4.3-8.8,9v102c0,2.2,2.3,4.5,4.5,4.5h78.8
		C92.7,110.6,106.7,96.6,114.5,88.8z"/>
	<path fill="#3760A2" d="M117,86.3V5.5c0-2.2-1.3-3.5-3.5-3.5h-102C9.3,2,7,3.3,7,5.5v102c0,2.2,2.3,4.5,4.5,4.5h79.8
		C100,103.3,111.6,91.7,117,86.3z"/>
	<polygon opacity="0.6" fill="#1F4175" points="52.7,114.2 99.4,69.3 92.2,39 73.1,49.1 67.6,34 35.5,53.1 30.6,27.8 4.1,53.1 
		6.5,113.5 	"/>
	<g>
		<path opacity="0.7" fill="#FFFFFF" d="M116.2,86H93.2c-1.7,0-3.2,1.4-3.2,3.2v23.1L116.2,86z"/>
	</g>
	<path fill="#1F4175" d="M29.8,27.5c-5,0.5-5.5,8.6-3.4,15.7c1.2,4.3,8.6,38.2,20,38.2c13.5,0,44.4-6.9,43.8-10.7
		c-0.7-4.9-8.2-0.6-9.7-5.4c-1.5-4.9-3.1-32.1-12.9-31.1C60.1,35,62.3,44.6,64.4,53c2.1,8.4,2.6,16.3,5.6,17.6c0,0-10.7,4.7-14-0.9
		C52.6,64,50.2,46,46.8,38.1C43.2,29.9,39.8,26.5,29.8,27.5z"/>
	<path fill="#1F4175" d="M91,39.9c-5.2,1.5-2,11-0.7,19.2c1.3,8.2,2.2,12.8,6.2,12.8c5.4,0,3.3-12.9,2.1-20.6
		C97.4,45.1,96.8,38.3,91,39.9z"/>
	<path fill="#FFFFFF" d="M32.7,27c-4.9,0.5-5.4,8.4-3.4,15.3c1.2,4.2,8.4,37.2,19.5,37.2c13.1,0,43.2-6.7,42.6-10.4
		c-0.7-4.7-8-0.5-9.5-5.3c-1.5-4.7-3-31.2-12.6-30.2c-7.3,0.7-5.1,10.1-3.1,18.3c2,8.2,2.6,15.8,5.5,17.1c0,0-10.4,4.6-13.7-0.9
		c-3.3-5.5-5.6-23-8.9-30.7C45.7,29.3,42.5,26,32.7,27z"/>
	<path fill="#FFFFFF" d="M92.2,39c-5.1,1.4-2,10.7-0.7,18.6c1.3,7.9,2.2,12.5,6,12.5c5.3,0,3.2-12.6,2-20
		C98.5,44.1,97.8,37.5,92.2,39z"/>
</g>
</svg>
