<?xml version="1.0" encoding="utf-8"?>
<!-- Generator: Adobe Illustrator 18.1.1, SVG Export Plug-In . SVG Version: 6.00 Build 0)  -->
<!DOCTYPE svg PUBLIC "-//W3C//DTD SVG 1.1//EN" "http://www.w3.org/Graphics/SVG/1.1/DTD/svg11.dtd">
<svg version="1.1" id="Layer_1" xmlns="http://www.w3.org/2000/svg" xmlns:xlink="http://www.w3.org/1999/xlink" x="0px" y="0px"
	 viewBox="0 0 120 120" enable-background="new 0 0 120 120" xml:space="preserve">
<g>
	<path fill="#A36C31" d="M114.5,88.8l-2-77.3c0-2.2-1.9-4-4.1-4l-97.6-5c-2.2,0-8.8,4.3-8.8,9v102c0,2.2,2.3,4.5,4.5,4.5h78.8
		C92.7,110.6,106.7,96.6,114.5,88.8z"/>
	<path fill="#DF8D3A" d="M117,86.3V5.5c0-2.2-1.3-3.5-3.5-3.5h-102C9.3,2,7,3.3,7,5.5v102c0,2.2,2.3,4.5,4.5,4.5h79.8
		C100,103.3,111.6,91.7,117,86.3z"/>
	<polygon opacity="0.7" fill="#A36C31" points="52.7,114.2 98.8,66.2 91.3,40 25.1,24.5 7.2,41 6.5,113.5 	"/>
	<path fill="#FFFFFF" d="M31.8,46.7c-2.9,3.8-2.1,10.5,0.7,21.5c3.5,13.8,5,29.4,20.7,29.3C66.1,97.5,66.3,86.8,64,74
		c-1.5-8.5-3.9-27.8-17.8-31.3C37.8,40.6,33.6,44.4,31.8,46.7z"/>
	<path fill="#FFFFFF" d="M24.5,25.7c-2.4,6.3,0.9,9.8,7,12.3C42,42.3,83,39.5,84.2,49.8c1,8.7,1.3,12.2-4.7,12.7S65.1,62,65.8,71.3
		c0.6,7.8,20,3.2,26,0.8c6-2.3,12.2-9.8,8.7-24.2S86.2,29.9,72.2,27.5C43.8,22.7,28.2,16.2,24.5,25.7z"/>
	<g>
		<path opacity="0.7" fill="#FFFFFF" d="M116.2,86H93.2c-1.7,0-3.2,1.4-3.2,3.2v23.1L116.2,86z"/>
	</g>
</g>
</svg>
