<?xml version="1.0" encoding="utf-8"?>
<!-- Generator: Adobe Illustrator 18.1.1, SVG Export Plug-In . SVG Version: 6.00 Build 0)  -->
<svg version="1.1" id="Layer_1" xmlns="http://www.w3.org/2000/svg" xmlns:xlink="http://www.w3.org/1999/xlink" x="0px" y="0px"
	 viewBox="401 0 558 558" enable-background="new 401 0 558 558" xml:space="preserve">
<path fill="#3B548E" d="M680,0C526.2,0,401,125.2,401,279c0,153.8,125.2,279,279,279c153.8,0,279-125.2,279-279
	C959,125.2,833.8,0,680,0z M749.4,288.8H704c0,72.5,0,161.8,0,161.8h-67.3c0,0,0-88.4,0-161.8h-32v-57.2h32v-37
	c0-26.5,12.6-67.9,67.9-67.9l49.8,0.2v55.5c0,0-30.3,0-36.2,0c-5.9,0-14.2,2.9-14.2,15.6v33.6h51.2L749.4,288.8z"/>
</svg>
