<?xml version="1.0" encoding="utf-8"?>
<!-- Generator: Adobe Illustrator 16.0.4, SVG Export Plug-In . SVG Version: 6.00 Build 0)  -->
<!DOCTYPE svg PUBLIC "-//W3C//DTD SVG 1.1//EN" "http://www.w3.org/Graphics/SVG/1.1/DTD/svg11.dtd">
<svg version="1.1" id="Capa_1" xmlns="http://www.w3.org/2000/svg" xmlns:xlink="http://www.w3.org/1999/xlink" x="0px" y="0px"
	 width="16px" height="16px" viewBox="0 0 16 16" enable-background="new 0 0 16 16" xml:space="preserve">
<path d="M8,0C3.582,0,0,3.582,0,8s3.582,8,8,8s8-3.582,8-8C16,3.581,12.418,0,8,0z M6,11.875H4v-7h2V11.875z M5.062,4.446
	c-0.518,0-0.937-0.42-0.937-0.938c0-0.518,0.42-0.938,0.937-0.938C5.58,2.571,6,2.991,6,3.508C6,4.026,5.58,4.446,5.062,4.446z
	 M13,11.875h-2V7.547c0-0.507-0.145-0.862-0.768-0.862C9.199,6.685,9,7.547,9,7.547v4.328H7v-7h2v0.669c0.286-0.219,1-0.668,2-0.668
	c0.648,0,2,0.388,2,2.732V11.875z"/>
</svg>
