<?xml version="1.0" encoding="utf-8"?>
<!-- Generator: Adobe Illustrator 15.0.0, SVG Export Plug-In . SVG Version: 6.00 Build 0)  -->
<!DOCTYPE svg PUBLIC "-//W3C//DTD SVG 1.1//EN" "http://www.w3.org/Graphics/SVG/1.1/DTD/svg11.dtd">
<svg version="1.1" id="Layer_1" xmlns="http://www.w3.org/2000/svg" xmlns:xlink="http://www.w3.org/1999/xlink" x="0px" y="0px"
	 width="43.287px" height="39.917px" viewBox="373.5 268.501 43.287 39.917" enable-background="new 373.5 268.501 43.287 39.917"
	 xml:space="preserve">
<g>
	<path fill="#567E87" d="M375.94,301.173c-1.535-2.224-2.44-4.917-2.44-7.823c0-7.615,6.174-13.789,13.789-13.789
		c7.614,0,13.788,6.174,13.788,13.789c0,7.612-6.174,13.786-13.788,13.786c-2.142,0-4.16-0.503-5.97-1.372
		c-3.526,1.208-7.819,2.654-7.819,2.654L375.94,301.173z"/>
	<path fill="#ACBCC0" d="M413.734,295.516c1.922-2.779,3.053-6.146,3.053-9.781c0-9.519-7.717-17.233-17.234-17.233
		c-9.517,0-17.233,7.716-17.233,17.233c0,9.519,7.716,17.232,17.233,17.232c2.678,0,5.199-0.628,7.459-1.716
		c4.41,1.511,9.775,3.319,9.775,3.319L413.734,295.516z"/>
</g>
</svg>
