<?xml version="1.0" encoding="utf-8"?>
<!-- Generator: Adobe Illustrator 15.0.0, SVG Export Plug-In . SVG Version: 6.00 Build 0)  -->
<!DOCTYPE svg PUBLIC "-//W3C//DTD SVG 1.1//EN" "http://www.w3.org/Graphics/SVG/1.1/DTD/svg11.dtd">
<svg version="1.1" id="Layer_1" xmlns="http://www.w3.org/2000/svg" xmlns:xlink="http://www.w3.org/1999/xlink" x="0px" y="0px"
	 width="50px" height="49px" viewBox="375 276 50 49" enable-background="new 375 276 50 49" xml:space="preserve">
<g>
	<g>
		<path fill="#567E87" d="M423.223,281h-39.708c-1.4,0-2.515,0.555-2.515,1.953v39.709c0,1.399,1.114,2.338,2.515,2.338h30.075
			c3.835-5,9.41-9.205,11.41-12.018v-30.029C425,281.555,424.622,281,423.223,281z M423,311h-6.041l-5.536-6.609l-4.522,3.705
			l-10.707-15.319L388.419,311H383v-28h40V311z"/>
		<circle fill="#567E87" cx="413.491" cy="291.584" r="3.82"/>
	</g>
	<path fill="#567E87" d="M381,306h-4v-28h40v3h2v-3.047c0-1.398-0.378-1.953-1.777-1.953h-39.708c-1.4,0-2.515,0.555-2.515,1.953
		v39.709c0,1.399,1.114,2.338,2.515,2.338H381V306z"/>
</g>
</svg>
