<?xml version="1.0" encoding="utf-8"?>
<!-- Generator: Adobe Illustrator 16.0.0, SVG Export Plug-In . SVG Version: 6.00 Build 0)  -->
<!DOCTYPE svg PUBLIC "-//W3C//DTD SVG 1.1//EN" "http://www.w3.org/Graphics/SVG/1.1/DTD/svg11.dtd">
<svg version="1.1" id="Layer_6" xmlns="http://www.w3.org/2000/svg" xmlns:xlink="http://www.w3.org/1999/xlink" x="0px" y="0px"
	 width="100px" height="100px" viewBox="0 0 100 100" enable-background="new 0 0 100 100" xml:space="preserve">
<path fill-rule="evenodd" clip-rule="evenodd" d="M50,1.125C23.008,1.125,1.125,23.007,1.125,50S23.008,98.875,50,98.875
	S98.875,76.993,98.875,50S76.992,1.125,50,1.125z M38.037,65.295l0.006-20.496c-2.891,0-5.045,0-7.646,0c0-3.322,0-6.252,0-9.574
	c5.777-1.646,10.762-7.786,12.598-14.292c0.705-2.834,0.779-4.757,0.779-4.757s8.857,0,10.863,0c0,5.862,0,11.732,0,17.458
	c4.346,0,8.41,0,12.705,0v11.017c-4.064,0-8.209,0-12.775,0c0,2.207,0,4.489,0,6.378c0.002,4.282-0.016,8.565,0.006,12.847
	c0,11.348,10.9,6.689,11.893,6.472l3.139,10.362C66.889,83.585,38.037,90.601,38.037,65.295z"/>
</svg>
